ply
format ascii 1.0
comment VCGLIB generated
element vertex 45
property float x
property float y
property float z
property uchar red
property uchar green
property uchar blue
element face 0
property list uchar int vertex_indices
element edge 1
property int vertex1
property int vertex2
end_header
0.15379 0.19872 -1.32617 0 255 0
0.15295 0.19211 -1.32454 0 255 0
0.15946 0.18463 -1.32352 0 255 0
0.15671 0.17649 -1.3168 0 255 0
0.1582 0.15586 -1.30568 0 255 0
0.16315 0.14637 -1.30547 0 255 0
0.16111 0.14233 -1.30454 0 255 0
0.1502 0.13476 -1.29711 0 255 0
0.15862 0.12846 -1.30021 0 255 0
0.16154 0.11714 -1.31036 0 255 0
0.16092 0.09957 -1.31139 0 255 0
0.15988 0.07882 -1.3137 0 255 0
0.15983 0.07189 -1.31436 0 255 0
0.15799 0.05835 -1.30699 0 255 0
0.15376 0.05132 -1.31449 0 255 0
0.15256 0.04466 -1.31689 0 255 0
0.16569 0.04092 -1.30187 0 255 0
0.15167 0.03064 -1.31697 0 255 0
0.15151 0.02364 -1.31854 0 255 0
0.16129 0.01623 -1.30099 0 255 0
0.15908 0.00623 -1.30418 0 255 0
0.15647 -0.00433 -1.31299 0 255 0
0.15316 -0.01129 -1.32894 0 255 0
0.15708 -0.02048 -1.31148 0 255 0
0.15884 -0.02581 -1.31012 0 255 0
0.15546 -0.03235 -1.32909 0 255 0
0.15691 -0.04575 -1.32207 0 255 0
0.16696 -0.04935 -1.3089 0 255 0
0.15997 -0.06856 -1.32536 0 255 0
0.16767 -0.07706 -1.30705 0 255 0
0.16082 -0.08211 -1.3275 0 255 0
0.15994 -0.08929 -1.33511 0 255 0
0.17055 -0.09633 -1.30359 0 255 0
0.17363 -0.10802 -1.29956 0 255 0
0.17705 -0.11063 -1.30124 0 255 0
0.16625 -0.12414 -1.31632 0 255 0
0.17687 -0.1335 -1.30716 0 255 0
0.18148 -0.13793 -1.30442 0 255 0
0.17625 -0.15798 -1.30554 0 255 0
0.18456 -0.16288 -1.30486 0 255 0
0.18652 -0.16922 -1.30338 0 255 0
0.16012 0.02226 -1.32029 0 150 0
0.16452 0.00659 -1.3344 0 150 0
0.16012 0.02226 -1.32029 150 150 150
0.16452 0.00659 -1.3344 150 150 150
43 44
