ply
format ascii 1.0
comment VCGLIB generated
element vertex 42
property float x
property float y
property float z
property uchar red
property uchar green
property uchar blue
element face 0
property list uchar int vertex_indices
element edge 1
property int vertex1
property int vertex2
end_header
0.15379 0.19872 -1.32617 0 255 0
0.14583 0.19201 -1.31911 0 255 0
0.16829 0.17998 -1.32439 0 255 0
0.15126 0.1635 -1.31344 0 255 0
0.17997 0.1582 -1.32134 0 255 0
0.15927 0.14275 -1.30262 0 255 0
0.15907 0.13523 -1.30013 0 255 0
0.16617 0.12988 -1.30905 0 255 0
0.16564 0.11424 -1.31148 0 255 0
0.16047 0.1138 -1.3089 0 255 0
0.17609 0.09989 -1.31674 0 255 0
0.15137 0.09333 -1.31428 0 255 0
0.17319 0.08671 -1.31541 0 255 0
0.16593 0.07143 -1.31339 0 255 0
0.15876 0.06456 -1.31206 0 255 0
0.1565 0.05698 -1.30314 0 255 0
0.1657 0.03627 -1.3 0 255 0
0.16786 0.023 -1.29985 0 255 0
0.16164 -0.00473 -1.2999 0 255 0
0.18393 -0.01316 -1.31695 0 255 0
0.15906 -0.01872 -1.31087 0 255 0
0.17455 -0.03386 -1.30525 0 255 0
0.16257 -0.04022 -1.30722 0 255 0
0.17438 -0.05363 -1.30734 0 255 0
0.16191 -0.06116 -1.31393 0 255 0
0.17278 -0.06519 -1.30752 0 255 0
0.18682 -0.07629 -1.3076 0 255 0
0.17064 -0.08197 -1.30167 0 255 0
0.17075 -0.08973 -1.30252 0 255 0
0.17055 -0.09633 -1.30359 0 255 0
0.17363 -0.10802 -1.29956 0 255 0
0.17705 -0.11063 -1.30124 0 255 0
0.17683 -0.12468 -1.30356 0 255 0
0.1725 -0.12959 -1.30612 0 255 0
0.17074 -0.13839 -1.30997 0 255 0
0.18115 -0.15295 -1.30331 0 255 0
0.19121 -0.17819 -1.3024 0 255 0
0.19333 -0.19369 -1.30149 0 255 0
0.13725 0.1216 -1.32115 0 150 0
0.19 -0.06812 -1.30356 0 150 0
0.13725 0.1216 -1.32115 150 150 150
0.19 -0.06812 -1.30356 150 150 150
40 41
