ply
format ascii 1.0
comment VCGLIB generated
element vertex 37
property float x
property float y
property float z
property uchar red
property uchar green
property uchar blue
element face 0
property list uchar int vertex_indices
element edge 1
property int vertex1
property int vertex2
end_header
0.15387 0.19936 -1.32729 0 255 0
0.14495 0.18592 -1.32385 0 255 0
0.14098 0.17804 -1.3188 0 255 0
0.14734 0.16891 -1.31083 0 255 0
0.14849 0.15872 -1.3074 0 255 0
0.16637 0.13406 -1.30904 0 255 0
0.17451 0.11136 -1.32199 0 255 0
0.15396 0.10784 -1.30969 0 255 0
0.1575 0.09194 -1.31042 0 255 0
0.16673 0.08539 -1.3143 0 255 0
0.15876 0.06456 -1.31206 0 255 0
0.17242 0.05737 -1.3126 0 255 0
0.1657 0.04092 -1.30187 0 255 0
0.15543 0.03758 -1.30767 0 255 0
0.16177 0.0257 -1.30335 0 255 0
0.15618 0.0098 -1.30134 0 255 0
0.17354 -0.00386 -1.30524 0 255 0
0.16719 -0.02048 -1.3051 0 255 0
0.17577 -0.02801 -1.30723 0 255 0
0.18253 -0.04874 -1.3061 0 255 0
0.15999 -0.05439 -1.32041 0 255 0
0.19337 -0.06318 -1.3064 0 255 0
0.16767 -0.07706 -1.30705 0 255 0
0.18029 -0.07531 -1.30715 0 255 0
0.18994 -0.09022 -1.3065 0 255 0
0.17276 -0.09757 -1.29978 0 255 0
0.16431 -0.11122 -1.3241 0 255 0
0.18245 -0.12521 -1.3035 0 255 0
0.18325 -0.13844 -1.30534 0 255 0
0.19047 -0.15318 -1.30492 0 255 0
0.16676 -0.16677 -1.33348 0 255 0
0.18775 -0.18134 -1.30112 0 255 0
0.1688 -0.18733 -1.32542 0 255 0
0.14254 0.09812 -1.32541 0 150 0
0.18634 -0.07506 -1.30259 0 150 0
0.14254 0.09812 -1.32541 150 150 150
0.18634 -0.07506 -1.30259 150 150 150
35 36
