ply
format ascii 1.0
comment VCGLIB generated
element vertex 21
property float x
property float y
property float z
property uchar red
property uchar green
property uchar blue
element face 0
property list uchar int vertex_indices
element edge 1
property int vertex1
property int vertex2
end_header
-0.3964 -0.28996 1.7097 0 255 0
-0.39077 -0.29347 1.70615 0 255 0
-0.37391 -0.26903 1.71804 0 255 0
-0.35726 -0.29874 1.72664 0 255 0
-0.35263 -0.27153 1.72664 0 255 0
-0.33246 -0.27546 1.73315 0 255 0
-0.31028 -0.27745 1.74565 0 255 0
-0.31225 -0.26385 1.73707 0 255 0
-0.29884 -0.2626 1.74036 0 255 0
-0.27653 -0.26824 1.7543 0 255 0
-0.26262 -0.26138 1.75564 0 255 0
-0.24903 -0.24157 1.76575 0 255 0
-0.24824 -0.23633 1.76643 0 255 0
-0.25693 -0.22748 1.75296 0 255 0
-0.2431 -0.20629 1.76779 0 255 0
-0.23314 -0.21406 1.77324 0 255 0
-0.22636 -0.19296 1.77598 0 255 0
-0.40558 -0.3006 1.72535 0 150 0
-0.21224 -0.21572 1.77735 0 150 0
-0.40558 -0.3006 1.72535 150 150 150
-0.21224 -0.21572 1.77735 150 150 150
19 20
