ply
format ascii 1.0
comment VCGLIB generated
element vertex 24
property float x
property float y
property float z
property uchar red
property uchar green
property uchar blue
element face 0
property list uchar int vertex_indices
element edge 1
property int vertex1
property int vertex2
end_header
0.37974 0.26471 1.52388 0 255 0
0.40278 0.25601 1.51541 0 255 0
0.43058 0.24795 1.5221 0 255 0
0.45109 0.25813 1.4838 0 255 0
0.4693 0.24821 1.50238 0 255 0
0.47259 0.25249 1.48572 0 255 0
0.47474 0.24132 1.51412 0 255 0
0.50968 0.24072 1.4915 0 255 0
0.52183 0.24189 1.49408 0 255 0
0.54137 0.22725 1.50664 0 255 0
0.55057 0.22337 1.5111 0 255 0
0.55252 0.23961 1.50812 0 255 0
0.57052 0.23443 1.52378 0 255 0
0.58024 0.23589 1.53326 0 255 0
0.58487 0.23442 1.53572 0 255 0
0.58359 0.22735 1.53804 0 255 0
0.60586 0.21419 1.54355 0 255 0
0.61207 0.22661 1.54355 0 255 0
0.62588 0.22768 1.55084 0 255 0
0.64063 0.2274 1.55104 0 255 0
0.37194 0.26579 1.48956 0 150 0
0.66131 0.22024 1.56455 0 150 0
0.37194 0.26579 1.48956 150 150 150
0.66131 0.22024 1.56455 150 150 150
22 23
