ply
format ascii 1.0
comment VCGLIB generated
element vertex 14
property float x
property float y
property float z
property uchar red
property uchar green
property uchar blue
element face 0
property list uchar int vertex_indices
element edge 1
property int vertex1
property int vertex2
end_header
-0.02465 -0.16286 2.67466 0 255 0
-0.04233 -0.1613 2.67892 0 255 0
-0.04809 -0.16671 2.67706 0 255 0
-0.06388 -0.14355 2.69009 0 255 0
-0.06942 -0.13032 2.71154 0 255 0
-0.07407 -0.13995 2.69914 0 255 0
-0.11022 -0.16459 2.69866 0 255 0
-0.12483 -0.13984 2.72902 0 255 0
-0.13238 -0.15655 2.72835 0 255 0
-0.14558 -0.16069 2.73417 0 255 0
-0.02948 -0.16553 2.6757 0 150 0
-0.08595 -0.15114 2.70109 0 150 0
-0.02948 -0.16553 2.6757 150 150 150
-0.08595 -0.15114 2.70109 150 150 150
12 13
