ply
format ascii 1.0
comment VCGLIB generated
element vertex 18
property float x
property float y
property float z
property uchar red
property uchar green
property uchar blue
element face 0
property list uchar int vertex_indices
element edge 1
property int vertex1
property int vertex2
end_header
0.10135 -0.23882 2.17792 0 255 0
0.11138 -0.2327 2.20296 0 255 0
0.12392 -0.24024 2.15144 0 255 0
0.13691 -0.24241 2.15144 0 255 0
0.15711 -0.24572 2.16155 0 255 0
0.17201 -0.24092 2.15749 0 255 0
0.18252 -0.23397 2.15345 0 255 0
0.19262 -0.2274 2.19455 0 255 0
0.2184 -0.21569 2.16562 0 255 0
0.24842 -0.20659 2.16155 0 255 0
0.25591 -0.21173 2.1697 0 255 0
0.2772 -0.20262 2.16562 0 255 0
0.31105 -0.19464 2.17381 0 255 0
0.33167 -0.18642 2.17999 0 255 0
0.10078 -0.26796 2.16562 0 150 0
0.33167 -0.20533 2.19455 0 150 0
0.10078 -0.26796 2.16562 150 150 150
0.33167 -0.20533 2.19455 150 150 150
16 17
