ply
format ascii 1.0
comment VCGLIB generated
element vertex 53
property float x
property float y
property float z
property uchar red
property uchar green
property uchar blue
element face 0
property list uchar int vertex_indices
element edge 1
property int vertex1
property int vertex2
end_header
0.5535 0.67354 1.96934 0 255 0
0.54706 0.68066 1.97103 0 255 0
0.5368 0.67716 1.96779 0 255 0
0.53077 0.67501 1.96131 0 255 0
0.52765 0.69601 1.97718 0 255 0
0.5082 0.70083 1.9821 0 255 0
0.49935 0.69476 1.99092 0 255 0
0.49532 0.69517 1.99825 0 255 0
0.49205 0.7039 1.99525 0 255 0
0.48505 0.71653 1.99587 0 255 0
0.48438 0.72284 2.00386 0 255 0
0.472 0.72587 2.0137 0 255 0
0.45328 0.73973 2.03596 0 255 0
0.45112 0.74564 2.03145 0 255 0
0.44292 0.76225 2.02748 0 255 0
0.43162 0.78594 2.03165 0 255 0
0.41431 0.79484 2.03771 0 255 0
0.40677 0.81228 2.04927 0 255 0
0.40823 0.82333 2.04224 0 255 0
0.40367 0.83754 2.07059 0 255 0
0.38821 0.82662 2.05507 0 255 0
0.38844 0.85009 2.07406 0 255 0
0.37161 0.85834 2.07859 0 255 0
0.37562 0.8657 2.07607 0 255 0
0.36419 0.88054 2.08018 0 255 0
0.34821 0.88069 2.07732 0 255 0
0.36052 0.89863 2.09011 0 255 0
0.35442 0.90738 2.08921 0 255 0
0.33679 0.89829 2.07441 0 255 0
0.33289 0.90979 2.07893 0 255 0
0.31963 0.91149 2.08002 0 255 0
0.31527 0.9286 2.10446 0 255 0
0.2987 0.94259 2.11423 0 255 0
0.2863 0.93408 2.13433 0 255 0
0.2852 0.96174 2.12134 0 255 0
0.27464 0.97814 2.11673 0 255 0
0.26544 1.00347 2.13081 0 255 0
0.2507 1.00608 2.1346 0 255 0
0.24613 1.02041 2.13169 0 255 0
0.23552 1.00867 2.13987 0 255 0
0.22936 1.01542 2.1475 0 255 0
0.22703 1.02871 2.15472 0 255 0
0.21792 1.04361 2.16282 0 255 0
0.21287 1.06049 2.16299 0 255 0
0.20689 1.06799 2.16457 0 255 0
0.20612 1.07955 2.16466 0 255 0
0.18554 1.07708 2.16561 0 255 0
0.17469 1.10652 2.1598 0 255 0
0.18662 1.1378 2.16495 0 255 0
0.56198 0.68813 1.9732 0 150 0
0.18182 1.15116 2.16984 0 150 0
0.56198 0.68813 1.9732 150 150 150
0.18182 1.15116 2.16984 150 150 150
51 52
