ply
format ascii 1.0
comment VCGLIB generated
element vertex 33
property float x
property float y
property float z
property uchar red
property uchar green
property uchar blue
element face 0
property list uchar int vertex_indices
element edge 1
property int vertex1
property int vertex2
end_header
0.44537 0.38735 1.99278 0 255 0
0.45269 0.39803 1.98812 0 255 0
0.45471 0.40281 1.98344 0 255 0
0.46218 0.39809 1.97624 0 255 0
0.4754 0.3992 1.95382 0 255 0
0.47793 0.40585 1.95142 0 255 0
0.49568 0.41543 1.9414 0 255 0
0.51222 0.40773 1.94488 0 255 0
0.52168 0.40934 1.94276 0 255 0
0.53465 0.42302 1.97572 0 255 0
0.54009 0.4202 1.97997 0 255 0
0.55819 0.42458 1.95973 0 255 0
0.55843 0.42891 1.9382 0 255 0
0.56904 0.43152 1.91345 0 255 0
0.5788 0.43384 1.91206 0 255 0
0.58921 0.43249 1.93089 0 255 0
0.59221 0.4417 1.90926 0 255 0
0.60689 0.4416 1.91239 0 255 0
0.62583 0.4425 1.89666 0 255 0
0.62681 0.44418 1.88243 0 255 0
0.6348 0.44094 1.89966 0 255 0
0.6342 0.45114 1.87123 0 255 0
0.65681 0.45815 1.85717 0 255 0
0.66311 0.44542 1.84291 0 255 0
0.66868 0.45064 1.84111 0 255 0
0.67679 0.45312 1.89586 0 255 0
0.70086 0.45657 1.83868 0 255 0
0.71677 0.45723 1.83555 0 255 0
0.73232 0.46712 1.8267 0 255 0
0.43733 0.38253 2.00775 0 150 0
0.73132 0.47393 1.81836 0 150 0
0.43733 0.38253 2.00775 150 150 150
0.73132 0.47393 1.81836 150 150 150
31 32
