ply
format ascii 1.0
comment VCGLIB generated
element vertex 25
property float x
property float y
property float z
property uchar red
property uchar green
property uchar blue
element face 0
property list uchar int vertex_indices
element edge 1
property int vertex1
property int vertex2
end_header
0.11246 1.4108 1.59189 0 255 0
0.11167 1.42875 1.58574 0 255 0
0.09598 1.45748 1.57708 0 255 0
0.07908 1.47679 1.57611 0 255 0
0.09045 1.51712 1.60344 0 255 0
0.09425 1.52038 1.58065 0 255 0
0.09287 1.54743 1.60643 0 255 0
0.10266 1.54992 1.59225 0 255 0
0.11202 1.57218 1.62962 0 255 0
0.14021 1.58124 1.63488 0 255 0
0.13445 1.5918 1.64931 0 255 0
0.13951 1.61 1.67453 0 255 0
0.144 1.62413 1.66786 0 255 0
0.14446 1.63565 1.67895 0 255 0
0.13497 1.63313 1.67763 0 255 0
0.15228 1.65752 1.67061 0 255 0
0.15824 1.65711 1.67317 0 255 0
0.12466 1.64899 1.66965 0 255 0
0.138 1.69009 1.67543 0 255 0
0.12351 1.71315 1.67298 0 255 0
0.13654 1.7224 1.67477 0 255 0
0.09208 1.39151 1.564 0 150 0
0.13557 1.73093 1.67214 0 150 0
0.09208 1.39151 1.564 150 150 150
0.13557 1.73093 1.67214 150 150 150
23 24
