ply
format ascii 1.0
comment VCGLIB generated
element vertex 37
property float x
property float y
property float z
property uchar red
property uchar green
property uchar blue
element face 0
property list uchar int vertex_indices
element edge 2
property int vertex1
property int vertex2
end_header
-0.039 1.47056 1.67237 0 255 0
-0.01993 1.50385 1.79337 0 255 0
-0.01779 1.51052 1.79265 0 255 0
-0.02788 1.52262 1.77757 0 255 0
-0.03889 1.53565 1.72647 0 255 0
-0.03789 1.5485 1.73075 0 255 0
-0.05027 1.56577 1.71736 0 255 0
-0.04183 1.5771 1.72621 0 255 0
-0.03597 1.58352 1.73158 0 255 0
-0.00483 1.71353 1.94898 0 255 0
-0.00301 1.73517 1.94483 0 255 0
-0.01192 1.76328 1.96069 0 255 0
-0.00904 1.77365 1.97374 0 255 0
-0.00212 1.77638 1.97887 0 255 0
0.00929 1.82443 1.98543 0 255 0
-0.03944 1.83331 1.93025 0 255 0
0.00522 1.86156 1.96207 0 255 0
0.00601 1.88143 1.96589 0 255 0
-0.00312 1.89199 1.93859 0 255 0
-0.00287 1.90564 1.88218 0 255 0
0.00242 1.91137 1.87414 0 255 0
-0.0022 1.92813 1.86329 0 255 0
-0.00221 1.94448 1.85795 0 255 0
0.01005 1.95332 1.86294 0 255 0
0.00118 1.96801 1.85901 0 255 0
-0.00695 1.97166 1.86076 0 255 0
-0.00886 1.98806 1.86833 0 255 0
-0.008 1.99554 1.87149 0 255 0
-0.01193 1.9995 1.87391 0 255 0
-0.04056 1.4498 1.67152 0 150 0
-0.03931 1.60051 1.73611 0 150 0
-0.02071 1.68872 1.94311 0 150 0
0.00533 2.01417 1.88223 0 150 0
-0.04056 1.4498 1.67152 150 150 150
-0.03931 1.60051 1.73611 150 150 150
-0.02071 1.68872 1.94311 150 150 150
0.00533 2.01417 1.88223 150 150 150
33 34
35 36
