ply
format ascii 1.0
comment VCGLIB generated
element vertex 57
property float x
property float y
property float z
property uchar red
property uchar green
property uchar blue
element face 0
property list uchar int vertex_indices
element edge 1
property int vertex1
property int vertex2
end_header
0.54475 0.6743 1.96785 0 255 0
0.54156 0.69079 1.97552 0 255 0
0.52896 0.66217 1.95427 0 255 0
0.52451 0.67741 1.96964 0 255 0
0.52177 0.69881 1.97839 0 255 0
0.50432 0.68855 1.9949 0 255 0
0.49704 0.69919 1.99036 0 255 0
0.49129 0.72194 2.00021 0 255 0
0.483 0.72303 2.00488 0 255 0
0.47766 0.72582 2.00811 0 255 0
0.46671 0.72936 2.01461 0 255 0
0.46458 0.72779 2.02293 0 255 0
0.45276 0.74677 2.02648 0 255 0
0.44862 0.73191 2.06131 0 255 0
0.44311 0.75245 2.03666 0 255 0
0.43508 0.76237 2.05058 0 255 0
0.43649 0.77029 2.03131 0 255 0
0.42474 0.77372 2.04787 0 255 0
0.4179 0.78716 2.03688 0 255 0
0.40452 0.80702 2.05468 0 255 0
0.39692 0.80998 2.06526 0 255 0
0.37949 0.8285 2.06779 0 255 0
0.39353 0.83873 2.06975 0 255 0
0.38744 0.84343 2.0751 0 255 0
0.3822 0.85727 2.07583 0 255 0
0.36182 0.86696 2.07624 0 255 0
0.36445 0.88523 2.0822 0 255 0
0.35517 0.87527 2.07647 0 255 0
0.37213 0.89583 2.09114 0 255 0
0.33679 0.89829 2.07441 0 255 0
0.33923 0.90684 2.0795 0 255 0
0.33289 0.90979 2.07893 0 255 0
0.3358 0.9265 2.10285 0 255 0
0.33037 0.94102 2.10674 0 255 0
0.3109 0.94352 2.10377 0 255 0
0.28616 0.94806 2.12108 0 255 0
0.28052 0.96704 2.11812 0 255 0
0.27458 0.96767 2.11774 0 255 0
0.27179 0.99855 2.1258 0 255 0
0.25855 1.01073 2.13159 0 255 0
0.23378 1.02378 2.14311 0 255 0
0.22189 1.02987 2.16108 0 255 0
0.21033 1.039 2.16864 0 255 0
0.21865 1.05501 2.1633 0 255 0
0.20659 1.06131 2.16366 0 255 0
0.20108 1.07526 2.16504 0 255 0
0.19369 1.08276 2.16568 0 255 0
0.19358 1.0902 2.16424 0 255 0
0.18228 1.10585 2.16043 0 255 0
0.17735 1.12797 2.16128 0 255 0
0.16668 1.14201 2.16392 0 255 0
0.16772 1.15273 2.17024 0 255 0
0.17034 1.15854 2.17452 0 255 0
0.51294 0.67626 1.97001 0 150 0
0.1349 1.17233 2.18347 0 150 0
0.51294 0.67626 1.97001 150 150 150
0.1349 1.17233 2.18347 150 150 150
55 56
