ply
format ascii 1.0
comment VCGLIB generated
element vertex 21
property float x
property float y
property float z
property uchar red
property uchar green
property uchar blue
element face 0
property list uchar int vertex_indices
element edge 1
property int vertex1
property int vertex2
end_header
0.05979 -0.14324 2.65698 0 255 0
0.04148 -0.15582 2.66715 0 255 0
0.03282 -0.15731 2.67178 0 255 0
0.01851 -0.1687 2.6777 0 255 0
-0.0076 -0.17164 2.67624 0 255 0
-0.02442 -0.17867 2.67918 0 255 0
-0.03774 -0.18376 2.68137 0 255 0
-0.06422 -0.1529 2.68146 0 255 0
-0.0695 -0.15582 2.68259 0 255 0
-0.07331 -0.16247 2.68097 0 255 0
-0.09471 -0.1264 2.71765 0 255 0
-0.10722 -0.149 2.70931 0 255 0
-0.11656 -0.16346 2.7063 0 255 0
-0.13326 -0.13502 2.73401 0 255 0
-0.13238 -0.15655 2.72835 0 255 0
-0.14632 -0.15636 2.7369 0 255 0
-0.16684 -0.17712 2.74005 0 255 0
0.06535 -0.1447 2.65709 0 150 0
-0.15062 -0.19153 2.7086 0 150 0
0.06535 -0.1447 2.65709 150 150 150
-0.15062 -0.19153 2.7086 150 150 150
19 20
