ply
format ascii 1.0
comment VCGLIB generated
element vertex 24
property float x
property float y
property float z
property uchar red
property uchar green
property uchar blue
element face 0
property list uchar int vertex_indices
element edge 1
property int vertex1
property int vertex2
end_header
-0.03252 1.5261 1.77638 0 255 0
-0.02729 1.54961 1.76647 0 255 0
-0.02134 1.57826 1.77159 0 255 0
-0.0381 1.59647 1.73446 0 255 0
-0.0279 1.61614 1.75133 0 255 0
-0.03447 1.61847 1.73526 0 255 0
-0.02022 1.6226 1.76203 0 255 0
-0.0259 1.6567 1.73885 0 255 0
-0.02797 1.66876 1.74133 0 255 0
-0.01398 1.69002 1.75161 0 255 0
-0.01054 1.69969 1.75538 0 255 0
-0.02713 1.69994 1.7544 0 255 0
-0.02195 1.71884 1.76896 0 255 0
-0.02323 1.72865 1.77836 0 255 0
-0.02194 1.73349 1.78053 0 255 0
-0.01455 1.73298 1.78199 0 255 0
-0.00315 1.7566 1.78541 0 255 0
-0.01604 1.76155 1.78683 0 255 0
-0.01761 1.77541 1.79393 0 255 0
-0.0188 1.79011 1.79382 0 255 0
-0.03695 1.51717 1.74261 0 150 0
-0.0122 1.81181 1.80595 0 150 0
-0.03695 1.51717 1.74261 150 150 150
-0.0122 1.81181 1.80595 150 150 150
22 23
