ply
format ascii 1.0
comment VCGLIB generated
element vertex 33
property float x
property float y
property float z
property uchar red
property uchar green
property uchar blue
element face 0
property list uchar int vertex_indices
element edge 1
property int vertex1
property int vertex2
end_header
-0.34607 0.48219 1.48062 0 255 0
-0.33238 0.48153 1.47935 0 255 0
-0.32622 0.48248 1.47618 0 255 0
-0.32456 0.4741 1.46864 0 255 0
-0.31132 0.46462 1.44829 0 255 0
-0.30394 0.46593 1.44784 0 255 0
-0.28458 0.45605 1.44194 0 255 0
-0.28356 0.43771 1.44465 0 255 0
-0.27695 0.43049 1.44375 0 255 0
-0.26752 0.42418 1.47998 0 255 0
-0.26821 0.41781 1.4838 0 255 0
-0.25038 0.40564 1.46676 0 255 0
-0.2412 0.40892 1.44708 0 255 0
-0.22744 0.40259 1.42467 0 255 0
-0.22027 0.39543 1.42467 0 255 0
-0.22097 0.38463 1.4433 0 255 0
-0.20634 0.38799 1.42496 0 255 0
-0.19988 0.3751 1.42909 0 255 0
-0.18565 0.36017 1.41561 0 255 0
-0.18015 0.36103 1.40237 0 255 0
-0.18322 0.35147 1.41881 0 255 0
-0.16785 0.35884 1.39387 0 255 0
-0.14715 0.34373 1.38381 0 255 0
-0.1509 0.33276 1.36735 0 255 0
-0.14334 0.3307 1.36735 0 255 0
-0.15115 0.32162 1.42144 0 255 0
-0.12171 0.30608 1.36898 0 255 0
-0.11239 0.29288 1.36735 0 255 0
-0.09418 0.28499 1.36249 0 255 0
-0.35789 0.48578 1.49323 0 150 0
-0.08692 0.28978 1.35607 0 150 0
-0.35789 0.48578 1.49323 150 150 150
-0.08692 0.28978 1.35607 150 150 150
31 32
