ply
format ascii 1.0
comment VCGLIB generated
element vertex 47
property float x
property float y
property float z
property uchar red
property uchar green
property uchar blue
element face 0
property list uchar int vertex_indices
element edge 4
property int vertex1
property int vertex2
end_header
-0.09814 -0.12503 1.2554 0 255 0
-0.09551 -0.1249 1.25403 0 255 0
-0.07226 -0.12089 1.23033 0 255 0
-0.06102 -0.12904 1.25021 0 255 0
-0.04387 -0.12198 1.2348 0 255 0
-0.02752 -0.13848 1.24007 0 255 0
-0.01707 -0.1418 1.2365 0 255 0
-0.0299 -0.14744 1.25266 0 255 0
0.00253 -0.14412 1.24302 0 255 0
0.01041 -0.16484 1.25085 0 255 0
-0.23297 -0.0673 1.07875 0 255 0
-0.21644 -0.06491 1.08112 0 255 0
-0.19932 -0.07433 1.10265 0 255 0
-0.1932 -0.0712 1.10572 0 255 0
-0.18384 -0.07233 1.11346 0 255 0
-0.16948 -0.08264 1.13556 0 255 0
-0.15144 -0.08012 1.14309 0 255 0
0.1088 -0.19973 1.31489 0 255 0
0.11564 -0.21334 1.32056 0 255 0
0.12878 -0.19983 1.31905 0 255 0
0.13958 -0.20752 1.33095 0 255 0
0.14369 -0.21314 1.33932 0 255 0
0.1434 -0.21998 1.34165 0 255 0
0.15785 -0.22717 1.36866 0 255 0
0.1652 -0.22978 1.37334 0 255 0
0.17873 -0.22817 1.37471 0 255 0
0.19359 -0.23052 1.37225 0 255 0
0.20881 -0.2246 1.45932 0 255 0
0.21327 -0.24076 1.38353 0 255 0
0.21838 -0.25566 1.38506 0 255 0
0.2079 -0.25831 1.37328 0 255 0
0.23516 -0.27477 1.39366 0 255 0
-0.10866 -0.09482 1.25188 0 150 0
0.03086 -0.15701 1.25113 0 150 0
-0.25518 -0.06595 1.07452 0 150 0
-0.14345 -0.07939 1.14356 0 150 0
0.0824 -0.20515 1.31572 0 150 0
0.22859 -0.28882 1.40066 0 150 0
0.33204 -0.25733 1.42739 0 0 255
-0.10866 -0.09482 1.25188 150 150 150
0.03086 -0.15701 1.25113 150 150 150
-0.25518 -0.06595 1.07452 150 150 150
-0.14345 -0.07939 1.14356 150 150 150
0.0824 -0.20515 1.31572 150 150 150
0.22859 -0.28882 1.40066 150 150 150
0.2623 -0.2174 1.38687 150 150 150
0.40179 -0.29725 1.46792 150 150 150
39 40
41 42
43 44
45 46
