ply
format ascii 1.0
comment VCGLIB generated
element vertex 18
property float x
property float y
property float z
property uchar red
property uchar green
property uchar blue
element face 0
property list uchar int vertex_indices
element edge 2
property int vertex1
property int vertex2
end_header
0.01598 1.4975 1.80556 0 255 0
0.01353 1.50714 1.80212 0 255 0
0.00242 1.5244 1.79261 0 255 0
0.00856 1.54304 1.78698 0 255 0
-0.0121 1.55065 1.78158 0 255 0
-0.01459 1.55324 1.78781 0 255 0
-0.01816 1.55937 1.7916 0 255 0
-0.01343 1.57259 1.7864 0 255 0
-0.01829 1.58738 1.79536 0 255 0
-0.01997 1.59573 1.80388 0 255 0
-0.01366 1.6038 1.7856 0 255 0
0.01344 1.48034 1.8076 0 150 0
-0.02464 1.6415 1.76544 0 150 0
-0.004 1.96116 1.88659 0 0 255
0.01344 1.48034 1.8076 150 150 150
-0.02464 1.6415 1.76544 150 150 150
0.02964 2.04357 1.87334 150 150 150
-0.03765 1.87874 1.89983 150 150 150
14 15
16 17
