ply
format ascii 1.0
comment VCGLIB generated
element vertex 40
property float x
property float y
property float z
property uchar red
property uchar green
property uchar blue
element face 0
property list uchar int vertex_indices
element edge 3
property int vertex1
property int vertex2
end_header
-0.02346 1.36629 1.61354 0 255 0
-0.02332 1.38507 1.62447 0 255 0
-0.02533 1.39578 1.63219 0 255 0
-0.03947 1.39753 1.6284 0 255 0
-0.03342 1.40764 1.63741 0 255 0
-0.03029 1.42295 1.64492 0 255 0
-0.05047 1.42761 1.64957 0 255 0
-0.03403 1.44243 1.65065 0 255 0
-0.03609 1.44965 1.65694 0 255 0
-0.04297 1.45401 1.66614 0 255 0
0.00722 1.55369 1.79214 0 255 0
-0.00125 1.57324 1.79253 0 255 0
0.01745 1.57872 1.79211 0 255 0
0.00733 1.59866 1.80338 0 255 0
-0.00519 1.6105 1.80111 0 255 0
-0.01486 1.61919 1.79057 0 255 0
-0.02239 1.62543 1.76622 0 255 0
-0.01601 1.64219 1.76146 0 255 0
-0.02444 1.66116 1.76447 0 255 0
-0.02199 1.67634 1.76646 0 255 0
-0.02047 1.68462 1.76669 0 255 0
-0.01964 1.69787 1.76903 0 255 0
-0.01999 1.72206 1.7804 0 255 0
-0.00995 1.73432 1.79663 0 255 0
-0.02284 1.75855 1.8048 0 255 0
-0.00428 1.76355 1.81019 0 255 0
-0.00979 1.78259 1.81086 0 255 0
-0.00202 1.80809 1.81671 0 255 0
-0.01165 1.8208 1.83138 0 255 0
-0.02036 1.35268 1.61579 0 150 0
-0.04458 1.46331 1.67522 0 150 0
0.0161 1.54222 1.78934 0 150 0
-0.01224 1.83472 1.84911 0 150 0
-0.01014 1.98493 1.89078 0 0 255
-0.02036 1.35268 1.61579 150 150 150
-0.04458 1.46331 1.67522 150 150 150
0.0161 1.54222 1.78934 150 150 150
-0.01224 1.83472 1.84911 150 150 150
-0.00163 1.89714 1.87284 150 150 150
-0.01864 2.07271 1.90872 150 150 150
34 35
36 37
38 39
