ply
format ascii 1.0
comment VCGLIB generated
element vertex 48
property float x
property float y
property float z
property uchar red
property uchar green
property uchar blue
element face 0
property list uchar int vertex_indices
element edge 2
property int vertex1
property int vertex2
end_header
0.00233 1.55209 1.79343 0 255 0
-0.00873 1.5592 1.79984 0 255 0
-0.00196 1.56548 1.79386 0 255 0
-0.00567 1.58233 1.76592 0 255 0
-0.00841 1.59381 1.7591 0 255 0
-0.01745 1.60209 1.75852 0 255 0
0.00153 1.62265 1.7737 0 255 0
-0.0057 1.6419 1.75593 0 255 0
0.00362 1.65123 1.77647 0 255 0
-0.00731 1.6644 1.76245 0 255 0
-0.00159 1.67708 1.76665 0 255 0
0.00101 1.68673 1.77174 0 255 0
0.00031 1.70245 1.77222 0 255 0
0.00876 1.70194 1.77753 0 255 0
-0.0058 1.71768 1.78368 0 255 0
-0.00323 1.72542 1.79052 0 255 0
0.00227 1.73824 1.80647 0 255 0
0.01037 1.74399 1.8106 0 255 0
0.01617 1.75721 1.81174 0 255 0
0.01073 1.77015 1.81554 0 255 0
0.0043 1.78075 1.8144 0 255 0
0.01196 1.79405 1.8163 0 255 0
0.00189 1.80574 1.82236 0 255 0
0.00463 1.81499 1.82491 0 255 0
0.0129 1.8213 1.82662 0 255 0
0.01857 1.82476 1.82807 0 255 0
0.02055 1.83392 1.83855 0 255 0
0.02409 1.84624 1.85345 0 255 0
0.02035 1.85112 1.85227 0 255 0
0.0051 1.87555 1.85763 0 255 0
0.02024 1.88464 1.85802 0 255 0
0.01648 1.89863 1.8614 0 255 0
0.00683 1.90802 1.86752 0 255 0
0.00316 1.90762 1.86969 0 255 0
0.00743 1.92769 1.86847 0 255 0
0.01573 1.92996 1.86634 0 255 0
0.02283 1.92864 1.8665 0 255 0
0.02719 1.95264 1.86661 0 255 0
0.03923 1.94525 1.87306 0 255 0
0.05189 1.94772 1.87159 0 255 0
0.05288 1.961 1.87452 0 255 0
-0.01641 1.52517 1.7992 0 150 0
0.05506 1.97159 1.87492 0 150 0
-0.00512 2.03905 1.8993 0 0 255
-0.01641 1.52517 1.7992 150 150 150
0.05506 1.97159 1.87492 150 150 150
-0.01916 1.9514 1.88444 150 150 150
0.00891 2.1267 1.91417 150 150 150
44 45
46 47
