ply
format ascii 1.0
comment VCGLIB generated
element vertex 25
property float x
property float y
property float z
property uchar red
property uchar green
property uchar blue
element face 0
property list uchar int vertex_indices
element edge 1
property int vertex1
property int vertex2
end_header
0.47246 -0.0439 1.58558 0 255 0
0.47813 -0.02676 1.56242 0 255 0
0.48496 -0.02585 1.57096 0 255 0
0.49221 -0.02527 1.56723 0 255 0
0.50842 -0.01762 1.58832 0 255 0
0.52453 -0.03401 1.60831 0 255 0
0.55467 -0.03265 1.62078 0 255 0
0.57503 -0.03944 1.63228 0 255 0
0.57954 -0.04446 1.63577 0 255 0
0.59781 -0.0183 1.64985 0 255 0
0.60618 -0.03832 1.6546 0 255 0
0.61127 -0.03676 1.65937 0 255 0
0.64487 -0.03566 1.68613 0 255 0
0.64514 -0.04955 1.73707 0 255 0
0.65737 -0.04722 1.73707 0 255 0
0.66011 -0.05254 1.7397 0 255 0
0.67714 -0.0363 1.71633 0 255 0
0.69648 -0.02948 1.72147 0 255 0
0.7031 -0.03309 1.72924 0 255 0
0.71112 -0.02966 1.73184 0 255 0
0.72414 -0.02446 1.7338 0 255 0
0.4639 -0.04522 1.5854 0 150 0
0.74528 -0.02453 1.73839 0 150 0
0.4639 -0.04522 1.5854 150 150 150
0.74528 -0.02453 1.73839 150 150 150
23 24
