ply
format ascii 1.0
comment VCGLIB generated
element vertex 53
property float x
property float y
property float z
property uchar red
property uchar green
property uchar blue
element face 0
property list uchar int vertex_indices
element edge 1
property int vertex1
property int vertex2
end_header
-0.32471 0.06544 1.36573 0 255 0
-0.3188 0.07288 1.3679 0 255 0
-0.32263 0.0822 1.36276 0 255 0
-0.32404 0.0872 1.35527 0 255 0
-0.30716 0.09464 1.3743 0 255 0
-0.30553 0.11495 1.37751 0 255 0
-0.31416 0.12383 1.38381 0 255 0
-0.31568 0.12863 1.3905 0 255 0
-0.30692 0.13266 1.38882 0 255 0
-0.29549 0.14125 1.39092 0 255 0
-0.29104 0.14356 1.39981 0 255 0
-0.29141 0.15719 1.40838 0 255 0
-0.28443 0.17977 1.43028 0 255 0
-0.27799 0.1822 1.42673 0 255 0
-0.26188 0.19201 1.42496 0 255 0
-0.24086 0.20664 1.43206 0 255 0
-0.23526 0.22549 1.43743 0 255 0
-0.22143 0.23638 1.45103 0 255 0
-0.20909 0.23564 1.44647 0 255 0
-0.20151 0.24493 1.47618 0 255 0
-0.21061 0.25714 1.45701 0 255 0
-0.19161 0.26193 1.47998 0 255 0
-0.18629 0.28007 1.4838 0 255 0
-0.17818 0.27679 1.48325 0 255 0
-0.16578 0.29041 1.4886 0 255 0
-0.16674 0.30589 1.4838 0 255 0
-0.15058 0.2974 1.50123 0 255 0
-0.14252 0.30445 1.50123 0 255 0
-0.15022 0.31911 1.48284 0 255 0
-0.14036 0.32491 1.48892 0 255 0
-0.14033 0.33832 1.4886 0 255 0
-0.12911 0.34738 1.51508 0 255 0
-0.11923 0.36656 1.52512 0 255 0
-0.13291 0.37979 1.54148 0 255 0
-0.10346 0.38308 1.53394 0 255 0
-0.08767 0.39513 1.53122 0 255 0
-0.06686 0.40894 1.54854 0 255 0
-0.06665 0.42421 1.55083 0 255 0
-0.05259 0.43026 1.55014 0 255 0
-0.0668 0.44006 1.5545 0 255 0
-0.06243 0.44781 1.56242 0 255 0
-0.05121 0.45257 1.57168 0 255 0
-0.03933 0.46433 1.58122 0 255 0
-0.02346 0.4715 1.58394 0 255 0
-0.01712 0.47853 1.58613 0 255 0
-0.00596 0.48079 1.58832 0 255 0
-0.01073 0.50086 1.58613 0 255 0
0.01796 0.51475 1.58467 0 255 0
0.04862 0.50755 1.59714 0 255 0
-0.3104 0.05936 1.37334 0 150 0
0.06012 0.51452 1.60383 0 150 0
-0.3104 0.05936 1.37334 150 150 150
0.06012 0.51452 1.60383 150 150 150
51 52
