ply
format ascii 1.0
comment VCGLIB generated
element vertex 62
property float x
property float y
property float z
property uchar red
property uchar green
property uchar blue
element face 0
property list uchar int vertex_indices
element edge 2
property int vertex1
property int vertex2
end_header
0.37339 0.31558 2.05569 0 255 0
0.37853 0.31736 2.05606 0 255 0
0.3991 0.31854 2.04829 0 255 0
0.40466 0.31009 2.04214 0 255 0
0.41049 0.31114 2.04058 0 255 0
0.42206 0.31049 2.03587 0 255 0
0.42987 0.30357 2.03606 0 255 0
0.44048 0.29901 2.03441 0 255 0
0.45104 0.30781 2.02685 0 255 0
0.4566 0.30755 2.03021 0 255 0
0.47232 0.30633 2.04074 0 255 0
0.47849 0.31047 2.03816 0 255 0
0.48591 0.31123 2.0174 0 255 0
0.50383 0.30723 1.9899 0 255 0
0.50142 0.3196 1.97885 0 255 0
0.50988 0.31383 1.97614 0 255 0
0.51986 0.31012 1.97515 0 255 0
0.52634 0.30464 1.98683 0 255 0
0.53941 0.31937 1.9678 0 255 0
0.54414 0.31519 1.96899 0 255 0
0.56268 0.32824 1.94977 0 255 0
0.58454 0.32518 1.92838 0 255 0
0.58346 0.33136 1.92807 0 255 0
0.59209 0.32669 1.91996 0 255 0
0.60916 0.33113 1.91314 0 255 0
0.60355 0.33681 1.91228 0 255 0
0.61215 0.34174 1.90993 0 255 0
0.63025 0.33928 1.909 0 255 0
0.64025 0.33919 1.90539 0 255 0
0.64808 0.33695 1.90605 0 255 0
0.65609 0.34068 1.89336 0 255 0
0.66599 0.34427 1.88902 0 255 0
0.68103 0.34469 1.8754 0 255 0
0.69364 0.34514 1.86005 0 255 0
0.70164 0.34931 1.84077 0 255 0
0.71186 0.34584 1.83317 0 255 0
0.7154 0.33715 1.83802 0 255 0
0.72573 0.3389 1.83609 0 255 0
0.7352 0.34256 1.83854 0 255 0
0.75256 0.35899 1.82683 0 255 0
0.76611 0.36095 1.85212 0 255 0
0.77381 0.36223 1.84177 0 255 0
0.78181 0.36277 1.83774 0 255 0
0.79734 0.35988 1.80747 0 255 0
0.80622 0.36084 1.79711 0 255 0
0.8171 0.3659 1.78918 0 255 0
0.81785 0.37404 1.78053 0 255 0
0.82655 0.38025 1.77594 0 255 0
0.84005 0.37656 1.77491 0 255 0
0.84748 0.39037 1.76954 0 255 0
0.85811 0.38085 1.75363 0 255 0
0.87246 0.3828 1.74654 0 255 0
0.87814 0.38607 1.73257 0 255 0
0.88646 0.38988 1.72853 0 255 0
0.89519 0.40135 1.72274 0 255 0
0.41913 0.30804 2.0609 0 150 0
0.92254 0.40083 1.71641 0 150 0
0.32815 0.26101 2.07375 0 0 255
0.41913 0.30804 2.0609 150 150 150
0.92254 0.40083 1.71641 150 150 150
0.25472 0.24748 2.124 150 150 150
0.40158 0.27455 2.0235 150 150 150
58 59
60 61
