ply
format ascii 1.0
comment VCGLIB generated
element vertex 17
property float x
property float y
property float z
property uchar red
property uchar green
property uchar blue
element face 0
property list uchar int vertex_indices
element edge 1
property int vertex1
property int vertex2
end_header
-0.40204 -0.29807 1.70299 0 255 0
-0.38963 -0.29919 1.70615 0 255 0
-0.37342 -0.28951 1.71314 0 255 0
-0.36058 -0.27645 1.71762 0 255 0
-0.34337 -0.28484 1.72664 0 255 0
-0.32448 -0.27084 1.73707 0 255 0
-0.3178 -0.2331 1.72924 0 255 0
-0.2976 -0.25454 1.73315 0 255 0
-0.29063 -0.22665 1.73315 0 255 0
-0.27689 -0.2338 1.73445 0 255 0
-0.27032 -0.23415 1.73707 0 255 0
-0.27864 -0.21984 1.73445 0 255 0
-0.25417 -0.23348 1.75832 0 255 0
-0.42383 -0.29603 1.7011 0 150 0
-0.23831 -0.20677 1.77187 0 150 0
-0.42383 -0.29603 1.7011 150 150 150
-0.23831 -0.20677 1.77187 150 150 150
15 16
