ply
format ascii 1.0
comment VCGLIB generated
element vertex 18
property float x
property float y
property float z
property uchar red
property uchar green
property uchar blue
element face 0
property list uchar int vertex_indices
element edge 2
property int vertex1
property int vertex2
end_header
0.15411 -0.00303 1.4838 0 255 0
0.16424 -0.00302 1.48093 0 255 0
0.18391 0.00292 1.47146 0 255 0
0.20128 -0.00743 1.46864 0 255 0
0.21314 0.01024 1.4608 0 255 0
0.21578 0.01324 1.46677 0 255 0
0.22225 0.01623 1.47052 0 255 0
0.23456 0.00832 1.46739 0 255 0
0.24944 0.01185 1.47682 0 255 0
0.25742 0.01341 1.48572 0 255 0
0.2652 0.00267 1.4695 0 255 0
0.1377 0.00294 1.4838 0 150 0
0.3055 0.00288 1.45149 0 150 0
0.60669 -0.05503 1.60384 0 0 255
0.1377 0.00294 1.4838 150 150 150
0.3055 0.00288 1.45149 150 150 150
0.68153 -0.10503 1.60384 150 150 150
0.53186 -0.00503 1.60384 150 150 150
14 15
16 17
