ply
format ascii 1.0
comment VCGLIB generated
element vertex 17
property float x
property float y
property float z
property uchar red
property uchar green
property uchar blue
element face 0
property list uchar int vertex_indices
element edge 1
property int vertex1
property int vertex2
end_header
0.24598 1.01776 2.13015 0 255 0
0.24415 1.03041 2.13152 0 255 0
0.23133 1.04467 2.13768 0 255 0
0.2159 1.0545 2.14226 0 255 0
0.2204 1.07443 2.14778 0 255 0
0.20309 1.09075 2.15757 0 255 0
0.16432 1.08673 2.15426 0 255 0
0.18004 1.11189 2.15257 0 255 0
0.15144 1.11178 2.15555 0 255 0
0.15486 1.12688 2.1541 0 255 0
0.15375 1.13366 2.15579 0 255 0
0.14192 1.12181 2.15626 0 255 0
0.15106 1.15231 2.17471 0 255 0
0.24951 0.99611 2.13134 0 150 0
0.12266 1.16313 2.18971 0 150 0
0.24951 0.99611 2.13134 150 150 150
0.12266 1.16313 2.18971 150 150 150
15 16
