ply
format ascii 1.0
comment VCGLIB generated
element vertex 13
property float x
property float y
property float z
property uchar red
property uchar green
property uchar blue
element face 0
property list uchar int vertex_indices
element edge 2
property int vertex1
property int vertex2
end_header
0.23003 0.02025 1.47619 0 255 0
0.23481 0.00291 1.46583 0 255 0
0.25326 0.00552 1.4724 0 255 0
0.2621 0.0165 1.49538 0 255 0
0.26888 0.00734 1.46676 0 255 0
0.27436 0.00736 1.4724 0 255 0
0.23026 0.02319 1.46496 0 150 0
0.3055 0.00377 1.45149 0 150 0
0.61242 -0.05901 1.60637 0 0 255
0.23026 0.02319 1.46496 150 150 150
0.3055 0.00377 1.45149 150 150 150
0.68726 -0.10901 1.60637 150 150 150
0.53759 -0.00901 1.60637 150 150 150
9 10
11 12
