ply
format ascii 1.0
comment VCGLIB generated
element vertex 47
property float x
property float y
property float z
property uchar red
property uchar green
property uchar blue
element face 0
property list uchar int vertex_indices
element edge 4
property int vertex1
property int vertex2
end_header
0.00239 1.54873 1.78273 0 255 0
0.00118 1.55093 1.78116 0 255 0
-0.01321 1.56791 1.75619 0 255 0
-0.00791 1.58385 1.7737 0 255 0
-0.02214 1.59521 1.75787 0 255 0
-0.01232 1.61685 1.75937 0 255 0
-0.01338 1.62723 1.75445 0 255 0
-0.00199 1.61948 1.77081 0 255 0
-0.01778 1.64707 1.75878 0 255 0
-0.00073 1.6627 1.76301 0 255 0
-0.01829 1.37994 1.62845 0 255 0
-0.02631 1.39473 1.62961 0 255 0
-0.02183 1.41679 1.64804 0 255 0
-0.02668 1.42177 1.65092 0 255 0
-0.02833 1.43186 1.65755 0 255 0
-0.02197 1.45174 1.67667 0 255 0
-0.03018 1.46858 1.68279 0 255 0
0.00165 1.77468 1.81256 0 255 0
0.01228 1.78656 1.8157 0 255 0
-0.00516 1.79378 1.81483 0 255 0
-0.00087 1.80808 1.82456 0 255 0
0.00361 1.81498 1.83169 0 255 0
0.01027 1.81743 1.83309 0 255 0
0.01416 1.83694 1.85746 0 255 0
0.01434 1.8453 1.86106 0 255 0
0.00803 1.85746 1.8614 0 255 0
0.00457 1.87172 1.8573 0 255 0
0.00159 1.89536 1.94262 0 255 0
0.00792 1.89507 1.86526 0 255 0
0.02 1.90524 1.8643 0 255 0
0.02519 1.89488 1.85328 0 255 0
0.03239 1.92865 1.8687 0 255 0
-0.02209 1.5279 1.78428 0 150 0
-0.01541 1.67894 1.76248 0 150 0
-0.01183 1.35832 1.62648 0 150 0
-0.03373 1.47579 1.68263 0 150 0
0.01637 1.75223 1.81506 0 150 0
0.04846 1.92843 1.87431 0 150 0
-0.01598 2.01679 1.8955 0 0 255
-0.02209 1.5279 1.78428 150 150 150
-0.01541 1.67894 1.76248 150 150 150
-0.01183 1.35832 1.62648 150 150 150
-0.03373 1.47579 1.68263 150 150 150
0.01637 1.75223 1.81506 150 150 150
0.04846 1.92843 1.87431 150 150 150
-0.03128 1.93273 1.86723 150 150 150
-0.00067 2.10086 1.92377 150 150 150
39 40
41 42
43 44
45 46
