ply
format ascii 1.0
comment VCGLIB generated
element vertex 13
property float x
property float y
property float z
property uchar red
property uchar green
property uchar blue
element face 0
property list uchar int vertex_indices
element edge 2
property int vertex1
property int vertex2
end_header
-0.02269 1.56678 1.79739 0 255 0
-0.00848 1.57367 1.78392 0 255 0
-0.01361 1.59187 1.78969 0 255 0
-0.02237 1.60065 1.81362 0 255 0
-0.01933 1.60629 1.78349 0 255 0
-0.01955 1.61217 1.7887 0 255 0
-0.02735 1.56541 1.78684 0 150 0
-0.0255 1.64134 1.76559 0 150 0
-0.00088 1.96774 1.88803 0 0 255
-0.02735 1.56541 1.78684 150 150 150
-0.0255 1.64134 1.76559 150 150 150
0.03277 2.05015 1.87479 150 150 150
-0.03452 1.88532 1.90128 150 150 150
9 10
11 12
