ply
format ascii 1.0
comment VCGLIB generated
element vertex 24
property float x
property float y
property float z
property uchar red
property uchar green
property uchar blue
element face 0
property list uchar int vertex_indices
element edge 1
property int vertex1
property int vertex2
end_header
0.24372 1.02821 2.14733 0 255 0
0.23558 1.03686 2.14926 0 255 0
0.22164 1.04808 2.1568 0 255 0
0.20985 1.07199 2.16995 0 255 0
0.20135 1.06967 2.16754 0 255 0
0.18713 1.08457 2.16841 0 255 0
0.18681 1.09035 2.1665 0 255 0
0.18517 1.11261 2.16395 0 255 0
0.17106 1.11744 2.16128 0 255 0
0.15696 1.13868 2.16179 0 255 0
0.16461 1.16409 2.17454 0 255 0
0.16545 1.16922 2.17713 0 255 0
0.15797 1.17826 2.1904 0 255 0
0.15458 1.18723 2.1963 0 255 0
0.13816 1.17267 2.18521 0 255 0
0.13098 1.16763 2.18481 0 255 0
0.11681 1.17197 2.19054 0 255 0
0.10681 1.18483 2.19869 0 255 0
0.09995 1.19403 2.2027 0 255 0
0.08907 1.16117 2.19319 0 255 0
0.226 1.03005 2.14035 0 150 0
0.13196 1.19121 2.20212 0 150 0
0.226 1.03005 2.14035 150 150 150
0.13196 1.19121 2.20212 150 150 150
22 23
