ply
format ascii 1.0
comment VCGLIB generated
element vertex 22
property float x
property float y
property float z
property uchar red
property uchar green
property uchar blue
element face 0
property list uchar int vertex_indices
element edge 1
property int vertex1
property int vertex2
end_header
-0.25556 0.62395 2.02099 0 255 0
-0.23537 0.61298 2.09461 0 255 0
-0.22666 0.62428 2.0353 0 255 0
-0.21337 0.5994 2.10612 0 255 0
-0.20167 0.61298 2.09461 0 255 0
-0.19833 0.61031 2.09272 0 255 0
-0.19328 0.62424 2.05807 0 255 0
-0.16206 0.63209 2.02099 0 255 0
-0.15693 0.61759 2.0335 0 255 0
-0.15133 0.61978 2.04072 0 255 0
-0.11571 0.61392 2.02812 0 255 0
-0.09805 0.60595 2.04253 0 255 0
-0.0771 0.62318 2.0317 0 255 0
-0.06096 0.61718 2.03891 0 255 0
-0.05281 0.62799 2.04072 0 255 0
-0.03939 0.64125 2.0547 0 255 0
-0.02984 0.64593 2.06083 0 255 0
-0.01881 0.64808 2.0633 0 255 0
-0.26728 0.6188 2.01744 0 150 0
-0.00779 0.65546 2.07571 0 150 0
-0.26728 0.6188 2.01744 150 150 150
-0.00779 0.65546 2.07571 150 150 150
20 21
