ply
format ascii 1.0
comment VCGLIB generated
element vertex 22
property float x
property float y
property float z
property uchar red
property uchar green
property uchar blue
element face 0
property list uchar int vertex_indices
element edge 2
property int vertex1
property int vertex2
end_header
0.18709 -0.26325 1.35319 0 255 0
0.19542 -0.26926 1.36573 0 255 0
0.2099 -0.27436 1.37061 0 255 0
0.22676 -0.26947 1.38091 0 255 0
0.24054 -0.26969 1.39641 0 255 0
0.263 -0.26265 1.4191 0 255 0
0.28362 -0.26897 1.42232 0 255 0
0.28024 -0.27704 1.41968 0 255 0
0.26313 -0.33892 1.54562 0 255 0
0.28401 -0.34688 1.54444 0 255 0
0.30222 -0.34163 1.54148 0 255 0
0.32865 -0.35305 1.53942 0 255 0
0.33241 -0.33975 1.53531 0 255 0
0.36068 -0.33247 1.53736 0 255 0
0.18091 -0.25524 1.3497 0 150 0
0.30034 -0.27692 1.43384 0 150 0
0.24169 -0.34561 1.5477 0 150 0
0.37373 -0.3294 1.5192 0 150 0
0.18091 -0.25524 1.3497 150 150 150
0.30034 -0.27692 1.43384 150 150 150
0.24169 -0.34561 1.5477 150 150 150
0.37373 -0.3294 1.5192 150 150 150
18 19
20 21
