ply
format ascii 1.0
comment VCGLIB generated
element vertex 15
property float x
property float y
property float z
property uchar red
property uchar green
property uchar blue
element face 0
property list uchar int vertex_indices
element edge 1
property int vertex1
property int vertex2
end_header
-0.06023 -0.16513 2.15952 0 255 0
-0.066 -0.16435 2.15884 0 255 0
-0.06655 -0.15167 2.15345 0 255 0
-0.03189 -0.14294 2.15245 0 255 0
-0.0126 -0.13418 2.1862 0 255 0
0.00059 -0.14057 2.14943 0 255 0
0.00718 -0.1233 2.18845 0 255 0
0.02276 -0.11306 2.20296 0 255 0
0.03286 -0.1184 2.13943 0 255 0
0.05999 -0.12102 2.10999 0 255 0
0.05575 -0.11465 2.10999 0 255 0
-0.08719 -0.16904 2.18206 0 150 0
0.10171 -0.10119 2.13943 0 150 0
-0.08719 -0.16904 2.18206 150 150 150
0.10171 -0.10119 2.13943 150 150 150
13 14
