ply
format ascii 1.0
comment VCGLIB generated
element vertex 33
property float x
property float y
property float z
property uchar red
property uchar green
property uchar blue
element face 0
property list uchar int vertex_indices
element edge 2
property int vertex1
property int vertex2
end_header
-0.02105 1.93926 1.86298 0 255 0
-0.01512 1.93931 1.86271 0 255 0
-0.00657 1.94854 1.85949 0 255 0
-0.003 1.96429 1.86152 0 255 0
0.0136 1.9826 1.865 0 255 0
-0.04387 1.34863 1.60269 0 255 0
-0.03732 1.35013 1.6042 0 255 0
-0.03057 1.37225 1.61022 0 255 0
-0.04255 1.3767 1.61132 0 255 0
-0.04417 1.39164 1.62304 0 255 0
-0.0386 1.39595 1.62607 0 255 0
-0.03748 1.4176 1.65145 0 255 0
-0.03534 1.43199 1.65581 0 255 0
-0.04426 1.43771 1.65881 0 255 0
-0.04659 1.45073 1.66178 0 255 0
-0.04894 1.46531 1.66187 0 255 0
-0.04409 1.47555 1.6636 0 255 0
-0.02997 1.48135 1.65989 0 255 0
-0.02679 1.51031 1.66094 0 255 0
-0.0428 1.51631 1.68152 0 255 0
-0.03892 1.53493 1.70094 0 255 0
-0.03264 1.53311 1.69627 0 255 0
-0.01825 1.56357 1.77823 0 255 0
-0.02691 1.57449 1.76566 0 255 0
-0.03013 1.58442 1.75724 0 255 0
-0.02428 1.92534 1.86683 0 150 0
0.02744 1.99182 1.87261 0 150 0
-0.04269 1.34065 1.60048 0 150 0
-0.02633 1.59632 1.74846 0 150 0
-0.02428 1.92534 1.86683 150 150 150
0.02744 1.99182 1.87261 150 150 150
-0.04269 1.34065 1.60048 150 150 150
-0.02633 1.59632 1.74846 150 150 150
29 30
31 32
