ply
format ascii 1.0
comment VCGLIB generated
element vertex 21
property float x
property float y
property float z
property uchar red
property uchar green
property uchar blue
element face 0
property list uchar int vertex_indices
element edge 1
property int vertex1
property int vertex2
end_header
-0.50354 0.44915 2.02099 0 255 0
-0.50691 0.47276 2.02633 0 255 0
-0.50474 0.48176 2.02991 0 255 0
-0.50825 0.50057 2.0317 0 255 0
-0.49715 0.52417 2.02812 0 255 0
-0.49511 0.54252 2.02812 0 255 0
-0.49307 0.5568 2.02812 0 255 0
-0.45388 0.56492 2.0353 0 255 0
-0.45388 0.57106 2.0353 0 255 0
-0.45716 0.5772 2.03171 0 255 0
-0.42392 0.58518 2.07571 0 255 0
-0.4347 0.60516 2.06083 0 255 0
-0.44141 0.61953 2.05347 0 255 0
-0.41503 0.62545 2.08701 0 255 0
-0.43227 0.63389 2.07571 0 255 0
-0.42685 0.64736 2.08323 0 255 0
-0.43445 0.67547 2.07946 0 255 0
-0.5076 0.44509 2.02099 0 150 0
-0.44807 0.6626 2.04616 0 150 0
-0.5076 0.44509 2.02099 150 150 150
-0.44807 0.6626 2.04616 150 150 150
19 20
