ply
format ascii 1.0
comment VCGLIB generated
element vertex 22
property float x
property float y
property float z
property uchar red
property uchar green
property uchar blue
element face 0
property list uchar int vertex_indices
element edge 1
property int vertex1
property int vertex2
end_header
0.32249 1.57647 1.33195 0 255 0
0.32258 1.58237 1.33542 0 255 0
0.3425 1.61784 1.36713 0 255 0
0.34414 1.6322 1.3755 0 255 0
0.34569 1.64028 1.37727 0 255 0
0.34225 1.6599 1.39216 0 255 0
0.3464 1.67123 1.38775 0 255 0
0.345 1.68132 1.39148 0 255 0
0.35209 1.70384 1.39783 0 255 0
0.34888 1.70789 1.40448 0 255 0
0.35014 1.73014 1.40929 0 255 0
0.35032 1.74966 1.43431 0 255 0
0.35189 1.75679 1.4405 0 255 0
0.35136 1.76289 1.43838 0 255 0
0.34993 1.77011 1.43902 0 255 0
0.35342 1.79243 1.44486 0 255 0
0.35161 1.79477 1.45043 0 255 0
0.35663 1.82206 1.47154 0 255 0
0.33541 1.56931 1.33212 0 150 0
0.34824 1.82124 1.46215 0 150 0
0.33541 1.56931 1.33212 150 150 150
0.34824 1.82124 1.46215 150 150 150
20 21
