ply
format ascii 1.0
comment VCGLIB generated
element vertex 28
property float x
property float y
property float z
property uchar red
property uchar green
property uchar blue
element face 0
property list uchar int vertex_indices
element edge 1
property int vertex1
property int vertex2
end_header
-0.04251 1.37631 1.61962 0 255 0
-0.04432 1.39771 1.62367 0 255 0
-0.04185 1.41074 1.64754 0 255 0
-0.02629 1.43779 1.79509 0 255 0
-0.02545 1.44376 1.79688 0 255 0
-0.03661 1.4534 1.66014 0 255 0
-0.0297 1.46451 1.73051 0 255 0
-0.03428 1.47162 1.79327 0 255 0
-0.03503 1.47924 1.79277 0 255 0
-0.03536 1.50654 1.78937 0 255 0
-0.03848 1.5131 1.79213 0 255 0
-0.02125 1.52213 1.78949 0 255 0
-0.0243 1.53111 1.77648 0 255 0
-0.02737 1.53475 1.76862 0 255 0
-0.01788 1.54993 1.77036 0 255 0
-0.02061 1.57085 1.77241 0 255 0
-0.02134 1.57826 1.77159 0 255 0
-0.0224 1.59134 1.76423 0 255 0
-0.02523 1.6119 1.76999 0 255 0
-0.02371 1.62136 1.75745 0 255 0
-0.03119 1.62615 1.73269 0 255 0
-0.02286 1.63994 1.73501 0 255 0
-0.01964 1.64742 1.73594 0 255 0
-0.01986 1.66237 1.74152 0 255 0
-0.0264 1.36957 1.62159 0 150 0
-0.02797 1.66876 1.74133 0 150 0
-0.0264 1.36957 1.62159 150 150 150
-0.02797 1.66876 1.74133 150 150 150
26 27
