ply
format ascii 1.0
comment VCGLIB generated
element vertex 23
property float x
property float y
property float z
property uchar red
property uchar green
property uchar blue
element face 0
property list uchar int vertex_indices
element edge 1
property int vertex1
property int vertex2
end_header
-0.4305 0.14363 2.01215 0 255 0
-0.41563 0.12752 2.07946 0 255 0
-0.40358 0.1421 2.01922 0 255 0
-0.41504 0.15242 1.98181 0 255 0
-0.37932 0.16456 2.09844 0 255 0
-0.36466 0.15737 2.08701 0 255 0
-0.33763 0.1586 2.07571 0 255 0
-0.31884 0.17113 2.07571 0 255 0
-0.31202 0.16874 2.07197 0 255 0
-0.29797 0.16487 2.07571 0 255 0
-0.28892 0.17043 2.07571 0 255 0
-0.27759 0.15052 2.07946 0 255 0
-0.25575 0.16457 2.07197 0 255 0
-0.22033 0.1677 2.07197 0 255 0
-0.20574 0.17082 2.07197 0 255 0
-0.1915 0.17113 2.07571 0 255 0
-0.16315 0.17521 2.08701 0 255 0
-0.15925 0.17237 2.09081 0 255 0
-0.1432 0.20081 2.10227 0 255 0
-0.44141 0.13006 2.05347 0 150 0
-0.13148 0.19803 2.11776 0 150 0
-0.44141 0.13006 2.05347 150 150 150
-0.13148 0.19803 2.11776 150 150 150
21 22
