ply
format ascii 1.0
comment VCGLIB generated
element vertex 33
property float x
property float y
property float z
property uchar red
property uchar green
property uchar blue
element face 0
property list uchar int vertex_indices
element edge 2
property int vertex1
property int vertex2
end_header
-0.02964 1.38594 1.61399 0 255 0
-0.03159 1.39637 1.62834 0 255 0
-0.05144 1.39838 1.6301 0 255 0
-0.04465 1.40752 1.64274 0 255 0
-0.04034 1.41934 1.65283 0 255 0
-0.04304 1.43083 1.65607 0 255 0
-0.04722 1.45768 1.66391 0 255 0
-0.03781 1.48205 1.66393 0 255 0
-0.03917 1.49244 1.66755 0 255 0
-0.03597 1.51775 1.68166 0 255 0
-0.05224 1.52502 1.69548 0 255 0
-0.04642 1.5382 1.70275 0 255 0
-0.04275 1.54406 1.70559 0 255 0
-0.01825 1.56357 1.77823 0 255 0
-0.02748 1.57626 1.76417 0 255 0
-0.02765 1.58852 1.75564 0 255 0
-0.02029 1.90487 1.86532 0 255 0
-0.00801 1.91161 1.8621 0 255 0
-0.01698 1.91949 1.86525 0 255 0
-0.01328 1.93265 1.86308 0 255 0
-0.01309 1.94104 1.86031 0 255 0
-0.00516 1.93991 1.86002 0 255 0
-0.01074 1.96317 1.86269 0 255 0
0.00403 1.96024 1.86038 0 255 0
0.0208 1.97639 1.86289 0 255 0
-0.0427 1.3869 1.62539 0 150 0
-0.03001 1.59965 1.74702 0 150 0
-0.02039 1.88172 1.86556 0 150 0
0.01387 1.99749 1.87956 0 150 0
-0.0427 1.3869 1.62539 150 150 150
-0.03001 1.59965 1.74702 150 150 150
-0.02039 1.88172 1.86556 150 150 150
0.01387 1.99749 1.87956 150 150 150
29 30
31 32
