ply
format ascii 1.0
comment VCGLIB generated
element vertex 28
property float x
property float y
property float z
property uchar red
property uchar green
property uchar blue
element face 0
property list uchar int vertex_indices
element edge 1
property int vertex1
property int vertex2
end_header
0.05987 1.71205 1.8235 0 255 0
0.06247 1.73043 1.81106 0 255 0
0.07002 1.74697 1.82396 0 255 0
0.07655 1.76229 1.81852 0 255 0
0.04355 1.76986 1.776 0 255 0
0.03552 1.76725 1.78938 0 255 0
0.03098 1.79864 1.79761 0 255 0
0.04391 1.80621 1.78219 0 255 0
0.05253 1.82077 1.78541 0 255 0
0.04005 1.81723 1.79285 0 255 0
0.03868 1.84931 1.84613 0 255 0
0.04698 1.85871 1.83884 0 255 0
0.08133 1.8753 1.86327 0 255 0
0.09107 1.88933 1.88535 0 255 0
0.04765 1.89318 1.82651 0 255 0
0.07392 1.89915 1.83832 0 255 0
0.05514 1.91283 1.82785 0 255 0
0.06581 1.91494 1.82671 0 255 0
0.07002 1.93224 1.82339 0 255 0
0.08857 1.95247 1.81982 0 255 0
0.08408 1.96359 1.81568 0 255 0
0.06439 1.98197 1.81464 0 255 0
0.06692 1.98865 1.81571 0 255 0
0.10412 2.01204 1.84787 0 255 0
0.06402 1.70606 1.8461 0 150 0
0.08071 2.01444 1.82971 0 150 0
0.06402 1.70606 1.8461 150 150 150
0.08071 2.01444 1.82971 150 150 150
26 27
