ply
format ascii 1.0
comment VCGLIB generated
element vertex 21
property float x
property float y
property float z
property uchar red
property uchar green
property uchar blue
element face 0
property list uchar int vertex_indices
element edge 1
property int vertex1
property int vertex2
end_header
0.1254 1.81753 1.74133 0 255 0
0.13237 1.82315 1.74113 0 255 0
0.14348 1.82737 1.74001 0 255 0
0.16278 1.84579 1.74641 0 255 0
0.17183 1.8702 1.75953 0 255 0
0.16122 1.87859 1.75683 0 255 0
0.1785 1.88184 1.7657 0 255 0
0.18041 1.88826 1.76452 0 255 0
0.17985 1.90734 1.75804 0 255 0
0.16166 1.92215 1.75357 0 255 0
0.18364 1.92485 1.76436 0 255 0
0.17255 1.9345 1.75931 0 255 0
0.18854 1.95157 1.76484 0 255 0
0.17491 1.96315 1.75791 0 255 0
0.16826 1.97709 1.75356 0 255 0
0.17366 1.98488 1.76051 0 255 0
0.14307 1.98993 1.74056 0 255 0
0.13199 1.79107 1.72492 0 150 0
0.16242 2.01481 1.76483 0 150 0
0.13199 1.79107 1.72492 150 150 150
0.16242 2.01481 1.76483 150 150 150
19 20
