ply
format ascii 1.0
comment VCGLIB generated
element vertex 43
property float x
property float y
property float z
property uchar red
property uchar green
property uchar blue
element face 0
property list uchar int vertex_indices
element edge 2
property int vertex1
property int vertex2
end_header
-0.0048 1.69697 1.93888 0 255 0
-0.00943 1.71132 1.95147 0 255 0
-0.0083 1.72664 1.94587 0 255 0
-0.0149 1.73336 1.9483 0 255 0
-0.01707 1.74151 1.94627 0 255 0
-0.01339 1.75016 1.94668 0 255 0
-0.01542 1.76247 1.96093 0 255 0
-0.03383 1.77855 1.95053 0 255 0
0.00793 1.79788 1.96785 0 255 0
-0.04544 1.81859 1.93496 0 255 0
0.0143 1.82827 1.9676 0 255 0
-0.03662 1.84193 1.93102 0 255 0
-0.00693 1.85821 1.96011 0 255 0
-0.02466 1.85795 1.88762 0 255 0
-0.02051 1.87357 1.86283 0 255 0
-0.01504 1.87708 1.86734 0 255 0
-0.01017 1.89223 1.93474 0 255 0
-0.01214 1.90647 1.8696 0 255 0
-0.01777 1.91905 1.86443 0 255 0
-0.03098 1.92343 1.86549 0 255 0
-0.03203 1.93172 1.86052 0 255 0
-0.03137 1.95119 1.85869 0 255 0
0.00125 1.95584 1.85801 0 255 0
-0.0151 1.97745 1.86188 0 255 0
-0.00705 2.00545 1.87738 0 255 0
-0.04143 1.44872 1.67451 0 255 0
-0.04259 1.45749 1.67997 0 255 0
-0.03743 1.45356 1.6777 0 255 0
-0.05471 1.4784 1.68197 0 255 0
-0.04054 1.50433 1.70144 0 255 0
-0.01949 1.51616 1.78997 0 255 0
-0.0142 1.54551 1.78144 0 255 0
-0.02988 1.55492 1.76919 0 255 0
-0.04497 1.56994 1.72454 0 255 0
-0.04183 1.5771 1.72621 0 255 0
0.00654 1.68646 1.93797 0 150 0
0.00496 2.01096 1.87991 0 150 0
-0.06212 1.44502 1.67392 0 150 0
-0.03614 1.58571 1.73348 0 150 0
0.00654 1.68646 1.93797 150 150 150
0.00496 2.01096 1.87991 150 150 150
-0.06212 1.44502 1.67392 150 150 150
-0.03614 1.58571 1.73348 150 150 150
39 40
41 42
