ply
format ascii 1.0
comment VCGLIB generated
element vertex 25
property float x
property float y
property float z
property uchar red
property uchar green
property uchar blue
element face 0
property list uchar int vertex_indices
element edge 1
property int vertex1
property int vertex2
end_header
-0.01677 -0.34394 1.91021 0 255 0
-0.01101 -0.35547 1.91021 0 255 0
0.01871 -0.34627 1.93756 0 255 0
0.02797 -0.35094 1.94906 0 255 0
0.03206 -0.3547 1.95902 0 255 0
0.04677 -0.36135 1.97021 0 255 0
0.05589 -0.35394 1.96572 0 255 0
0.07391 -0.33319 1.97161 0 255 0
0.08782 -0.3254 1.97246 0 255 0
0.10147 -0.31695 2.00688 0 255 0
0.11269 -0.3325 1.99125 0 255 0
0.12995 -0.31952 2.01039 0 255 0
0.14468 -0.31266 2.01833 0 255 0
0.15909 -0.29682 2.02099 0 255 0
0.18478 -0.28254 2.0353 0 255 0
0.19091 -0.2835 2.05714 0 255 0
0.1999 -0.28245 2.06453 0 255 0
0.20731 -0.28243 2.06949 0 255 0
0.22036 -0.27009 2.08135 0 255 0
0.23104 -0.27034 2.08323 0 255 0
0.24405 -0.28342 2.08701 0 255 0
-0.0225 -0.34337 1.90704 0 150 0
0.25618 -0.2871 2.08323 0 150 0
-0.0225 -0.34337 1.90704 150 150 150
0.25618 -0.2871 2.08323 150 150 150
23 24
