ply
format ascii 1.0
comment VCGLIB generated
element vertex 54
property float x
property float y
property float z
property uchar red
property uchar green
property uchar blue
element face 0
property list uchar int vertex_indices
element edge 1
property int vertex1
property int vertex2
end_header
0.29128 0.28366 2.07743 0 255 0
0.30389 0.28181 2.06785 0 255 0
0.30656 0.28108 2.06373 0 255 0
0.31604 0.28782 2.04877 0 255 0
0.32674 0.28564 2.04574 0 255 0
0.33404 0.27668 2.04978 0 255 0
0.34036 0.28154 2.04631 0 255 0
0.35354 0.28917 2.04465 0 255 0
0.36832 0.27604 2.04911 0 255 0
0.3678 0.29692 2.04413 0 255 0
0.38954 0.29783 2.04395 0 255 0
0.39608 0.29574 2.04424 0 255 0
0.40959 0.29806 2.0392 0 255 0
0.41645 0.30238 2.03578 0 255 0
0.43354 0.30452 2.02807 0 255 0
0.44042 0.30791 2.02211 0 255 0
0.446 0.30795 2.01963 0 255 0
0.45126 0.30658 2.01716 0 255 0
0.45976 0.30448 2.01248 0 255 0
0.4735 0.30533 2.0129 0 255 0
0.48105 0.30228 2.01805 0 255 0
0.48853 0.31071 1.99715 0 255 0
0.49733 0.31493 1.98326 0 255 0
0.50208 0.32144 1.98041 0 255 0
0.51632 0.31661 1.96504 0 255 0
0.51705 0.32285 1.96602 0 255 0
0.52527 0.32223 1.96069 0 255 0
0.54623 0.30677 1.97114 0 255 0
0.55957 0.32382 1.93957 0 255 0
0.5723 0.31717 1.92873 0 255 0
0.5818 0.32583 1.92382 0 255 0
0.58891 0.32734 1.91384 0 255 0
0.59485 0.3262 1.92199 0 255 0
0.61104 0.31957 1.90954 0 255 0
0.62427 0.33674 1.89686 0 255 0
0.63574 0.32729 1.9043 0 255 0
0.63127 0.34964 1.90422 0 255 0
0.64822 0.34665 1.88158 0 255 0
0.66733 0.33389 1.88287 0 255 0
0.67837 0.34354 1.87114 0 255 0
0.68139 0.34562 1.86831 0 255 0
0.69062 0.34618 1.86252 0 255 0
0.70268 0.35492 1.84903 0 255 0
0.70823 0.35621 1.84503 0 255 0
0.71837 0.35766 1.83008 0 255 0
0.73157 0.35594 1.8283 0 255 0
0.73201 0.35857 1.82513 0 255 0
0.74414 0.36194 1.81883 0 255 0
0.75933 0.34609 1.8335 0 255 0
0.7725 0.35701 1.81599 0 255 0
0.28239 0.3009 2.1057 0 150 0
0.77619 0.36411 1.79704 0 150 0
0.28239 0.3009 2.1057 150 150 150
0.77619 0.36411 1.79704 150 150 150
52 53
