ply
format ascii 1.0
comment VCGLIB generated
element vertex 14
property float x
property float y
property float z
property uchar red
property uchar green
property uchar blue
element face 0
property list uchar int vertex_indices
element edge 1
property int vertex1
property int vertex2
end_header
-0.48083 0.53437 2.02812 0 255 0
-0.47147 0.54961 2.0317 0 255 0
-0.47268 0.5568 2.02812 0 255 0
-0.44807 0.56176 2.04616 0 255 0
-0.43874 0.56417 2.07011 0 255 0
-0.4418 0.57047 2.05531 0 255 0
-0.44395 0.61321 2.04616 0 255 0
-0.42228 0.61956 2.08135 0 255 0
-0.43227 0.63389 2.07571 0 255 0
-0.43027 0.64828 2.07946 0 255 0
-0.48083 0.53999 2.02812 0 150 0
-0.44554 0.58637 2.05347 0 150 0
-0.48083 0.53999 2.02812 150 150 150
-0.44554 0.58637 2.05347 150 150 150
12 13
