ply
format ascii 1.0
comment VCGLIB generated
element vertex 30
property float x
property float y
property float z
property uchar red
property uchar green
property uchar blue
element face 0
property list uchar int vertex_indices
element edge 1
property int vertex1
property int vertex2
end_header
-0.08813 0.60581 2.15144 0 255 0
-0.07197 0.60809 2.12167 0 255 0
-0.0582 0.59816 2.08701 0 255 0
-0.05163 0.59701 2.07572 0 255 0
-0.03075 0.59075 2.07571 0 255 0
-0.02856 0.59278 2.06824 0 255 0
0.00888 0.56365 2.06827 0 255 0
0.01699 0.56898 2.04253 0 255 0
0.03132 0.57273 2.18206 0 255 0
0.04419 0.57113 2.16766 0 255 0
0.05679 0.56417 2.14943 0 255 0
0.07417 0.56981 2.09081 0 255 0
0.08647 0.54889 2.08323 0 255 0
0.09537 0.56663 2.09461 0 255 0
0.10132 0.54988 2.08701 0 255 0
0.1059 0.53503 2.09461 0 255 0
0.11833 0.53196 2.09081 0 255 0
0.14304 0.51536 2.08323 0 255 0
0.17898 0.5142 2.08701 0 255 0
0.18562 0.51093 2.09081 0 255 0
0.1931 0.50655 2.09589 0 255 0
0.20816 0.50832 2.10612 0 255 0
0.21783 0.50048 2.11776 0 255 0
0.22108 0.49855 2.12167 0 255 0
0.23146 0.50019 2.12559 0 255 0
0.23577 0.48536 2.13877 0 255 0
-0.09489 0.601 2.15749 0 150 0
0.24225 0.48543 2.14542 0 150 0
-0.09489 0.601 2.15749 150 150 150
0.24225 0.48543 2.14542 150 150 150
28 29
