ply
format ascii 1.0
comment VCGLIB generated
element vertex 25
property float x
property float y
property float z
property uchar red
property uchar green
property uchar blue
element face 0
property list uchar int vertex_indices
element edge 3
property int vertex1
property int vertex2
end_header
-0.24189 -0.06632 1.07693 0 255 0
-0.22762 -0.06732 1.07908 0 255 0
-0.22095 -0.06654 1.08047 0 255 0
-0.1932 -0.0712 1.10572 0 255 0
-0.18893 -0.06793 1.10678 0 255 0
-0.16494 -0.06833 1.13414 0 255 0
-0.08834 -0.12393 1.25062 0 255 0
-0.07972 -0.12263 1.24385 0 255 0
-0.06852 -0.12119 1.23765 0 255 0
-0.07324 -0.13006 1.24702 0 255 0
-0.04305 -0.13084 1.2327 0 255 0
-0.0447 -0.13577 1.24386 0 255 0
-0.03215 -0.13583 1.24252 0 255 0
-0.00969 -0.15617 1.24689 0 255 0
-0.24175 -0.06345 1.07438 0 150 0
-0.16165 -0.07946 1.13407 0 150 0
-0.09279 -0.11709 1.2513 0 150 0
-0.00316 -0.14453 1.24211 0 150 0
0.29158 -0.26375 1.41375 0 0 255
-0.24175 -0.06345 1.07438 150 150 150
-0.16165 -0.07946 1.13407 150 150 150
-0.09279 -0.11709 1.2513 150 150 150
-0.00316 -0.14453 1.24211 150 150 150
0.35522 -0.32739 1.41375 150 150 150
0.22794 -0.20011 1.41375 150 150 150
19 20
21 22
23 24
