ply
format ascii 1.0
comment VCGLIB generated
element vertex 46
property float x
property float y
property float z
property uchar red
property uchar green
property uchar blue
element face 0
property list uchar int vertex_indices
element edge 2
property int vertex1
property int vertex2
end_header
-0.23759 -0.11779 1.19475 0 255 0
-0.22497 -0.11676 1.19662 0 255 0
-0.22169 -0.10863 1.19974 0 255 0
-0.20862 -0.11524 1.18576 0 255 0
-0.19903 -0.11513 1.17983 0 255 0
-0.20172 -0.12567 1.17475 0 255 0
-0.19815 -0.13353 1.17461 0 255 0
-0.17716 -0.1352 1.16864 0 255 0
-0.17946 -0.16051 1.19973 0 255 0
-0.16 -0.16573 1.18521 0 255 0
-0.15448 -0.16254 1.17943 0 255 0
-0.14254 -0.16484 1.17884 0 255 0
-0.13046 -0.16351 1.17501 0 255 0
-0.13449 -0.17623 1.17581 0 255 0
-0.13065 -0.17983 1.18388 0 255 0
-0.11735 -0.17714 1.18185 0 255 0
-0.10664 -0.20668 1.20859 0 255 0
-0.10014 -0.19738 1.18919 0 255 0
-0.10234 -0.20417 1.20099 0 255 0
-0.08307 -0.20976 1.21945 0 255 0
-0.06641 -0.22129 1.22901 0 255 0
-0.06151 -0.23382 1.22989 0 255 0
-0.04568 -0.24129 1.2365 0 255 0
-0.03213 -0.24493 1.23575 0 255 0
-0.03592 -0.25447 1.2389 0 255 0
-0.01783 -0.26201 1.24633 0 255 0
-0.02309 -0.28787 1.29498 0 255 0
-0.00938 -0.28374 1.27178 0 255 0
-0.00157 -0.28797 1.27241 0 255 0
-0.00223 -0.29497 1.28056 0 255 0
0.01062 -0.28372 1.2763 0 255 0
0.02444 -0.29219 1.28342 0 255 0
0.03908 -0.2905 1.28358 0 255 0
0.05082 -0.30416 1.28677 0 255 0
0.0602 -0.31881 1.29369 0 255 0
0.06026 -0.32434 1.29498 0 255 0
0.05919 -0.33085 1.30011 0 255 0
0.05977 -0.34067 1.31273 0 255 0
0.06395 -0.34846 1.31723 0 255 0
-0.24244 -0.09286 1.19495 0 150 0
0.06395 -0.31802 1.31723 0 150 0
0.15885 -0.35744 1.32891 0 0 255
-0.24244 -0.09286 1.19495 150 150 150
0.06395 -0.31802 1.31723 150 150 150
0.08981 -0.3067 1.30136 150 150 150
0.22789 -0.40817 1.35646 150 150 150
42 43
44 45
