ply
format ascii 1.0
comment VCGLIB generated
element vertex 33
property float x
property float y
property float z
property uchar red
property uchar green
property uchar blue
element face 0
property list uchar int vertex_indices
element edge 2
property int vertex1
property int vertex2
end_header
0.64721 -0.21988 1.58394 0 255 0
0.64615 -0.22573 1.58394 0 255 0
0.65374 -0.23602 1.58177 0 255 0
0.66838 -0.24235 1.58504 0 255 0
0.68295 -0.26185 1.59052 0 255 0
0.08809 -0.10197 1.28294 0 255 0
0.08822 -0.10858 1.28485 0 255 0
0.10826 -0.119 1.29268 0 255 0
0.11484 -0.10802 1.29353 0 255 0
0.1291 -0.10855 1.30616 0 255 0
0.13208 -0.11464 1.30973 0 255 0
0.15159 -0.11833 1.33656 0 255 0
0.16503 -0.12286 1.342 0 255 0
0.17216 -0.11502 1.34496 0 255 0
0.18519 -0.115 1.34871 0 255 0
0.19991 -0.11542 1.3497 0 255 0
0.20892 -0.12199 1.35234 0 255 0
0.21213 -0.13714 1.3497 0 255 0
0.23984 -0.14563 1.35287 0 255 0
0.24757 -0.12985 1.37307 0 255 0
0.26393 -0.13602 1.39387 0 255 0
0.26122 -0.1421 1.38938 0 255 0
0.28352 -0.15716 1.47381 0 255 0
0.29661 -0.15145 1.46164 0 255 0
0.30745 -0.15064 1.45378 0 255 0
0.63396 -0.21388 1.58668 0 150 0
0.6889 -0.27672 1.59937 0 150 0
0.08018 -0.10176 1.28024 0 150 0
0.31889 -0.15711 1.44602 0 150 0
0.63396 -0.21388 1.58668 150 150 150
0.6889 -0.27672 1.59937 150 150 150
0.08018 -0.10176 1.28024 150 150 150
0.31889 -0.15711 1.44602 150 150 150
29 30
31 32
