ply
format ascii 1.0
comment VCGLIB generated
element vertex 57
property float x
property float y
property float z
property uchar red
property uchar green
property uchar blue
element face 0
property list uchar int vertex_indices
element edge 1
property int vertex1
property int vertex2
end_header
-0.32459 0.074 1.3633 0 255 0
-0.31043 0.08008 1.37348 0 255 0
-0.3353 0.08659 1.34575 0 255 0
-0.32407 0.09455 1.36303 0 255 0
-0.3053 0.10093 1.37526 0 255 0
-0.3205 0.11855 1.38715 0 255 0
-0.30999 0.12661 1.38381 0 255 0
-0.29046 0.13625 1.39698 0 255 0
-0.29122 0.14506 1.40066 0 255 0
-0.28973 0.15102 1.40366 0 255 0
-0.28875 0.16296 1.40924 0 255 0
-0.2922 0.16573 1.41677 0 255 0
-0.2757 0.1802 1.42232 0 255 0
-0.29769 0.18602 1.45287 0 255 0
-0.27327 0.19152 1.43206 0 255 0
-0.26729 0.20218 1.44647 0 255 0
-0.25551 0.19979 1.42939 0 255 0
-0.25678 0.21355 1.44465 0 255 0
-0.24218 0.22088 1.43563 0 255 0
-0.22789 0.23849 1.45501 0 255 0
-0.22796 0.24748 1.4649 0 255 0
-0.2123 0.26731 1.46864 0 255 0
-0.20125 0.25499 1.47429 0 255 0
-0.19841 0.26216 1.4796 0 255 0
-0.18565 0.2692 1.48227 0 255 0
-0.17844 0.29059 1.48189 0 255 0
-0.1616 0.29097 1.4915 0 255 0
-0.1711 0.29823 1.48284 0 255 0
-0.15229 0.2857 1.50319 0 255 0
-0.15022 0.31911 1.48284 0 255 0
-0.14268 0.31834 1.48973 0 255 0
-0.14036 0.32491 1.48892 0 255 0
-0.12866 0.3267 1.51575 0 255 0
-0.11589 0.33434 1.5216 0 255 0
-0.11491 0.35354 1.51668 0 255 0
-0.11662 0.38034 1.53122 0 255 0
-0.09814 0.38804 1.53122 0 255 0
-0.09808 0.39394 1.5302 0 255 0
-0.06995 0.40151 1.54355 0 255 0
-0.06068 0.41675 1.54979 0 255 0
-0.05293 0.44406 1.5603 0 255 0
-0.05192 0.45845 1.57743 0 255 0
-0.0458 0.47182 1.58504 0 255 0
-0.02824 0.46513 1.58394 0 255 0
-0.02346 0.47787 1.58394 0 255 0
-0.01074 0.48525 1.58722 0 255 0
-0.00436 0.49357 1.58832 0 255 0
0.00317 0.49448 1.58832 0 255 0
0.01798 0.50724 1.58613 0 255 0
0.03882 0.51505 1.59052 0 255 0
0.05082 0.52766 1.59439 0 255 0
0.06008 0.52867 1.60271 0 255 0
0.06514 0.52728 1.60831 0 255 0
-0.32648 0.10585 1.36169 0 150 0
0.073 0.56495 1.61509 0 150 0
-0.32648 0.10585 1.36169 150 150 150
0.073 0.56495 1.61509 150 150 150
55 56
