ply
format ascii 1.0
comment VCGLIB generated
element vertex 23
property float x
property float y
property float z
property uchar red
property uchar green
property uchar blue
element face 0
property list uchar int vertex_indices
element edge 1
property int vertex1
property int vertex2
end_header
-0.40978 0.40424 1.9999 0 255 0
-0.38767 0.4104 2.01039 0 255 0
-0.36809 0.41517 2.01391 0 255 0
-0.33289 0.38616 2.09844 0 255 0
-0.30841 0.39868 2.07571 0 255 0
-0.31364 0.4175 2.05531 0 255 0
-0.30423 0.40912 2.07571 0 255 0
-0.28979 0.41741 2.07197 0 255 0
-0.26908 0.40653 2.09461 0 255 0
-0.25912 0.41146 2.08229 0 255 0
-0.23532 0.41691 2.06949 0 255 0
-0.22727 0.41741 2.07197 0 255 0
-0.22003 0.40016 2.08894 0 255 0
-0.20016 0.42422 2.06453 0 255 0
-0.18473 0.41634 2.07011 0 255 0
-0.16645 0.41747 2.07571 0 255 0
-0.14743 0.40801 2.10227 0 255 0
-0.12987 0.41675 2.10903 0 255 0
-0.12629 0.42916 2.10227 0 255 0
-0.43238 0.39187 2.04981 0 150 0
-0.11465 0.4279 2.12167 0 150 0
-0.43238 0.39187 2.04981 150 150 150
-0.11465 0.4279 2.12167 150 150 150
21 22
