ply
format ascii 1.0
comment VCGLIB generated
element vertex 33
property float x
property float y
property float z
property uchar red
property uchar green
property uchar blue
element face 0
property list uchar int vertex_indices
element edge 2
property int vertex1
property int vertex2
end_header
0.12127 -0.12226 1.29742 0 255 0
0.13103 -0.12147 1.31235 0 255 0
0.13667 -0.10227 1.31333 0 255 0
0.1436 -0.10991 1.32686 0 255 0
0.15376 -0.11576 1.33792 0 255 0
0.16535 -0.11508 1.34182 0 255 0
0.19199 -0.11556 1.35129 0 255 0
0.21408 -0.12935 1.35341 0 255 0
0.22431 -0.12976 1.35767 0 255 0
0.24766 -0.13681 1.37361 0 255 0
0.25708 -0.12141 1.38715 0 255 0
0.26846 -0.12917 1.39556 0 255 0
0.27334 -0.1337 1.39896 0 255 0
0.28352 -0.15716 1.47381 0 255 0
0.29853 -0.15131 1.46025 0 255 0
0.31108 -0.15393 1.45259 0 255 0
0.61322 -0.21404 1.58394 0 255 0
0.61768 -0.22754 1.58177 0 255 0
0.62693 -0.22003 1.58504 0 255 0
0.63924 -0.22626 1.58394 0 255 0
0.64759 -0.22817 1.58177 0 255 0
0.64499 -0.23576 1.58177 0 255 0
0.66869 -0.23449 1.58577 0 255 0
0.66314 -0.24856 1.58394 0 255 0
0.67562 -0.26788 1.58832 0 255 0
0.12404 -0.10897 1.30824 0 150 0
0.32295 -0.15421 1.44465 0 150 0
0.59055 -0.2096 1.58259 0 150 0
0.69663 -0.26406 1.60607 0 150 0
0.12404 -0.10897 1.30824 150 150 150
0.32295 -0.15421 1.44465 150 150 150
0.59055 -0.2096 1.58259 150 150 150
0.69663 -0.26406 1.60607 150 150 150
29 30
31 32
