ply
format ascii 1.0
comment VCGLIB generated
element vertex 23
property float x
property float y
property float z
property uchar red
property uchar green
property uchar blue
element face 0
property list uchar int vertex_indices
element edge 1
property int vertex1
property int vertex2
end_header
0.03521 1.74325 1.78159 0 255 0
0.03552 1.76725 1.78938 0 255 0
0.03498 1.78767 1.79058 0 255 0
0.08965 1.82661 1.85928 0 255 0
0.07587 1.85009 1.83623 0 255 0
0.05192 1.84617 1.82178 0 255 0
0.06658 1.85619 1.8379 0 255 0
0.06003 1.87141 1.83379 0 255 0
0.07945 1.8922 1.84961 0 255 0
0.07322 1.90135 1.83724 0 255 0
0.06858 1.924 1.82223 0 255 0
0.07002 1.93224 1.82339 0 255 0
0.09193 1.93799 1.83456 0 255 0
0.06598 1.95904 1.81328 0 255 0
0.07737 1.97319 1.81428 0 255 0
0.08063 1.99189 1.81688 0 255 0
0.09941 2.0118 1.83707 0 255 0
0.09559 2.03142 1.8426 0 255 0
0.08261 2.03651 1.83833 0 255 0
0.05602 1.72496 1.83045 0 150 0
0.09058 2.04996 1.85473 0 150 0
0.05602 1.72496 1.83045 150 150 150
0.09058 2.04996 1.85473 150 150 150
21 22
