ply
format ascii 1.0
comment VCGLIB generated
element vertex 35
property float x
property float y
property float z
property uchar red
property uchar green
property uchar blue
element face 0
property list uchar int vertex_indices
element edge 1
property int vertex1
property int vertex2
end_header
0.11789 1.40936 1.5795 0 255 0
0.11961 1.44594 1.58842 0 255 0
0.11299 1.44529 1.59585 0 255 0
0.1151 1.49089 1.59087 0 255 0
0.08952 1.49911 1.58952 0 255 0
0.09019 1.51641 1.58891 0 255 0
0.10259 1.54138 1.58563 0 255 0
0.14021 1.58124 1.63488 0 255 0
0.13567 1.58451 1.63776 0 255 0
0.13824 1.60367 1.66731 0 255 0
0.14731 1.61095 1.65606 0 255 0
0.14612 1.63953 1.67813 0 255 0
0.14362 1.6569 1.66889 0 255 0
0.14041 1.6654 1.66893 0 255 0
0.12352 1.67909 1.66602 0 255 0
0.12549 1.69994 1.67269 0 255 0
0.13049 1.71 1.67553 0 255 0
0.12489 1.72901 1.6752 0 255 0
0.1494 1.75109 1.68312 0 255 0
0.14217 1.77455 1.6997 0 255 0
0.14652 1.79281 1.71393 0 255 0
0.14003 1.81135 1.72692 0 255 0
0.14382 1.81597 1.71674 0 255 0
0.13393 1.81147 1.72419 0 255 0
0.15867 1.84084 1.73004 0 255 0
0.14355 1.84374 1.72723 0 255 0
0.13031 1.86228 1.7367 0 255 0
0.13422 1.87319 1.7247 0 255 0
0.12711 1.86599 1.7295 0 255 0
0.1201 1.87317 1.74394 0 255 0
0.1157 1.88345 1.73088 0 255 0
0.1054 1.4017 1.58728 0 150 0
0.11393 1.88094 1.74484 0 150 0
0.1054 1.4017 1.58728 150 150 150
0.11393 1.88094 1.74484 150 150 150
33 34
