ply
format ascii 1.0
comment VCGLIB generated
element vertex 22
property float x
property float y
property float z
property uchar red
property uchar green
property uchar blue
element face 0
property list uchar int vertex_indices
element edge 1
property int vertex1
property int vertex2
end_header
0.01853 1.80415 1.84472 0 255 0
0.05328 1.82739 1.90953 0 255 0
0.02947 1.83314 1.85365 0 255 0
0.07463 1.84547 1.91382 0 255 0
0.06203 1.85944 1.90384 0 255 0
0.06487 1.86165 1.90086 0 255 0
0.04414 1.86712 1.86987 0 255 0
0.03522 1.89545 1.83077 0 255 0
0.0533 1.89732 1.83867 0 255 0
0.05461 1.904 1.84514 0 255 0
0.06599 1.9349 1.82573 0 255 0
0.08176 1.95078 1.8348 0 255 0
0.06834 1.97469 1.82473 0 255 0
0.07999 1.98898 1.82758 0 255 0
0.07253 2.00009 1.83037 0 255 0
0.06736 2.01811 1.84449 0 255 0
0.0671 2.02917 1.84982 0 255 0
0.0686 2.04054 1.85081 0 255 0
0.01934 1.79114 1.84214 0 150 0
0.06786 2.05441 1.86252 0 150 0
0.01934 1.79114 1.84214 150 150 150
0.06786 2.05441 1.86252 150 150 150
20 21
