ply
format ascii 1.0
comment VCGLIB generated
element vertex 40
property float x
property float y
property float z
property uchar red
property uchar green
property uchar blue
element face 0
property list uchar int vertex_indices
element edge 3
property int vertex1
property int vertex2
end_header
0.03175 -0.21473 1.27441 0 255 0
0.04951 -0.21867 1.28629 0 255 0
0.06023 -0.21872 1.29425 0 255 0
0.06613 -0.20643 1.28864 0 255 0
0.07389 -0.21373 1.29895 0 255 0
0.08749 -0.22 1.30768 0 255 0
0.09783 -0.20158 1.30973 0 255 0
0.10713 -0.22125 1.31392 0 255 0
0.11455 -0.22046 1.32026 0 255 0
0.12063 -0.21384 1.32865 0 255 0
0.19942 -0.2713 1.46583 0 255 0
0.2206 -0.26891 1.46615 0 255 0
0.22032 -0.28824 1.46864 0 255 0
0.24221 -0.28276 1.4795 0 255 0
0.25725 -0.2747 1.47618 0 255 0
0.26854 -0.26966 1.4649 0 255 0
0.27704 -0.26799 1.44013 0 255 0
0.29123 -0.2796 1.43725 0 255 0
0.3118 -0.27669 1.44013 0 255 0
0.32555 -0.2831 1.44329 0 255 0
0.33302 -0.28691 1.4442 0 255 0
0.3454 -0.29118 1.44738 0 255 0
0.36846 -0.29615 1.45994 0 255 0
0.377 -0.30677 1.47808 0 255 0
0.40385 -0.30039 1.48572 0 255 0
0.40308 -0.31857 1.49392 0 255 0
0.42289 -0.31878 1.49489 0 255 0
0.44489 -0.33264 1.50319 0 255 0
0.45968 -0.32504 1.51708 0 255 0
0.0178 -0.21338 1.2763 0 150 0
0.12988 -0.21365 1.33792 0 150 0
0.18588 -0.27679 1.46365 0 150 0
0.47292 -0.32585 1.53531 0 150 0
0.61527 -0.36515 1.58527 0 0 255
0.0178 -0.21338 1.2763 150 150 150
0.12988 -0.21365 1.33792 150 150 150
0.18588 -0.27679 1.46365 150 150 150
0.47292 -0.32585 1.53531 150 150 150
0.52912 -0.35042 1.56376 150 150 150
0.70141 -0.37987 1.60677 150 150 150
34 35
36 37
38 39
