ply
format ascii 1.0
comment VCGLIB generated
element vertex 22
property float x
property float y
property float z
property uchar red
property uchar green
property uchar blue
element face 0
property list uchar int vertex_indices
element edge 1
property int vertex1
property int vertex2
end_header
0.46574 -0.02543 1.54562 0 255 0
0.47115 -0.02498 1.54979 0 255 0
0.4997 -0.03685 1.59107 0 255 0
0.51267 -0.03709 1.60159 0 255 0
0.5202 -0.03879 1.60495 0 255 0
0.53837 -0.03265 1.62078 0 255 0
0.5494 -0.03914 1.61964 0 255 0
0.55912 -0.03762 1.62421 0 255 0
0.57954 -0.04446 1.63577 0 255 0
0.58327 -0.03967 1.6416 0 255 0
0.60445 -0.04153 1.64985 0 255 0
0.62088 -0.03545 1.6763 0 255 0
0.627 -0.03561 1.68367 0 255 0
0.6333 -0.03643 1.68243 0 255 0
0.64054 -0.03561 1.68367 0 255 0
0.66135 -0.03922 1.69358 0 255 0
0.6633 -0.03592 1.69859 0 255 0
0.68712 -0.03646 1.72405 0 255 0
0.45681 -0.03679 1.54875 0 150 0
0.68854 -0.03159 1.7125 0 150 0
0.45681 -0.03679 1.54875 150 150 150
0.68854 -0.03159 1.7125 150 150 150
20 21
