ply
format ascii 1.0
comment VCGLIB generated
element vertex 55
property float x
property float y
property float z
property uchar red
property uchar green
property uchar blue
element face 0
property list uchar int vertex_indices
element edge 1
property int vertex1
property int vertex2
end_header
0.26733 0.2918 2.10498 0 255 0
0.27503 0.29575 2.10626 0 255 0
0.2832 0.2979 2.09643 0 255 0
0.28766 0.30011 2.10326 0 255 0
0.3026 0.28817 2.06178 0 255 0
0.31941 0.29454 2.04438 0 255 0
0.32699 0.28828 2.04389 0 255 0
0.33412 0.28537 2.04496 0 255 0
0.34015 0.28856 2.04409 0 255 0
0.3465 0.28179 2.0462 0 255 0
0.36826 0.28978 2.0444 0 255 0
0.38202 0.30472 2.04405 0 255 0
0.39543 0.30192 2.04072 0 255 0
0.40197 0.30441 2.03777 0 255 0
0.41366 0.29158 2.04218 0 255 0
0.43136 0.3027 2.03149 0 255 0
0.43984 0.29892 2.02869 0 255 0
0.452 0.30093 2.02061 0 255 0
0.46671 0.30854 2.00088 0 255 0
0.46776 0.31054 1.99914 0 255 0
0.46943 0.31915 2.00409 0 255 0
0.49565 0.31782 1.98808 0 255 0
0.50208 0.32144 1.98041 0 255 0
0.52086 0.31168 1.97214 0 255 0
0.52476 0.31697 1.96243 0 255 0
0.53275 0.31605 1.96091 0 255 0
0.54344 0.3269 1.95307 0 255 0
0.55305 0.31588 1.95539 0 255 0
0.56034 0.31737 1.94045 0 255 0
0.56898 0.31697 1.92806 0 255 0
0.57539 0.3135 1.94876 0 255 0
0.58795 0.31602 1.93318 0 255 0
0.59647 0.32758 1.91313 0 255 0
0.61104 0.31957 1.90954 0 255 0
0.61686 0.34795 1.90532 0 255 0
0.62449 0.33162 1.89883 0 255 0
0.63172 0.33701 1.89654 0 255 0
0.63893 0.33694 1.89577 0 255 0
0.64846 0.34268 1.88372 0 255 0
0.66973 0.33964 1.87689 0 255 0
0.67642 0.32983 1.88035 0 255 0
0.68952 0.34533 1.86404 0 255 0
0.69535 0.34996 1.85708 0 255 0
0.70784 0.35336 1.84779 0 255 0
0.7194 0.35252 1.83306 0 255 0
0.72182 0.3494 1.83568 0 255 0
0.73157 0.35594 1.8283 0 255 0
0.73908 0.3516 1.83142 0 255 0
0.75294 0.36217 1.81576 0 255 0
0.76603 0.35785 1.8091 0 255 0
0.77713 0.36078 1.7982 0 255 0
0.32812 0.29027 2.1058 0 150 0
0.71109 0.34912 1.80106 0 150 0
0.32812 0.29027 2.1058 150 150 150
0.71109 0.34912 1.80106 150 150 150
53 54
