ply
format ascii 1.0
comment VCGLIB generated
element vertex 48
property float x
property float y
property float z
property uchar red
property uchar green
property uchar blue
element face 0
property list uchar int vertex_indices
element edge 2
property int vertex1
property int vertex2
end_header
-0.23327 -0.11653 1.20036 0 255 0
-0.22188 -0.11053 1.2073 0 255 0
-0.21962 -0.11968 1.20161 0 255 0
-0.20172 -0.12567 1.17475 0 255 0
-0.19009 -0.12932 1.16864 0 255 0
-0.17834 -0.1258 1.16864 0 255 0
-0.17127 -0.15232 1.18478 0 255 0
-0.15008 -0.1563 1.16825 0 255 0
-0.14798 -0.16867 1.18919 0 255 0
-0.13032 -0.16629 1.17608 0 255 0
-0.12261 -0.1776 1.18094 0 255 0
-0.11595 -0.18467 1.18656 0 255 0
-0.10213 -0.1921 1.18796 0 255 0
-0.10719 -0.19899 1.19314 0 255 0
-0.0866 -0.1944 1.20036 0 255 0
-0.08165 -0.20043 1.20761 0 255 0
-0.07436 -0.2114 1.22421 0 255 0
-0.0738 -0.22121 1.22857 0 255 0
-0.0655 -0.23293 1.23041 0 255 0
-0.05183 -0.2348 1.23502 0 255 0
-0.0394 -0.23471 1.23458 0 255 0
-0.03201 -0.24806 1.23716 0 255 0
-0.01718 -0.24526 1.24401 0 255 0
-0.01079 -0.25229 1.24706 0 255 0
-0.00971 -0.26258 1.24903 0 255 0
-0.00972 -0.26921 1.25062 0 255 0
-0.00346 -0.27537 1.2616 0 255 0
0.00446 -0.28442 1.27715 0 255 0
0.01062 -0.28372 1.2763 0 255 0
0.03907 -0.283 1.28324 0 255 0
0.03909 -0.30065 1.28399 0 255 0
0.05283 -0.3045 1.28821 0 255 0
0.06547 -0.3009 1.29498 0 255 0
0.06689 -0.29749 1.29717 0 255 0
0.08198 -0.31144 1.29707 0 255 0
0.0798 -0.31978 1.29498 0 255 0
0.07502 -0.32521 1.29498 0 255 0
0.09336 -0.34122 1.29644 0 255 0
0.08051 -0.34766 1.30231 0 255 0
0.07624 -0.35982 1.30084 0 255 0
0.08695 -0.36741 1.30453 0 255 0
-0.2471 -0.08655 1.20476 0 150 0
0.09489 -0.37469 1.30552 0 150 0
0.18216 -0.35698 1.33447 0 0 255
-0.2471 -0.08655 1.20476 150 150 150
0.09489 -0.37469 1.30552 150 150 150
0.11502 -0.30041 1.31469 150 150 150
0.24931 -0.41355 1.35425 150 150 150
44 45
46 47
