ply
format ascii 1.0
comment VCGLIB generated
element vertex 46
property float x
property float y
property float z
property uchar red
property uchar green
property uchar blue
element face 0
property list uchar int vertex_indices
element edge 2
property int vertex1
property int vertex2
end_header
0.00569 1.54871 1.78804 0 255 0
-0.00167 1.55911 1.78923 0 255 0
-0.01038 1.55795 1.79232 0 255 0
-0.01123 1.57172 1.77751 0 255 0
-0.01615 1.57955 1.77106 0 255 0
-0.00567 1.58233 1.76592 0 255 0
-0.00074 1.5894 1.76543 0 255 0
-0.00998 1.60791 1.75826 0 255 0
0.0126 1.62069 1.78892 0 255 0
0.00729 1.6392 1.77324 0 255 0
0.00179 1.64196 1.76722 0 255 0
-0.00233 1.65334 1.76592 0 255 0
-0.00961 1.66279 1.76145 0 255 0
0.00337 1.66589 1.76222 0 255 0
0.0044 1.67149 1.76999 0 255 0
-0.00468 1.6814 1.76727 0 255 0
0.01491 1.70725 1.79277 0 255 0
0.00381 1.70693 1.77323 0 255 0
0.01064 1.7092 1.78499 0 255 0
0.00537 1.72966 1.80224 0 255 0
0.00665 1.7504 1.81062 0 255 0
0.0149 1.76105 1.81097 0 255 0
0.01315 1.77884 1.81654 0 255 0
0.00935 1.79227 1.81496 0 255 0
0.01945 1.79408 1.81812 0 255 0
0.01659 1.81388 1.82438 0 255 0
0.04095 1.82542 1.87272 0 255 0
0.03064 1.83372 1.84888 0 255 0
0.03028 1.84261 1.84899 0 255 0
0.03653 1.8461 1.85702 0 255 0
0.02035 1.85112 1.85227 0 255 0
0.02047 1.86772 1.85844 0 255 0
0.01153 1.87941 1.85782 0 255 0
0.01723 1.89665 1.86007 0 255 0
0.02493 1.91259 1.86616 0 255 0
0.02964 1.91554 1.86734 0 255 0
0.03572 1.91825 1.87238 0 255 0
0.04372 1.9245 1.88475 0 255 0
0.04822 1.93233 1.88886 0 255 0
-0.01326 1.53181 1.78902 0 150 0
0.02207 1.91677 1.88947 0 150 0
0.00726 2.01897 1.89504 0 0 255
-0.01326 1.53181 1.78902 150 150 150
0.02207 1.91677 1.88947 150 150 150
-0.00071 1.93223 1.87241 150 150 150
0.01522 2.10571 1.91768 150 150 150
42 43
44 45
