ply
format ascii 1.0
comment VCGLIB generated
element vertex 47
property float x
property float y
property float z
property uchar red
property uchar green
property uchar blue
element face 0
property list uchar int vertex_indices
element edge 3
property int vertex1
property int vertex2
end_header
0.01405 1.51239 1.7918 0 255 0
0.0008 1.54667 1.79061 0 255 0
0.01087 1.55988 1.79411 0 255 0
0.01349 1.57336 1.79487 0 255 0
0.0065 1.57762 1.79688 0 255 0
0.00245 1.58933 1.79997 0 255 0
0.00189 1.5971 1.80344 0 255 0
0.00623 1.61063 1.81174 0 255 0
0.00261 1.61827 1.81116 0 255 0
-0.02705 1.61908 1.76542 0 255 0
-0.01631 1.63415 1.76852 0 255 0
-0.01743 1.64091 1.76337 0 255 0
-0.02125 1.64671 1.75698 0 255 0
-0.01783 1.66276 1.76375 0 255 0
-0.02044 1.66867 1.76439 0 255 0
-0.02199 1.67634 1.76646 0 255 0
-0.01863 1.69138 1.7665 0 255 0
-0.01964 1.69787 1.76903 0 255 0
-0.0191 1.71401 1.7708 0 255 0
-0.01222 1.73049 1.79334 0 255 0
-0.01125 1.73953 1.79804 0 255 0
-0.01754 1.75091 1.80125 0 255 0
-0.01182 1.76993 1.80844 0 255 0
-0.01648 1.77262 1.80699 0 255 0
-0.01107 1.78909 1.81264 0 255 0
-0.0031 1.79931 1.81563 0 255 0
-8e-05 1.8233 1.82885 0 255 0
0.00468 1.83824 1.82708 0 255 0
-0.01419 1.84036 1.84958 0 255 0
-0.02469 1.35851 1.61321 0 255 0
-0.03864 1.37695 1.61317 0 255 0
-0.03602 1.38392 1.61736 0 255 0
-0.03095 1.39448 1.62902 0 255 0
-0.03584 1.41915 1.64469 0 255 0
-0.03954 1.43408 1.65156 0 255 0
-0.0428 1.44946 1.66251 0 255 0
0.00662 1.51063 1.79705 0 150 0
-0.01518 1.86346 1.85413 0 150 0
-0.02922 1.34244 1.61714 0 150 0
-0.04382 1.46355 1.6751 0 150 0
-0.01538 1.97619 1.89195 0 0 255
0.00662 1.51063 1.79705 150 150 150
-0.01518 1.86346 1.85413 150 150 150
-0.02922 1.34244 1.61714 150 150 150
-0.04382 1.46355 1.6751 150 150 150
-0.0099 1.88751 1.8776 150 150 150
-0.02086 2.06487 1.9063 150 150 150
41 42
43 44
45 46
