ply
format ascii 1.0
comment VCGLIB generated
element vertex 64
property float x
property float y
property float z
property uchar red
property uchar green
property uchar blue
element face 0
property list uchar int vertex_indices
element edge 2
property int vertex1
property int vertex2
end_header
-0.16964 0.26926 1.29353 0 255 0
-0.17028 0.26425 1.27559 0 255 0
-0.17241 0.25592 1.26298 0 255 0
-0.17141 0.24876 1.25567 0 255 0
-0.17109 0.24153 1.24967 0 255 0
-0.17721 0.21112 1.23739 0 255 0
-0.17626 0.20267 1.2365 0 255 0
-0.17827 0.19855 1.24184 0 255 0
-0.17085 0.19328 1.24543 0 255 0
-0.16133 0.19397 1.2365 0 255 0
-0.15511 0.18458 1.23401 0 255 0
-0.14532 0.17555 1.21437 0 255 0
-0.13602 0.1689 1.19974 0 255 0
-0.13554 0.15722 1.19095 0 255 0
-0.12867 0.15046 1.18755 0 255 0
-0.12851 0.14431 1.18605 0 255 0
-0.12951 0.13695 1.18429 0 255 0
-0.11557 0.11897 1.17584 0 255 0
-0.10878 0.11024 1.1679 0 255 0
-0.09969 0.10386 1.15916 0 255 0
-0.10145 0.09595 1.14977 0 255 0
-0.09979 0.08857 1.14403 0 255 0
-0.08732 0.08034 1.13465 0 255 0
-0.0884 0.0739 1.13084 0 255 0
-0.07351 0.06016 1.12915 0 255 0
-0.08133 0.05553 1.1274 0 255 0
-0.06804 0.03929 1.12421 0 255 0
-0.06496 0.03148 1.1189 0 255 0
-0.06753 0.02145 1.12409 0 255 0
-0.05324 0.0167 1.10915 0 255 0
-0.04613 0.00662 1.09921 0 255 0
-0.0391 -0.00404 1.08828 0 255 0
-0.05301 -0.01003 1.1043 0 255 0
-0.03755 -0.01849 1.06182 0 255 0
-0.0103 -0.03179 1.05258 0 255 0
-0.01029 -0.03914 1.05114 0 255 0
-0.01031 -0.05193 1.05306 0 255 0
-0.00421 -0.05209 1.05114 0 255 0
0.00427 -0.06598 1.04826 0 255 0
-0.00361 -0.08025 1.07493 0 255 0
-0.00621 -0.08996 1.07741 0 255 0
0.00303 -0.09529 1.06084 0 255 0
0.01386 -0.1049 1.0281 0 255 0
0.01942 -0.1091 1.01986 0 255 0
0.03174 -0.10861 1.01187 0 255 0
0.03787 -0.1284 1.00796 0 255 0
0.04576 -0.1294 1.00498 0 255 0
0.05283 -0.12938 1.00483 0 255 0
0.05716 -0.13891 0.99822 0 255 0
0.067 -0.13651 1.0052 0 255 0
0.07952 -0.14413 1.00757 0 255 0
0.08741 -0.15989 0.99966 0 255 0
0.09682 -0.15993 0.99995 0 255 0
0.09458 -0.16947 0.96383 0 255 0
0.09406 -0.17714 0.96069 0 255 0
0.09469 -0.18511 0.95657 0 255 0
0.09378 -0.19457 0.95309 0 255 0
-0.1696 0.27581 1.29986 0 150 0
0.10142 -0.19913 0.95051 0 150 0
-0.2487 0.29231 1.27249 0 0 255
-0.1696 0.27581 1.29986 150 150 150
0.10142 -0.19913 0.95051 150 150 150
-0.28629 0.35819 1.32094 150 150 150
-0.21111 0.22644 1.22403 150 150 150
60 61
62 63
