ply
format ascii 1.0
comment VCGLIB generated
element vertex 25
property float x
property float y
property float z
property uchar red
property uchar green
property uchar blue
element face 0
property list uchar int vertex_indices
element edge 3
property int vertex1
property int vertex2
end_header
-0.01611 1.37109 1.6276 0 255 0
-0.02019 1.38495 1.6283 0 255 0
-0.02322 1.39104 1.62917 0 255 0
-0.02668 1.42177 1.65092 0 255 0
-0.03117 1.42471 1.65202 0 255 0
-0.03702 1.45073 1.67678 0 255 0
-0.00265 1.55679 1.77727 0 255 0
-0.00762 1.56341 1.76999 0 255 0
-0.01362 1.57247 1.76304 0 255 0
-0.00281 1.57245 1.77152 0 255 0
-0.01442 1.5988 1.75454 0 255 0
-0.00822 1.60049 1.76504 0 255 0
-0.01286 1.61195 1.76256 0 255 0
-0.0018 1.6405 1.7621 0 255 0
-0.01905 1.36987 1.62546 0 150 0
-0.02791 1.45768 1.67491 0 150 0
-0.00731 1.55035 1.77927 0 150 0
-0.01541 1.64183 1.75835 0 150 0
0.00346 1.97974 1.88486 0 0 255
-0.01905 1.36987 1.62546 150 150 150
-0.02791 1.45768 1.67491 150 150 150
-0.00731 1.55035 1.77927 150 150 150
-0.01541 1.64183 1.75835 150 150 150
0.03922 2.06107 1.87052 150 150 150
-0.0323 1.8984 1.89921 150 150 150
19 20
21 22
23 24
