ply
format ascii 1.0
comment VCGLIB generated
element vertex 28
property float x
property float y
property float z
property uchar red
property uchar green
property uchar blue
element face 0
property list uchar int vertex_indices
element edge 1
property int vertex1
property int vertex2
end_header
-0.44317 0.38409 2.04253 0 255 0
-0.4228 0.38239 2.0335 0 255 0
-0.40764 0.38134 2.04981 0 255 0
-0.39079 0.37687 2.04812 0 255 0
-0.38162 0.40021 1.9999 0 255 0
-0.38767 0.4104 2.01039 0 255 0
-0.35922 0.42273 2.02099 0 255 0
-0.34723 0.40838 2.01039 0 255 0
-0.33221 0.40372 2.01744 0 255 0
-0.33889 0.41663 2.02099 0 255 0
-0.31676 0.43626 2.07571 0 255 0
-0.30507 0.42853 2.07197 0 255 0
-0.28751 0.40452 2.10612 0 255 0
-0.27596 0.40296 2.1315 0 255 0
-0.26937 0.43183 2.06453 0 255 0
-0.26133 0.4106 2.08323 0 255 0
-0.24928 0.42883 2.07011 0 255 0
-0.24533 0.4188 2.07197 0 255 0
-0.22727 0.41741 2.07197 0 255 0
-0.20402 0.40286 2.07571 0 255 0
-0.19324 0.40838 2.07197 0 255 0
-0.17833 0.43053 2.06824 0 255 0
-0.1716 0.42966 2.07073 0 255 0
-0.14825 0.40601 2.11387 0 255 0
-0.45209 0.38408 2.06453 0 150 0
-0.14663 0.42471 2.09081 0 150 0
-0.45209 0.38408 2.06453 150 150 150
-0.14663 0.42471 2.09081 150 150 150
26 27
