ply
format ascii 1.0
comment VCGLIB generated
element vertex 47
property float x
property float y
property float z
property uchar red
property uchar green
property uchar blue
element face 0
property list uchar int vertex_indices
element edge 3
property int vertex1
property int vertex2
end_header
0.15796 -0.26584 1.46412 0 255 0
0.19463 -0.26343 1.46303 0 255 0
0.20424 -0.27625 1.46864 0 255 0
0.21633 -0.28252 1.47052 0 255 0
0.22244 -0.27684 1.47177 0 255 0
0.23478 -0.27595 1.47492 0 255 0
0.24232 -0.27716 1.47871 0 255 0
0.25387 -0.28394 1.48828 0 255 0
0.26224 -0.28282 1.48764 0 255 0
0.27235 -0.26187 1.43833 0 255 0
0.28354 -0.27593 1.44375 0 255 0
0.2904 -0.2776 1.43887 0 255 0
0.29715 -0.27663 1.43236 0 255 0
0.31138 -0.2835 1.44043 0 255 0
0.31779 -0.28266 1.44103 0 255 0
0.32555 -0.2831 1.44329 0 255 0
0.33893 -0.29063 1.44465 0 255 0
0.3454 -0.29118 1.44738 0 255 0
0.36063 -0.29611 1.45012 0 255 0
0.37406 -0.30401 1.47429 0 255 0
0.38235 -0.30684 1.47958 0 255 0
0.39503 -0.30372 1.48252 0 255 0
0.41142 -0.31356 1.4915 0 255 0
0.41539 -0.31015 1.48956 0 255 0
0.42946 -0.31919 1.49684 0 255 0
0.43683 -0.32925 1.50148 0 255 0
0.45869 -0.33707 1.51633 0 255 0
0.47157 -0.34617 1.51608 0 255 0
0.47887 -0.32558 1.53582 0 255 0
0.02468 -0.21137 1.27347 0 255 0
0.04642 -0.20353 1.27253 0 255 0
0.05225 -0.2074 1.27743 0 255 0
0.06069 -0.2135 1.29026 0 255 0
0.0855 -0.21369 1.30646 0 255 0
0.10076 -0.21349 1.31358 0 255 0
0.11628 -0.21323 1.32482 0 255 0
0.1584 -0.25752 1.46817 0 150 0
0.50118 -0.33066 1.54148 0 150 0
0.01061 -0.20183 1.27583 0 150 0
0.12988 -0.21446 1.33792 0 150 0
0.60845 -0.35748 1.5852 0 0 255
0.1584 -0.25752 1.46817 150 150 150
0.50118 -0.33066 1.54148 150 150 150
0.01061 -0.20183 1.27583 150 150 150
0.12988 -0.21446 1.33792 150 150 150
0.52229 -0.3391 1.56678 150 150 150
0.6946 -0.37587 1.60363 150 150 150
41 42
43 44
45 46
