ply
format ascii 1.0
comment VCGLIB generated
element vertex 21
property float x
property float y
property float z
property uchar red
property uchar green
property uchar blue
element face 0
property list uchar int vertex_indices
element edge 1
property int vertex1
property int vertex2
end_header
0.63226 -0.30032 2.21143 0 255 0
0.63955 -0.30506 2.21356 0 255 0
0.64685 -0.31427 2.21569 0 255 0
0.66854 -0.32506 2.22857 0 255 0
0.69183 -0.32308 2.24598 0 255 0
0.69725 -0.31118 2.24161 0 255 0
0.70362 -0.32435 2.25479 0 255 0
0.71042 -0.32435 2.25479 0 255 0
0.7294 -0.31919 2.25038 0 255 0
0.73906 -0.2986 2.24306 0 255 0
0.7459 -0.3159 2.25922 0 255 0
0.75277 -0.30365 2.25259 0 255 0
0.77241 -0.31197 2.26367 0 255 0
0.78072 -0.29714 2.25479 0 255 0
0.79277 -0.2875 2.25038 0 255 0
0.80043 -0.28863 2.25922 0 255 0
0.80009 -0.26281 2.2329 0 255 0
0.61198 -0.31811 2.19455 0 150 0
0.82477 -0.26794 2.26367 0 150 0
0.61198 -0.31811 2.19455 150 150 150
0.82477 -0.26794 2.26367 150 150 150
19 20
