ply
format ascii 1.0
comment VCGLIB generated
element vertex 25
property float x
property float y
property float z
property uchar red
property uchar green
property uchar blue
element face 0
property list uchar int vertex_indices
element edge 1
property int vertex1
property int vertex2
end_header
0.35133 1.59094 1.36263 0 255 0
0.32719 1.59131 1.34592 0 255 0
0.32802 1.59921 1.35349 0 255 0
0.32526 1.60572 1.34938 0 255 0
0.32232 1.62406 1.36991 0 255 0
0.34164 1.64455 1.38152 0 255 0
0.3399 1.67594 1.39038 0 255 0
0.34694 1.69837 1.39671 0 255 0
0.35209 1.70384 1.39783 0 255 0
0.32928 1.72126 1.41765 0 255 0
0.34836 1.73224 1.41461 0 255 0
0.34765 1.7378 1.41904 0 255 0
0.35013 1.77475 1.44084 0 255 0
0.37904 1.78405 1.48404 0 255 0
0.37509 1.79584 1.48347 0 255 0
0.38051 1.79947 1.48389 0 255 0
0.3555 1.81107 1.46544 0 255 0
0.34792 1.83018 1.47039 0 255 0
0.35278 1.83822 1.47577 0 255 0
0.34921 1.84615 1.47846 0 255 0
0.34307 1.85872 1.48059 0 255 0
0.35375 1.58263 1.36296 0 150 0
0.34151 1.88021 1.48256 0 150 0
0.35375 1.58263 1.36296 150 150 150
0.34151 1.88021 1.48256 150 150 150
23 24
