ply
format ascii 1.0
comment VCGLIB generated
element vertex 35
property float x
property float y
property float z
property uchar red
property uchar green
property uchar blue
element face 0
property list uchar int vertex_indices
element edge 1
property int vertex1
property int vertex2
end_header
0.55756 -0.43756 2.01391 0 255 0
0.58953 -0.42192 2.02633 0 255 0
0.58496 -0.41486 2.0317 0 255 0
0.62787 -0.39851 2.0317 0 255 0
0.62566 -0.37268 2.02455 0 255 0
0.64165 -0.3661 2.02574 0 255 0
0.6696 -0.36722 2.02812 0 255 0
0.71068 -0.37402 2.08891 0 255 0
0.71132 -0.36805 2.09081 0 255 0
0.72396 -0.35641 2.12167 0 255 0
0.73618 -0.36361 2.11387 0 255 0
0.75729 -0.34616 2.13744 0 255 0
0.77376 -0.33846 2.12953 0 255 0
0.78018 -0.33203 2.12953 0 255 0
0.78656 -0.31189 2.12363 0 255 0
0.80486 -0.30354 2.13249 0 255 0
0.81533 -0.30317 2.13744 0 255 0
0.83038 -0.29027 2.13744 0 255 0
0.85825 -0.30111 2.15345 0 255 0
0.87346 -0.28156 2.1697 0 255 0
0.8889 -0.27491 2.1862 0 255 0
0.90063 -0.25879 2.19875 0 255 0
0.90821 -0.26221 2.19037 0 255 0
0.89891 -0.25388 2.19455 0 255 0
0.93384 -0.26226 2.20931 0 255 0
0.93116 -0.24821 2.20296 0 255 0
0.94096 -0.22681 2.21037 0 255 0
0.95462 -0.22805 2.20085 0 255 0
0.94445 -0.22384 2.20296 0 255 0
0.94546 -0.21176 2.21569 0 255 0
0.95553 -0.20611 2.20296 0 255 0
0.54433 -0.42818 2.01744 0 150 0
0.94991 -0.20285 2.21569 0 150 0
0.54433 -0.42818 2.01744 150 150 150
0.94991 -0.20285 2.21569 150 150 150
33 34
