ply
format ascii 1.0
comment VCGLIB generated
element vertex 25
property float x
property float y
property float z
property uchar red
property uchar green
property uchar blue
element face 0
property list uchar int vertex_indices
element edge 1
property int vertex1
property int vertex2
end_header
0.06154 1.35263 1.5232 0 255 0
0.07369 1.35521 1.51976 0 255 0
0.07837 1.3893 1.54283 0 255 0
0.08767 1.39834 1.55128 0 255 0
0.09459 1.40246 1.55935 0 255 0
0.10689 1.41619 1.56614 0 255 0
0.10081 1.42631 1.5618 0 255 0
0.08669 1.44961 1.56872 0 255 0
0.08263 1.46506 1.56875 0 255 0
0.08621 1.48436 1.60126 0 255 0
0.0995 1.48931 1.58098 0 255 0
0.09582 1.51144 1.59912 0 255 0
0.09457 1.52826 1.60564 0 255 0
0.08348 1.54647 1.60903 0 255 0
0.07925 1.57646 1.62133 0 255 0
0.08692 1.58465 1.64107 0 255 0
0.08974 1.59442 1.64683 0 255 0
0.0926 1.60213 1.6503 0 255 0
0.08679 1.6192 1.66204 0 255 0
0.08985 1.6296 1.66194 0 255 0
0.10601 1.63918 1.66054 0 255 0
0.05895 1.34691 1.52127 0 150 0
0.11123 1.64943 1.65401 0 150 0
0.05895 1.34691 1.52127 150 150 150
0.11123 1.64943 1.65401 150 150 150
23 24
