ply
format ascii 1.0
comment VCGLIB generated
element vertex 24
property float x
property float y
property float z
property uchar red
property uchar green
property uchar blue
element face 0
property list uchar int vertex_indices
element edge 1
property int vertex1
property int vertex2
end_header
-0.36773 0.24737 1.48189 0 255 0
-0.35971 0.25548 1.48572 0 255 0
-0.35071 0.26988 1.49514 0 255 0
-0.33155 0.28243 1.51408 0 255 0
-0.33255 0.29069 1.5103 0 255 0
-0.31795 0.30461 1.51458 0 255 0
-0.31186 0.30461 1.51458 0 255 0
-0.28987 0.30552 1.51908 0 255 0
-0.28372 0.31918 1.51683 0 255 0
-0.263 0.33281 1.52277 0 255 0
-0.24331 0.32597 1.54355 0 255 0
-0.23929 0.32529 1.5477 0 255 0
-0.2345 0.33388 1.56243 0 255 0
-0.22766 0.33767 1.57053 0 255 0
-0.23714 0.35317 1.55398 0 255 0
-0.24142 0.36038 1.55136 0 255 0
-0.23836 0.37497 1.55687 0 255 0
-0.2282 0.38547 1.56775 0 255 0
-0.22038 0.39251 1.57383 0 255 0
-0.248 0.40305 1.55345 0 255 0
-0.36287 0.26424 1.47429 0 150 0
-0.22454 0.36067 1.57527 0 150 0
-0.36287 0.26424 1.47429 150 150 150
-0.22454 0.36067 1.57527 150 150 150
22 23
