ply
format ascii 1.0
comment VCGLIB generated
element vertex 12
property float x
property float y
property float z
property uchar red
property uchar green
property uchar blue
element face 0
property list uchar int vertex_indices
element edge 1
property int vertex1
property int vertex2
end_header
-0.1711 -0.30474 1.91738 0 255 0
-0.1499 -0.297 1.94248 0 255 0
-0.11591 -0.29018 1.96236 0 255 0
-0.10848 -0.28349 1.97077 0 255 0
-0.0946 -0.28944 1.97077 0 255 0
-0.07261 -0.2709 1.96572 0 255 0
-0.07064 -0.28672 1.96572 0 255 0
-0.06273 -0.27684 1.96572 0 255 0
-0.1658 -0.30677 1.92298 0 150 0
-0.03158 -0.26578 1.99643 0 150 0
-0.1658 -0.30677 1.92298 150 150 150
-0.03158 -0.26578 1.99643 150 150 150
10 11
