ply
format ascii 1.0
comment VCGLIB generated
element vertex 12
property float x
property float y
property float z
property uchar red
property uchar green
property uchar blue
element face 0
property list uchar int vertex_indices
element edge 1
property int vertex1
property int vertex2
end_header
0.084 1.41243 1.57024 0 255 0
0.08668 1.4379 1.59222 0 255 0
0.0916 1.47482 1.60672 0 255 0
0.08866 1.48464 1.61483 0 255 0
0.09712 1.4966 1.61121 0 255 0
0.08274 1.52149 1.60607 0 255 0
0.0982 1.51968 1.60263 0 255 0
0.09038 1.52962 1.60317 0 255 0
0.08829 1.41778 1.57431 0 150 0
0.09319 1.56619 1.62945 0 150 0
0.08829 1.41778 1.57431 150 150 150
0.09319 1.56619 1.62945 150 150 150
10 11
