ply
format ascii 1.0
comment VCGLIB generated
element vertex 43
property float x
property float y
property float z
property uchar red
property uchar green
property uchar blue
element face 0
property list uchar int vertex_indices
element edge 2
property int vertex1
property int vertex2
end_header
0.42266 -0.18985 1.76372 0 255 0
0.43665 -0.18774 1.77735 0 255 0
0.45169 -0.19266 1.77324 0 255 0
0.45953 -0.1876 1.77598 0 255 0
0.4681 -0.18745 1.7746 0 255 0
0.47561 -0.19295 1.77598 0 255 0
0.48689 -0.19281 1.79119 0 255 0
0.50754 -0.17922 1.78148 0 255 0
0.51532 -0.22302 1.80242 0 255 0
0.55029 -0.17798 1.76914 0 255 0
0.54335 -0.23608 1.80527 0 255 0
0.5712 -0.19207 1.76779 0 255 0
0.57786 -0.22267 1.7996 0 255 0
0.58743 -0.21017 1.72664 0 255 0
0.60358 -0.21936 1.70362 0 255 0
0.60538 -0.22517 1.70868 0 255 0
0.61362 -0.22886 1.77735 0 255 0
0.63304 -0.23446 1.71378 0 255 0
0.64694 -0.23216 1.70953 0 255 0
0.65414 -0.22023 1.71038 0 255 0
0.66282 -0.2214 1.70615 0 255 0
0.6817 -0.22655 1.70615 0 255 0
0.67877 -0.25935 1.70742 0 255 0
0.70318 -0.24807 1.7125 0 255 0
0.72726 -0.26117 1.73087 0 255 0
0.21122 -0.11584 1.47618 0 255 0
0.21956 -0.11633 1.48236 0 255 0
0.21474 -0.12061 1.47998 0 255 0
0.24247 -0.10912 1.48572 0 255 0
0.26282 -0.12745 1.50813 0 255 0
0.26245 -0.14471 1.59825 0 255 0
0.29037 -0.15703 1.59272 0 255 0
0.30407 -0.14471 1.58068 0 255 0
0.32565 -0.13638 1.53695 0 255 0
0.33175 -0.14093 1.53942 0 255 0
0.40993 -0.19857 1.76237 0 150 0
0.72964 -0.27392 1.73445 0 150 0
0.21244 -0.09494 1.47429 0 150 0
0.33821 -0.14792 1.54771 0 150 0
0.40993 -0.19857 1.76237 150 150 150
0.72964 -0.27392 1.73445 150 150 150
0.21244 -0.09494 1.47429 150 150 150
0.33821 -0.14792 1.54771 150 150 150
39 40
41 42
