ply
format ascii 1.0
comment VCGLIB generated
element vertex 21
property float x
property float y
property float z
property uchar red
property uchar green
property uchar blue
element face 0
property list uchar int vertex_indices
element edge 1
property int vertex1
property int vertex2
end_header
0.23741 1.02224 2.13715 0 255 0
0.23895 1.02793 2.13246 0 255 0
0.2123 1.03999 2.1454 0 255 0
0.23736 1.06451 2.14761 0 255 0
0.21003 1.06233 2.1508 0 255 0
0.20921 1.08361 2.15409 0 255 0
0.2066 1.1073 2.16328 0 255 0
0.1932 1.10076 2.15699 0 255 0
0.18884 1.11381 2.1587 0 255 0
0.18985 1.13872 2.16878 0 255 0
0.17977 1.15059 2.16928 0 255 0
0.15824 1.16037 2.18023 0 255 0
0.15308 1.15996 2.18152 0 255 0
0.14547 1.14737 2.17063 0 255 0
0.12303 1.15779 2.18637 0 255 0
0.12845 1.17006 2.18939 0 255 0
0.1067 1.17186 2.19414 0 255 0
0.25161 1.01852 2.15221 0 150 0
0.12502 1.19113 2.19054 0 150 0
0.25161 1.01852 2.15221 150 150 150
0.12502 1.19113 2.19054 150 150 150
19 20
