ply
format ascii 1.0
comment VCGLIB generated
element vertex 18
property float x
property float y
property float z
property uchar red
property uchar green
property uchar blue
element face 0
property list uchar int vertex_indices
element edge 1
property int vertex1
property int vertex2
end_header
0.13604 1.72399 1.78629 0 255 0
0.13799 1.73832 1.80987 0 255 0
0.13585 1.74199 1.75648 0 255 0
0.14052 1.75399 1.75376 0 255 0
0.15007 1.77398 1.75929 0 255 0
0.14757 1.78894 1.75368 0 255 0
0.14214 1.80017 1.74929 0 255 0
0.14737 1.81675 1.78843 0 255 0
0.13476 1.8406 1.75826 0 255 0
0.13121 1.87114 1.7508 0 255 0
0.13949 1.8782 1.75634 0 255 0
0.13416 1.90033 1.75042 0 255 0
0.13527 1.93587 1.75389 0 255 0
0.13302 1.95846 1.75782 0 255 0
0.16084 1.71501 1.76883 0 150 0
0.15437 1.9559 1.76816 0 150 0
0.16084 1.71501 1.76883 150 150 150
0.15437 1.9559 1.76816 150 150 150
16 17
