ply
format ascii 1.0
comment VCGLIB generated
element vertex 38
property float x
property float y
property float z
property uchar red
property uchar green
property uchar blue
element face 0
property list uchar int vertex_indices
element edge 1
property int vertex1
property int vertex2
end_header
-0.34537 0.47987 1.48189 0 255 0
-0.32456 0.4741 1.46864 0 255 0
-0.31174 0.47996 1.46396 0 255 0
-0.31171 0.46812 1.45012 0 255 0
-0.29784 0.46549 1.44647 0 255 0
-0.28002 0.4517 1.44239 0 255 0
-0.27032 0.43769 1.44194 0 255 0
-0.26752 0.42418 1.47998 0 255 0
-0.25531 0.41675 1.46963 0 255 0
-0.23759 0.40483 1.44284 0 255 0
-0.23236 0.40655 1.4285 0 255 0
-0.22055 0.40835 1.42643 0 255 0
-0.21328 0.4101 1.42585 0 255 0
-0.20808 0.3969 1.41968 0 255 0
-0.20923 0.3668 1.44738 0 255 0
-0.19932 0.36488 1.4285 0 255 0
-0.19303 0.361 1.42452 0 255 0
-0.1841 0.36183 1.41097 0 255 0
-0.16785 0.35884 1.39387 0 255 0
-0.15765 0.35412 1.40294 0 255 0
-0.15087 0.3427 1.37966 0 255 0
-0.15209 0.33945 1.43028 0 255 0
-0.13679 0.32618 1.36715 0 255 0
-0.13872 0.31709 1.38298 0 255 0
-0.12549 0.30623 1.3905 0 255 0
-0.12344 0.29965 1.39901 0 255 0
-0.10951 0.29803 1.36573 0 255 0
-0.10252 0.29493 1.36411 0 255 0
-0.08729 0.29852 1.3617 0 255 0
-0.07341 0.29046 1.34843 0 255 0
-0.05328 0.28424 1.33327 0 255 0
-0.04744 0.28014 1.32026 0 255 0
-0.0385 0.27861 1.31723 0 255 0
-0.03089 0.28188 1.32217 0 255 0
-0.35406 0.48225 1.4746 0 150 0
-0.0207 0.26041 1.30824 0 150 0
-0.35406 0.48225 1.4746 150 150 150
-0.0207 0.26041 1.30824 150 150 150
36 37
