ply
format ascii 1.0
comment VCGLIB generated
element vertex 28
property float x
property float y
property float z
property uchar red
property uchar green
property uchar blue
element face 0
property list uchar int vertex_indices
element edge 1
property int vertex1
property int vertex2
end_header
0.2347 0.26992 1.36249 0 255 0
0.25609 0.27011 1.36695 0 255 0
0.26835 0.26933 1.39134 0 255 0
0.29091 0.26953 1.54045 0 255 0
0.29673 0.26835 1.54251 0 255 0
0.31002 0.26153 1.4058 0 255 0
0.31905 0.26231 1.4768 0 255 0
0.32541 0.27388 1.53873 0 255 0
0.33307 0.27382 1.53839 0 255 0
0.36032 0.27104 1.53582 0 255 0
0.36711 0.27382 1.53839 0 255 0
0.3744 0.25559 1.53813 0 255 0
0.38389 0.25612 1.52512 0 255 0
0.38797 0.25782 1.51708 0 255 0
0.40207 0.24717 1.52042 0 255 0
0.42311 0.24806 1.52277 0 255 0
0.43058 0.24795 1.5221 0 255 0
0.44383 0.24681 1.51508 0 255 0
0.46446 0.2483 1.52109 0 255 0
0.47396 0.24432 1.50912 0 255 0
0.47994 0.24818 1.4838 0 255 0
0.49277 0.23888 1.48754 0 255 0
0.49987 0.23509 1.48908 0 255 0
0.51465 0.23453 1.49505 0 255 0
0.22632 0.25492 1.36618 0 150 0
0.52183 0.24189 1.49408 0 150 0
0.22632 0.25492 1.36618 150 150 150
0.52183 0.24189 1.49408 150 150 150
26 27
