ply
format ascii 1.0
comment VCGLIB generated
element vertex 55
property float x
property float y
property float z
property uchar red
property uchar green
property uchar blue
element face 0
property list uchar int vertex_indices
element edge 1
property int vertex1
property int vertex2
end_header
-0.27425 0.20655 1.27583 0 255 0
-0.27106 0.19864 1.27772 0 255 0
-0.26657 0.19079 1.26842 0 255 0
-0.26645 0.18595 1.27535 0 255 0
-0.26709 0.17332 1.23147 0 255 0
-0.25676 0.15698 1.21559 0 255 0
-0.26288 0.14972 1.21302 0 255 0
-0.26621 0.14269 1.21288 0 255 0
-0.2631 0.13656 1.21259 0 255 0
-0.27038 0.13045 1.21245 0 255 0
-0.26291 0.10843 1.21174 0 255 0
-0.2489 0.09404 1.21473 0 255 0
-0.25111 0.08092 1.21007 0 255 0
-0.24812 0.0744 1.20756 0 255 0
-0.26204 0.06313 1.20771 0 255 0
-0.249 0.04541 1.19952 0 255 0
-0.25214 0.03724 1.19537 0 255 0
-0.2484 0.02535 1.1875 0 255 0
-0.23617 0.01115 1.16983 0 255 0
-0.23381 0.01008 1.16864 0 255 0
-0.22693 0.00781 1.17565 0 255 0
-0.22469 -0.01763 1.15852 0 255 0
-0.21932 -0.02389 1.15179 0 255 0
-0.22706 -0.04185 1.14022 0 255 0
-0.21945 -0.04557 1.13211 0 255 0
-0.22017 -0.05344 1.12998 0 255 0
-0.20794 -0.06428 1.12482 0 255 0
-0.21949 -0.07347 1.12356 0 255 0
-0.21421 -0.08019 1.10922 0 255 0
-0.21149 -0.08827 1.09675 0 255 0
-0.22069 -0.09538 1.11537 0 255 0
-0.21441 -0.10738 1.10042 0 255 0
-0.1981 -0.11557 1.08383 0 255 0
-0.20529 -0.1296 1.07745 0 255 0
-0.17704 -0.13652 1.08078 0 255 0
-0.19121 -0.14312 1.06972 0 255 0
-0.18564 -0.15049 1.0686 0 255 0
-0.18574 -0.15765 1.06746 0 255 0
-0.17723 -0.16692 1.05693 0 255 0
-0.17897 -0.18772 1.04842 0 255 0
-0.18957 -0.19411 1.04874 0 255 0
-0.17064 -0.2072 1.03657 0 255 0
-0.16447 -0.21294 1.03084 0 255 0
-0.15907 -0.22517 1.02217 0 255 0
-0.15623 -0.23605 1.00718 0 255 0
-0.16002 -0.23844 1.00872 0 255 0
-0.15203 -0.24816 1.00289 0 255 0
-0.1573 -0.25558 1.00432 0 255 0
-0.14331 -0.26924 0.9914 0 255 0
-0.14607 -0.28183 0.98314 0 255 0
-0.14063 -0.29259 0.97288 0 255 0
-0.27791 0.14592 1.273 0 150 0
-0.1505 -0.22627 0.97593 0 150 0
-0.27791 0.14592 1.273 150 150 150
-0.1505 -0.22627 0.97593 150 150 150
53 54
