ply
format ascii 1.0
comment VCGLIB generated
element vertex 37
property float x
property float y
property float z
property uchar red
property uchar green
property uchar blue
element face 0
property list uchar int vertex_indices
element edge 2
property int vertex1
property int vertex2
end_header
0.23201 -0.12327 1.47618 0 255 0
0.25034 -0.14129 1.60048 0 255 0
0.25637 -0.14492 1.60048 0 255 0
0.27162 -0.13883 1.58613 0 255 0
0.29084 -0.13444 1.53599 0 255 0
0.30274 -0.13802 1.54148 0 255 0
0.32339 -0.13077 1.52918 0 255 0
0.33175 -0.14093 1.53942 0 255 0
0.33619 -0.14772 1.54562 0 255 0
0.43793 -0.19288 1.77529 0 255 0
0.45883 -0.19979 1.77324 0 255 0
0.48689 -0.19641 1.79119 0 255 0
0.49525 -0.20068 1.80526 0 255 0
0.4959 -0.20768 1.81093 0 255 0
0.53937 -0.22916 1.82241 0 255 0
0.56355 -0.18744 1.76609 0 255 0
0.57816 -0.23511 1.80242 0 255 0
0.59695 -0.24009 1.80809 0 255 0
0.61146 -0.2354 1.78148 0 255 0
0.62911 -0.24245 1.72664 0 255 0
0.63408 -0.24941 1.71942 0 255 0
0.65226 -0.24942 1.70995 0 255 0
0.66854 -0.25344 1.70615 0 255 0
0.6739 -0.26701 1.7125 0 255 0
0.6905 -0.26196 1.70953 0 255 0
0.69577 -0.25476 1.71123 0 255 0
0.71153 -0.2561 1.72019 0 255 0
0.71833 -0.25841 1.72405 0 255 0
0.72288 -0.25532 1.72664 0 255 0
0.2123 -0.11713 1.47334 0 150 0
0.35308 -0.148 1.55154 0 150 0
0.41798 -0.17224 1.76643 0 150 0
0.73249 -0.27485 1.73707 0 150 0
0.2123 -0.11713 1.47334 150 150 150
0.35308 -0.148 1.55154 150 150 150
0.41798 -0.17224 1.76643 150 150 150
0.73249 -0.27485 1.73707 150 150 150
33 34
35 36
