ply
format ascii 1.0
comment VCGLIB generated
element vertex 23
property float x
property float y
property float z
property uchar red
property uchar green
property uchar blue
element face 0
property list uchar int vertex_indices
element edge 1
property int vertex1
property int vertex2
end_header
0.0598 1.73077 1.76904 0 255 0
0.0938 1.7498 1.82815 0 255 0
0.06737 1.75749 1.77132 0 255 0
0.04664 1.74408 1.73927 0 255 0
0.06886 1.79457 1.84873 0 255 0
0.07541 1.80614 1.83388 0 255 0
0.07595 1.83141 1.81903 0 255 0
0.06704 1.85216 1.81879 0 255 0
0.06955 1.85792 1.8136 0 255 0
0.07646 1.87127 1.81418 0 255 0
0.07261 1.88117 1.81396 0 255 0
0.09442 1.88874 1.81153 0 255 0
0.08277 1.9119 1.80392 0 255 0
0.08558 1.94702 1.79905 0 255 0
0.08498 1.96184 1.79745 0 255 0
0.08792 1.9762 1.7989 0 255 0
0.09137 2.0059 1.80624 0 255 0
0.09564 2.00958 1.80868 0 255 0
0.07381 2.03208 1.82334 0 255 0
0.08091 1.72221 1.80766 0 150 0
0.08211 2.04472 1.83584 0 150 0
0.08091 1.72221 1.80766 150 150 150
0.08211 2.04472 1.83584 150 150 150
21 22
