ply
format ascii 1.0
comment VCGLIB generated
element vertex 62
property float x
property float y
property float z
property uchar red
property uchar green
property uchar blue
element face 0
property list uchar int vertex_indices
element edge 2
property int vertex1
property int vertex2
end_header
-0.18922 0.28145 1.26926 0 255 0
-0.18645 0.27681 1.26996 0 255 0
-0.17866 0.25769 1.2623 0 255 0
-0.1838 0.25095 1.25403 0 255 0
-0.18108 0.24564 1.25266 0 255 0
-0.17785 0.23462 1.24768 0 255 0
-0.1826 0.22551 1.24588 0 255 0
-0.18404 0.21434 1.24285 0 255 0
-0.17143 0.20659 1.23761 0 255 0
-0.17123 0.20085 1.24065 0 255 0
-0.17137 0.18443 1.25013 0 255 0
-0.16542 0.17954 1.24858 0 255 0
-0.15783 0.17419 1.22857 0 255 0
-0.15061 0.15815 1.20057 0 255 0
-0.13678 0.16408 1.1932 0 255 0
-0.13957 0.15481 1.18888 0 255 0
-0.14052 0.14439 1.18673 0 255 0
-0.14708 0.13594 1.19642 0 255 0
-0.12548 0.12797 1.18159 0 255 0
-0.12861 0.12237 1.18155 0 255 0
-0.10728 0.10874 1.16598 0 255 0
-0.09979 0.08857 1.14403 0 255 0
-0.09415 0.09098 1.14537 0 255 0
-0.09453 0.08224 1.13612 0 255 0
-0.08472 0.06715 1.13031 0 255 0
-0.08046 0.07391 1.13109 0 255 0
-0.07325 0.06681 1.12991 0 255 0
-0.07116 0.04875 1.12795 0 255 0
-0.06804 0.03929 1.12421 0 255 0
-0.0685 0.03114 1.12409 0 255 0
-0.05998 0.0252 1.11263 0 255 0
-0.05324 0.0167 1.10915 0 255 0
-0.04599 0.00328 1.09577 0 255 0
-0.03883 -0.00764 1.08078 0 255 0
-0.02827 -0.01294 1.06308 0 255 0
-0.02729 -0.02301 1.0546 0 255 0
-0.03585 -0.02873 1.05693 0 255 0
-0.03134 -0.03824 1.05529 0 255 0
-0.02632 -0.04687 1.05839 0 255 0
-0.00394 -0.05922 1.05098 0 255 0
-0.00527 -0.07405 1.07558 0 255 0
0.00029 -0.08042 1.06575 0 255 0
0.00364 -0.08775 1.06182 0 255 0
0.01204 -0.101 1.03149 0 255 0
0.01757 -0.10859 1.02155 0 255 0
0.02682 -0.11742 1.01495 0 255 0
0.0368 -0.11568 1.00872 0 255 0
0.04579 -0.12242 1.00571 0 255 0
0.04569 -0.13627 1.00344 0 255 0
0.06173 -0.14006 1.00169 0 255 0
0.05918 -0.15116 0.98361 0 255 0
0.0661 -0.16411 0.97694 0 255 0
0.07396 -0.16779 0.96418 0 255 0
0.08047 -0.17472 0.96108 0 255 0
0.09471 -0.18026 0.95829 0 255 0
-0.18705 0.2349 1.27126 0 150 0
0.10211 -0.20646 0.95142 0 150 0
-0.25548 0.31214 1.27348 0 0 255
-0.18705 0.2349 1.27126 150 150 150
0.10211 -0.20646 0.95142 150 150 150
-0.29766 0.37652 1.32014 150 150 150
-0.2133 0.24777 1.22683 150 150 150
58 59
60 61
