ply
format ascii 1.0
comment VCGLIB generated
element vertex 38
property float x
property float y
property float z
property uchar red
property uchar green
property uchar blue
element face 0
property list uchar int vertex_indices
element edge 1
property int vertex1
property int vertex2
end_header
0.44781 0.38708 1.99397 0 255 0
0.46218 0.39809 1.97624 0 255 0
0.46318 0.41047 1.96812 0 255 0
0.47232 0.40109 1.95546 0 255 0
0.48126 0.41034 1.94857 0 255 0
0.50175 0.41713 1.94094 0 255 0
0.51866 0.418 1.93889 0 255 0
0.53465 0.42302 1.97572 0 255 0
0.54636 0.4268 1.96307 0 255 0
0.56344 0.42878 1.93344 0 255 0
0.56346 0.43039 1.91816 0 255 0
0.56766 0.44056 1.91305 0 255 0
0.56974 0.4473 1.91053 0 255 0
0.58325 0.44343 1.90406 0 255 0
0.61078 0.43426 1.93292 0 255 0
0.61593 0.43678 1.9123 0 255 0
0.62211 0.43904 1.90709 0 255 0
0.62482 0.44346 1.89169 0 255 0
0.6342 0.45114 1.87123 0 255 0
0.64408 0.45947 1.87768 0 255 0
0.65552 0.45351 1.85418 0 255 0
0.66164 0.46351 1.90355 0 255 0
0.67584 0.45374 1.83953 0 255 0
0.68394 0.45152 1.85585 0 255 0
0.70051 0.45889 1.8604 0 255 0
0.70787 0.4594 1.8685 0 255 0
0.71365 0.46179 1.83293 0 255 0
0.7197 0.46562 1.82978 0 255 0
0.72404 0.47943 1.82336 0 255 0
0.73691 0.48354 1.80752 0 255 0
0.75117 0.49329 1.78813 0 255 0
0.75662 0.4928 1.77434 0 255 0
0.76218 0.49868 1.76924 0 255 0
0.76356 0.50786 1.77187 0 255 0
0.44085 0.37928 1.98901 0 150 0
0.78609 0.50201 1.75714 0 150 0
0.44085 0.37928 1.98901 150 150 150
0.78609 0.50201 1.75714 150 150 150
36 37
