ply
format ascii 1.0
comment VCGLIB generated
element vertex 25
property float x
property float y
property float z
property uchar red
property uchar green
property uchar blue
element face 0
property list uchar int vertex_indices
element edge 1
property int vertex1
property int vertex2
end_header
0.55439 -0.42969 2.02455 0 255 0
0.57146 -0.42265 2.0201 0 255 0
0.59298 -0.39838 2.01039 0 255 0
0.60405 -0.37548 2.00688 0 255 0
0.63961 -0.36317 2.03984 0 255 0
0.64838 -0.36966 2.01922 0 255 0
0.66732 -0.35196 2.04616 0 255 0
0.67606 -0.36237 2.0353 0 255 0
0.69262 -0.35391 2.07572 0 255 0
0.71068 -0.37402 2.08891 0 255 0
0.71522 -0.36161 2.10227 0 255 0
0.72878 -0.35345 2.12953 0 255 0
0.74454 -0.3528 2.12559 0 255 0
0.75299 -0.34616 2.13744 0 255 0
0.7473 -0.33908 2.13348 0 255 0
0.77734 -0.34552 2.13348 0 255 0
0.77878 -0.35046 2.13744 0 255 0
0.75915 -0.32486 2.12461 0 255 0
0.80028 -0.31822 2.13744 0 255 0
0.81596 -0.29617 2.13348 0 255 0
0.829 -0.30345 2.13943 0 255 0
0.53444 -0.42528 1.99067 0 150 0
0.83683 -0.29952 2.13744 0 150 0
0.53444 -0.42528 1.99067 150 150 150
0.83683 -0.29952 2.13744 150 150 150
23 24
