ply
format ascii 1.0
comment VCGLIB generated
element vertex 30
property float x
property float y
property float z
property uchar red
property uchar green
property uchar blue
element face 0
property list uchar int vertex_indices
element edge 1
property int vertex1
property int vertex2
end_header
0.02792 1.71395 1.95892 0 255 0
0.01377 1.72456 1.92994 0 255 0
0.0103 1.73491 1.89292 0 255 0
0.00669 1.73982 1.8813 0 255 0
0.00708 1.76133 1.87783 0 255 0
0.00266 1.76187 1.87113 0 255 0
0.02 1.80452 1.85972 0 255 0
0.00618 1.80728 1.8361 0 255 0
0.03568 1.84098 1.96907 0 255 0
0.03003 1.8516 1.95387 0 255 0
0.02843 1.86259 1.93346 0 255 0
0.00325 1.86931 1.87787 0 255 0
0.0175 1.88477 1.86357 0 255 0
0.0017 1.891 1.8789 0 255 0
0.01371 1.8994 1.8663 0 255 0
0.02832 1.90831 1.86885 0 255 0
0.02695 1.9204 1.86335 0 255 0
0.03395 1.94683 1.84934 0 255 0
0.02669 1.98225 1.84979 0 255 0
0.029 1.98994 1.85193 0 255 0
0.03247 1.99889 1.85491 0 255 0
0.0296 2.01451 1.86399 0 255 0
0.03744 2.02733 1.87204 0 255 0
0.03941 2.03147 1.87495 0 255 0
0.03622 2.04168 1.87835 0 255 0
0.05235 2.05115 1.88624 0 255 0
0.03573 1.70944 1.96382 0 150 0
0.05235 2.05836 1.89209 0 150 0
0.03573 1.70944 1.96382 150 150 150
0.05235 2.05836 1.89209 150 150 150
28 29
