ply
format ascii 1.0
comment VCGLIB generated
element vertex 54
property float x
property float y
property float z
property uchar red
property uchar green
property uchar blue
element face 0
property list uchar int vertex_indices
element edge 1
property int vertex1
property int vertex2
end_header
-0.27533 0.18416 1.24588 0 255 0
-0.2749 0.17207 1.2355 0 255 0
-0.27456 0.16961 1.2312 0 255 0
-0.2643 0.16046 1.21816 0 255 0
-0.26592 0.15001 1.21409 0 255 0
-0.27587 0.14296 1.21516 0 255 0
-0.27046 0.13658 1.21281 0 255 0
-0.2631 0.12314 1.21259 0 255 0
-0.27741 0.10881 1.21254 0 255 0
-0.25596 0.10858 1.21345 0 255 0
-0.25573 0.08685 1.21238 0 255 0
-0.25804 0.0804 1.21174 0 255 0
-0.25486 0.06703 1.20682 0 255 0
-0.25 0.06013 1.20434 0 255 0
-0.24639 0.04329 1.19661 0 255 0
-0.24173 0.03652 1.19145 0 255 0
-0.24119 0.03105 1.18878 0 255 0
-0.242 0.02597 1.18576 0 255 0
-0.24302 0.01777 1.18024 0 255 0
-0.24276 0.004 1.18016 0 255 0
-0.24734 -0.00361 1.18388 0 255 0
-0.23377 -0.01058 1.16568 0 255 0
-0.2262 -0.01897 1.15302 0 255 0
-0.21932 -0.02389 1.15179 0 255 0
-0.22023 -0.03724 1.13496 0 255 0
-0.21452 -0.03829 1.13756 0 255 0
-0.21393 -0.04625 1.13183 0 255 0
-0.23232 -0.0669 1.13659 0 255 0
-0.20775 -0.07968 1.11017 0 255 0
-0.21159 -0.09163 1.09727 0 255 0
-0.20223 -0.10129 1.0944 0 255 0
-0.19828 -0.10805 1.08485 0 255 0
-0.2018 -0.11426 1.09206 0 255 0
-0.20529 -0.1296 1.07745 0 255 0
-0.18575 -0.14305 1.06922 0 255 0
-0.19723 -0.15438 1.07321 0 255 0
-0.17558 -0.15093 1.07942 0 255 0
-0.17282 -0.16677 1.05596 0 255 0
-0.18606 -0.18532 1.05274 0 255 0
-0.17393 -0.19629 1.04351 0 255 0
-0.17126 -0.19927 1.04119 0 255 0
-0.16944 -0.20827 1.03529 0 255 0
-0.15775 -0.22014 1.02406 0 255 0
-0.15559 -0.22557 1.02027 0 255 0
-0.15045 -0.23514 1.00576 0 255 0
-0.15203 -0.24816 1.00289 0 255 0
-0.14866 -0.24858 1.00053 0 255 0
-0.14408 -0.26058 0.99476 0 255 0
-0.16383 -0.27563 1.00376 0 255 0
-0.14896 -0.28854 0.9892 0 255 0
-0.26618 0.19108 1.27819 0 150 0
-0.13709 -0.29176 0.97272 0 150 0
-0.26618 0.19108 1.27819 150 150 150
-0.13709 -0.29176 0.97272 150 150 150
52 53
