ply
format ascii 1.0
comment VCGLIB generated
element vertex 22
property float x
property float y
property float z
property uchar red
property uchar green
property uchar blue
element face 0
property list uchar int vertex_indices
element edge 2
property int vertex1
property int vertex2
end_header
-0.06685 1.38597 1.6258 0 255 0
-0.06187 1.39666 1.63692 0 255 0
-0.05969 1.41232 1.64 0 255 0
-0.06734 1.42878 1.6492 0 255 0
-0.06896 1.44387 1.66334 0 255 0
-0.07899 1.46664 1.68455 0 255 0
-0.0771 1.48835 1.68532 0 255 0
-0.06871 1.48647 1.68222 0 255 0
0.00477 1.4962 1.8026 0 255 0
0.00786 1.51804 1.79882 0 255 0
-0.00144 1.53432 1.7948 0 255 0
0.00375 1.56219 1.78934 0 255 0
-0.01032 1.56262 1.78622 0 255 0
-0.02341 1.58879 1.78648 0 255 0
-0.07356 1.37791 1.62365 0 150 0
-0.07214 1.50749 1.69452 0 150 0
0.0161 1.47699 1.80589 0 150 0
-0.03062 1.5989 1.76763 0 150 0
-0.07356 1.37791 1.62365 150 150 150
-0.07214 1.50749 1.69452 150 150 150
0.0161 1.47699 1.80589 150 150 150
-0.03062 1.5989 1.76763 150 150 150
18 19
20 21
