ply
format ascii 1.0
comment VCGLIB generated
element vertex 64
property float x
property float y
property float z
property uchar red
property uchar green
property uchar blue
element face 0
property list uchar int vertex_indices
element edge 2
property int vertex1
property int vertex2
end_header
0.3892 0.33769 2.07524 0 255 0
0.39435 0.33132 2.0585 0 255 0
0.40225 0.32422 2.04754 0 255 0
0.40962 0.3217 2.04083 0 255 0
0.41685 0.31886 2.03555 0 255 0
0.44531 0.3033 2.02771 0 255 0
0.45377 0.30214 2.0273 0 255 0
0.45719 0.30075 2.0333 0 255 0
0.46394 0.30752 2.03534 0 255 0
0.46568 0.31429 2.0243 0 255 0
0.4763 0.31745 2.02112 0 255 0
0.4878 0.31958 2.00047 0 255 0
0.49675 0.32306 1.98458 0 255 0
0.50842 0.31869 1.97693 0 255 0
0.51667 0.3228 1.9725 0 255 0
0.52272 0.32123 1.97152 0 255 0
0.52969 0.31823 1.97067 0 255 0
0.55059 0.32523 1.96052 0 255 0
0.56083 0.32766 1.95188 0 255 0
0.56934 0.33254 1.9417 0 255 0
0.57684 0.32672 1.93372 0 255 0
0.58454 0.32518 1.92838 0 255 0
0.59563 0.33268 1.9169 0 255 0
0.60174 0.32927 1.91402 0 255 0
0.61858 0.33986 1.9098 0 255 0
0.62132 0.33103 1.91044 0 255 0
0.64025 0.33919 1.90539 0 255 0
0.64868 0.339 1.90013 0 255 0
0.65773 0.33577 1.9066 0 255 0
0.66599 0.34427 1.88902 0 255 0
0.67767 0.34618 1.87849 0 255 0
0.68991 0.34762 1.86706 0 255 0
0.69215 0.33743 1.88647 0 255 0
0.70493 0.33905 1.84232 0 255 0
0.72437 0.35939 1.82771 0 255 0
0.73156 0.35743 1.82692 0 255 0
0.74395 0.35514 1.82983 0 255 0
0.74556 0.36033 1.82647 0 255 0
0.76109 0.36454 1.82272 0 255 0
0.77254 0.361 1.85158 0 255 0
0.78133 0.35709 1.85542 0 255 0
0.78903 0.3603 1.83756 0 255 0
0.80163 0.35986 1.80406 0 255 0
0.80718 0.36203 1.79506 0 255 0
0.80973 0.37164 1.78425 0 255 0
0.83049 0.3721 1.78057 0 255 0
0.83335 0.37852 1.77581 0 255 0
0.83497 0.38513 1.77391 0 255 0
0.84539 0.38542 1.76723 0 255 0
0.84516 0.39701 1.77132 0 255 0
0.85541 0.40776 1.77112 0 255 0
0.87274 0.4097 1.76282 0 255 0
0.87495 0.41861 1.76076 0 255 0
0.88454 0.40501 1.72723 0 255 0
0.89195 0.40204 1.72496 0 255 0
0.89995 0.39983 1.72148 0 255 0
0.90902 0.39601 1.71913 0 255 0
0.3827 0.3408 2.0808 0 150 0
0.91528 0.40153 1.71511 0 150 0
0.34902 0.26283 2.07272 0 0 255
0.3827 0.3408 2.0808 150 150 150
0.91528 0.40153 1.71511 150 150 150
0.27516 0.2544 2.12345 150 150 150
0.42289 0.27125 2.022 150 150 150
60 61
62 63
