ply
format ascii 1.0
comment VCGLIB generated
element vertex 19
property float x
property float y
property float z
property uchar red
property uchar green
property uchar blue
element face 0
property list uchar int vertex_indices
element edge 1
property int vertex1
property int vertex2
end_header
-0.39479 -0.29735 1.70868 0 255 0
-0.38893 -0.28348 1.71314 0 255 0
-0.36749 -0.29027 1.71762 0 255 0
-0.36058 -0.29026 1.71762 0 255 0
-0.34337 -0.27269 1.72664 0 255 0
-0.32448 -0.27084 1.73707 0 255 0
-0.30655 -0.25997 1.73445 0 255 0
-0.31108 -0.25416 1.73054 0 255 0
-0.294 -0.22657 1.7325 0 255 0
-0.27032 -0.24114 1.73707 0 255 0
-0.25417 -0.24674 1.75834 0 255 0
-0.22713 -0.23541 1.77735 0 255 0
-0.23314 -0.22833 1.77324 0 255 0
-0.23795 -0.21357 1.76914 0 255 0
-0.2431 -0.20629 1.76779 0 255 0
-0.41606 -0.29732 1.70194 0 150 0
-0.21265 -0.18631 1.78079 0 150 0
-0.41606 -0.29732 1.70194 150 150 150
-0.21265 -0.18631 1.78079 150 150 150
17 18
