ply
format ascii 1.0
comment VCGLIB generated
element vertex 37
property float x
property float y
property float z
property uchar red
property uchar green
property uchar blue
element face 0
property list uchar int vertex_indices
element edge 1
property int vertex1
property int vertex2
end_header
0.45093 0.39847 1.98748 0 255 0
0.45897 0.40988 1.97345 0 255 0
0.4754 0.3992 1.95382 0 255 0
0.47793 0.40585 1.95142 0 255 0
0.49674 0.40799 1.94568 0 255 0
0.50602 0.41005 1.93978 0 255 0
0.5221 0.4098 1.9412 0 255 0
0.53245 0.42072 1.9547 0 255 0
0.54557 0.42707 1.96115 0 255 0
0.55721 0.42476 1.95591 0 255 0
0.56631 0.42751 1.9373 0 255 0
0.57444 0.42779 1.92517 0 255 0
0.59046 0.43739 1.91602 0 255 0
0.60439 0.44758 1.90493 0 255 0
0.6249 0.44177 1.90296 0 255 0
0.62482 0.44346 1.89169 0 255 0
0.63081 0.44925 1.8755 0 255 0
0.6342 0.45114 1.87123 0 255 0
0.64408 0.45947 1.87768 0 255 0
0.64535 0.44665 1.86835 0 255 0
0.66311 0.44542 1.84291 0 255 0
0.6821 0.4521 1.84135 0 255 0
0.69085 0.4518 1.85608 0 255 0
0.69636 0.46093 1.8356 0 255 0
0.70543 0.46319 1.83155 0 255 0
0.71088 0.47013 1.82876 0 255 0
0.72302 0.47375 1.82909 0 255 0
0.72091 0.47909 1.82787 0 255 0
0.73691 0.48354 1.80752 0 255 0
0.74533 0.47991 1.80207 0 255 0
0.74966 0.48535 1.78473 0 255 0
0.75435 0.48634 1.78092 0 255 0
0.75733 0.49626 1.77582 0 255 0
0.44123 0.3896 1.98728 0 150 0
0.76548 0.49611 1.76808 0 150 0
0.44123 0.3896 1.98728 150 150 150
0.76548 0.49611 1.76808 150 150 150
35 36
