ply
format ascii 1.0
comment VCGLIB generated
element vertex 55
property float x
property float y
property float z
property uchar red
property uchar green
property uchar blue
element face 0
property list uchar int vertex_indices
element edge 1
property int vertex1
property int vertex2
end_header
-0.27646 0.21489 1.27658 0 255 0
-0.2845 0.20004 1.26437 0 255 0
-0.27515 0.19421 1.26229 0 255 0
-0.26245 0.17986 1.25249 0 255 0
-0.27376 0.17113 1.23319 0 255 0
-0.2626 0.16461 1.22162 0 255 0
-0.26496 0.15628 1.2161 0 255 0
-0.26288 0.14972 1.21302 0 255 0
-0.2631 0.13046 1.21259 0 255 0
-0.2631 0.12314 1.21259 0 255 0
-0.27022 0.10843 1.21174 0 255 0
-0.25034 0.10146 1.2158 0 255 0
-0.25573 0.08685 1.21238 0 255 0
-0.25491 0.07411 1.20849 0 255 0
-0.25486 0.06703 1.20682 0 255 0
-0.26196 0.05947 1.20736 0 255 0
-0.25571 0.05258 1.20539 0 255 0
-0.2477 0.04435 1.19807 0 255 0
-0.25686 0.03413 1.19869 0 255 0
-0.24119 0.03105 1.18878 0 255 0
-0.23807 0.02239 1.17341 0 255 0
-0.24269 0.01064 1.17863 0 255 0
-0.22982 0.00232 1.16746 0 255 0
-0.23377 -0.01058 1.16568 0 255 0
-0.22015 -0.01762 1.16601 0 255 0
-0.22023 -0.03724 1.13496 0 255 0
-0.21309 -0.04225 1.13463 0 255 0
-0.21986 -0.06018 1.12838 0 255 0
-0.21238 -0.06678 1.12482 0 255 0
-0.20775 -0.07968 1.11017 0 255 0
-0.20653 -0.08436 1.09978 0 255 0
-0.21321 -0.09422 1.10184 0 255 0
-0.2125 -0.09978 1.10201 0 255 0
-0.20574 -0.11682 1.08873 0 255 0
-0.20693 -0.12697 1.07875 0 255 0
-0.19049 -0.13633 1.07051 0 255 0
-0.19391 -0.14352 1.07271 0 255 0
-0.19723 -0.15438 1.07321 0 255 0
-0.19277 -0.16198 1.06641 0 255 0
-0.19991 -0.17162 1.06103 0 255 0
-0.1663 -0.17925 1.05087 0 255 0
-0.17742 -0.20141 1.0418 0 255 0
-0.16944 -0.20827 1.03529 0 255 0
-0.1717 -0.2136 1.03384 0 255 0
-0.15995 -0.22881 1.01949 0 255 0
-0.16057 -0.23512 1.01221 0 255 0
-0.14942 -0.2552 0.99887 0 255 0
-0.15176 -0.27549 0.99779 0 255 0
-0.14377 -0.27655 0.98316 0 255 0
-0.14607 -0.28183 0.98314 0 255 0
-0.13281 -0.29259 0.97288 0 255 0
-0.28413 0.22072 1.27086 0 150 0
-0.13626 -0.29745 0.9696 0 150 0
-0.28413 0.22072 1.27086 150 150 150
-0.13626 -0.29745 0.9696 150 150 150
53 54
