ply
format ascii 1.0
comment VCGLIB generated
element vertex 55
property float x
property float y
property float z
property uchar red
property uchar green
property uchar blue
element face 0
property list uchar int vertex_indices
element edge 1
property int vertex1
property int vertex2
end_header
-0.28294 0.22125 1.27287 0 255 0
-0.27405 0.20127 1.27488 0 255 0
-0.26437 0.18501 1.27772 0 255 0
-0.26972 0.1629 1.22421 0 255 0
-0.2731 0.16132 1.22465 0 255 0
-0.26895 0.15029 1.21516 0 255 0
-0.26938 0.14276 1.21345 0 255 0
-0.27668 0.13664 1.21334 0 255 0
-0.27038 0.13045 1.21245 0 255 0
-0.25605 0.11595 1.21388 0 255 0
-0.2631 0.09387 1.21259 0 255 0
-0.24838 0.08683 1.21222 0 255 0
-0.24055 0.08107 1.2127 0 255 0
-0.24205 0.06662 1.20497 0 255 0
-0.24115 0.05189 1.2005 0 255 0
-0.24204 0.04301 1.19537 0 255 0
-0.24194 0.03835 1.19248 0 255 0
-0.24119 0.03105 1.18878 0 255 0
-0.24085 0.02373 1.18125 0 255 0
-0.23556 0.0144 1.1709 0 255 0
-0.23743 0.0035 1.17023 0 255 0
-0.22518 -0.00199 1.17182 0 255 0
-0.23377 -0.01058 1.16568 0 255 0
-0.22832 -0.01672 1.15786 0 255 0
-0.22748 -0.02341 1.15087 0 255 0
-0.21791 -0.02874 1.14195 0 255 0
-0.23586 -0.04518 1.1511 0 255 0
-0.23865 -0.04527 1.1534 0 255 0
-0.21513 -0.06693 1.1274 0 255 0
-0.20455 -0.06542 1.1274 0 255 0
-0.19965 -0.0712 1.12327 0 255 0
-0.19966 -0.08139 1.10211 0 255 0
-0.19981 -0.08686 1.0956 0 255 0
-0.20978 -0.09948 1.11106 0 255 0
-0.20516 -0.10497 1.09832 0 255 0
-0.19213 -0.12263 1.07635 0 255 0
-0.18409 -0.1225 1.08001 0 255 0
-0.17567 -0.14341 1.08001 0 255 0
-0.19723 -0.15438 1.07321 0 255 0
-0.17823 -0.17188 1.05293 0 255 0
-0.16855 -0.17942 1.04922 0 255 0
-0.17188 -0.18275 1.05018 0 255 0
-0.17742 -0.20141 1.0418 0 255 0
-0.17284 -0.21173 1.03692 0 255 0
-0.16465 -0.22059 1.02607 0 255 0
-0.1523 -0.23093 1.01138 0 255 0
-0.1573 -0.25558 1.00432 0 255 0
-0.15007 -0.26266 0.99775 0 255 0
-0.13662 -0.27435 0.98469 0 255 0
-0.12971 -0.28349 0.97769 0 255 0
-0.12272 -0.29013 0.97935 0 255 0
-0.29775 0.23047 1.27042 0 150 0
-0.12248 -0.29735 0.97749 0 150 0
-0.29775 0.23047 1.27042 150 150 150
-0.12248 -0.29735 0.97749 150 150 150
53 54
