ply
format ascii 1.0
comment VCGLIB generated
element vertex 35
property float x
property float y
property float z
property uchar red
property uchar green
property uchar blue
element face 0
property list uchar int vertex_indices
element edge 1
property int vertex1
property int vertex2
end_header
0.469 0.40538 1.95779 0 255 0
0.47386 0.40014 1.95464 0 255 0
0.48462 0.40186 1.9505 0 255 0
0.50488 0.40187 1.943 0 255 0
0.51068 0.4155 1.93877 0 255 0
0.51723 0.41674 1.94027 0 255 0
0.52754 0.41528 1.96416 0 255 0
0.54442 0.42675 1.96807 0 255 0
0.56145 0.42346 1.96756 0 255 0
0.56312 0.42482 1.94679 0 255 0
0.56346 0.43039 1.91816 0 255 0
0.56354 0.44161 1.91525 0 255 0
0.57346 0.43745 1.91186 0 255 0
0.58202 0.43939 1.90812 0 255 0
0.59662 0.44643 1.91135 0 255 0
0.61254 0.43839 1.91338 0 255 0
0.61629 0.44136 1.89923 0 255 0
0.62486 0.44262 1.89733 0 255 0
0.62681 0.44418 1.88243 0 255 0
0.6366 0.44623 1.88023 0 255 0
0.64772 0.45023 1.91551 0 255 0
0.65945 0.44765 1.84319 0 255 0
0.66287 0.44749 1.86629 0 255 0
0.68896 0.45144 1.85614 0 255 0
0.69536 0.45894 1.83682 0 255 0
0.69718 0.47187 1.82885 0 255 0
0.71331 0.4792 1.82986 0 255 0
0.73284 0.47824 1.81299 0 255 0
0.73381 0.48613 1.80786 0 255 0
0.74953 0.49522 1.79178 0 255 0
0.76383 0.49739 1.76866 0 255 0
0.45893 0.39694 1.98266 0 150 0
0.78716 0.50139 1.75722 0 150 0
0.45893 0.39694 1.98266 150 150 150
0.78716 0.50139 1.75722 150 150 150
33 34
