ply
format ascii 1.0
comment VCGLIB generated
element vertex 55
property float x
property float y
property float z
property uchar red
property uchar green
property uchar blue
element face 0
property list uchar int vertex_indices
element edge 2
property int vertex1
property int vertex2
end_header
-0.16974 0.25636 1.26832 0 255 0
-0.17861 0.24898 1.25523 0 255 0
-0.17226 0.24415 1.25083 0 255 0
-0.17147 0.23363 1.24507 0 255 0
-0.18446 0.22662 1.24752 0 255 0
-0.18782 0.21321 1.24723 0 255 0
-0.17396 0.20289 1.23783 0 255 0
-0.1669 0.19841 1.24095 0 255 0
-0.17811 0.18595 1.24949 0 255 0
-0.17209 0.17851 1.25982 0 255 0
-0.15061 0.18061 1.23022 0 255 0
-0.15004 0.16974 1.20571 0 255 0
-0.13678 0.16408 1.1932 0 255 0
-0.13834 0.15537 1.18857 0 255 0
-0.1359 0.15054 1.18816 0 255 0
-0.14052 0.13723 1.18673 0 255 0
-0.11603 0.12938 1.18051 0 255 0
-0.10056 0.11496 1.16968 0 255 0
-0.10641 0.09857 1.1534 0 255 0
-0.10995 0.0907 1.14195 0 255 0
-0.09088 0.08218 1.13638 0 255 0
-0.08836 0.06704 1.13023 0 255 0
-0.08365 0.05784 1.12813 0 255 0
-0.06464 0.0517 1.12629 0 255 0
-0.06653 0.03821 1.12196 0 255 0
-0.06019 0.02723 1.11393 0 255 0
-0.05336 0.02233 1.11159 0 255 0
-0.05148 0.01222 1.10714 0 255 0
-0.05244 0.00385 1.10386 0 255 0
-0.03141 -0.00768 1.0869 0 255 0
-0.02477 -0.01302 1.06336 0 255 0
-0.01677 -0.01709 1.06018 0 255 0
-0.01772 -0.03921 1.0529 0 255 0
-0.01031 -0.05193 1.05306 0 255 0
-0.01181 -0.06936 1.09415 0 255 0
-0.00079 -0.07953 1.06823 0 255 0
0.01285 -0.08488 1.04162 0 255 0
0.01954 -0.09223 1.02354 0 255 0
0.02485 -0.1014 1.01815 0 255 0
0.03174 -0.10861 1.01187 0 255 0
0.02682 -0.11538 1.01495 0 255 0
0.04579 -0.12242 1.00571 0 255 0
0.04569 -0.13627 1.00344 0 255 0
0.04467 -0.1433 1.00322 0 255 0
0.05777 -0.14478 0.98581 0 255 0
0.05366 -0.16415 0.98307 0 255 0
0.059 -0.16985 0.97743 0 255 0
0.08699 -0.16644 0.96702 0 255 0
-0.16996 0.26676 1.28456 0 150 0
0.09468 -0.18857 0.95501 0 150 0
-0.23805 0.29349 1.27182 0 0 255
-0.16996 0.26676 1.28456 150 150 150
0.09468 -0.18857 0.95501 150 150 150
-0.27639 0.35946 1.31956 150 150 150
-0.19972 0.22753 1.22408 150 150 150
51 52
53 54
