ply
format ascii 1.0
comment VCGLIB generated
element vertex 22
property float x
property float y
property float z
property uchar red
property uchar green
property uchar blue
element face 0
property list uchar int vertex_indices
element edge 1
property int vertex1
property int vertex2
end_header
-0.25624 0.61664 2.01039 0 255 0
-0.24197 0.62764 2.02633 0 255 0
-0.23137 0.60721 2.09653 0 255 0
-0.21196 0.615 2.0317 0 255 0
-0.18744 0.615 2.0317 0 255 0
-0.18404 0.61871 2.05079 0 255 0
-0.17079 0.62208 2.02812 0 255 0
-0.16292 0.615 2.0317 0 255 0
-0.15309 0.61663 2.06453 0 255 0
-0.13712 0.61264 2.0329 0 255 0
-0.11592 0.61091 2.0317 0 255 0
-0.12255 0.64044 2.01744 0 255 0
-0.10718 0.64022 2.02099 0 255 0
-0.09701 0.64022 2.02099 0 255 0
-0.07492 0.64043 2.02812 0 255 0
-0.06691 0.62549 2.0326 0 255 0
-0.05267 0.64065 2.0353 0 255 0
-0.04681 0.62611 2.04799 0 255 0
-0.26258 0.63431 2.02812 0 150 0
-0.03688 0.63022 2.06824 0 150 0
-0.26258 0.63431 2.02812 150 150 150
-0.03688 0.63022 2.06824 150 150 150
20 21
