ply
format ascii 1.0
comment VCGLIB generated
element vertex 19
property float x
property float y
property float z
property uchar red
property uchar green
property uchar blue
element face 0
property list uchar int vertex_indices
element edge 1
property int vertex1
property int vertex2
end_header
0.34309 1.60768 1.37503 0 255 0
0.3417 1.61657 1.36466 0 255 0
0.34492 1.63624 1.37638 0 255 0
0.35648 1.66538 1.38048 0 255 0
0.3518 1.68669 1.38775 0 255 0
0.35209 1.70384 1.39783 0 255 0
0.3487 1.71596 1.40784 0 255 0
0.34923 1.72339 1.40815 0 255 0
0.34072 1.7359 1.41911 0 255 0
0.35032 1.74966 1.43431 0 255 0
0.35252 1.7936 1.44765 0 255 0
0.34001 1.80717 1.45231 0 255 0
0.35591 1.83542 1.47587 0 255 0
0.33642 1.84105 1.47249 0 255 0
0.34296 1.85175 1.47826 0 255 0
0.33988 1.58681 1.35152 0 150 0
0.34931 1.86429 1.48391 0 150 0
0.33988 1.58681 1.35152 150 150 150
0.34931 1.86429 1.48391 150 150 150
17 18
