ply
format ascii 1.0
comment VCGLIB generated
element vertex 55
property float x
property float y
property float z
property uchar red
property uchar green
property uchar blue
element face 0
property list uchar int vertex_indices
element edge 1
property int vertex1
property int vertex2
end_header
0.25309 0.28198 2.1039 0 255 0
0.27264 0.29198 2.10424 0 255 0
0.28841 0.30279 2.10501 0 255 0
0.31346 0.28415 2.05597 0 255 0
0.31513 0.28108 2.05737 0 255 0
0.3265 0.28301 2.04758 0 255 0
0.33412 0.28246 2.04637 0 255 0
0.34047 0.2757 2.04851 0 255 0
0.3465 0.28179 2.0462 0 255 0
0.36043 0.29662 2.04426 0 255 0
0.38276 0.2905 2.04588 0 255 0
0.38933 0.30486 2.0418 0 255 0
0.3948 0.31278 2.04036 0 255 0
0.40968 0.3099 2.03394 0 255 0
0.42459 0.31022 2.03002 0 255 0
0.43375 0.30837 2.0257 0 255 0
0.43855 0.3079 2.02308 0 255 0
0.446 0.30795 2.01963 0 255 0
0.4537 0.30657 2.0126 0 255 0
0.46338 0.30927 2.00161 0 255 0
0.47436 0.30779 2.00192 0 255 0
0.47936 0.32025 2.00034 0 255 0
0.48853 0.31071 1.99715 0 255 0
0.4949 0.31411 1.98839 0 255 0
0.50191 0.31332 1.98172 0 255 0
0.50739 0.32035 1.97076 0 255 0
0.5239 0.30632 1.98514 0 255 0
0.52396 0.30426 1.98813 0 255 0
0.54618 0.32081 1.95761 0 255 0
0.54433 0.33092 1.95466 0 255 0
0.55017 0.33476 1.9496 0 255 0
0.56144 0.32948 1.9297 0 255 0
0.56725 0.32783 1.92371 0 255 0
0.57936 0.323 1.94181 0 255 0
0.58536 0.32424 1.92854 0 255 0
0.60371 0.33161 1.9046 0 255 0
0.60314 0.34033 1.90592 0 255 0
0.62373 0.34937 1.9045 0 255 0
0.63574 0.32729 1.9043 0 255 0
0.65366 0.34086 1.88035 0 255 0
0.66107 0.3495 1.87446 0 255 0
0.66445 0.34672 1.87643 0 255 0
0.68369 0.33996 1.87068 0 255 0
0.6941 0.34351 1.86516 0 255 0
0.70324 0.34884 1.85287 0 255 0
0.71394 0.3572 1.83582 0 255 0
0.73908 0.3516 1.83142 0 255 0
0.74626 0.35709 1.82343 0 255 0
0.75817 0.36702 1.80769 0 255 0
0.76744 0.37218 1.79946 0 255 0
0.77376 0.37964 1.79942 0 255 0
0.2445 0.26666 2.10521 0 150 0
0.78105 0.3797 1.79787 0 150 0
0.2445 0.26666 2.10521 150 150 150
0.78105 0.3797 1.79787 150 150 150
53 54
