ply
format ascii 1.0
comment VCGLIB generated
element vertex 31
property float x
property float y
property float z
property uchar red
property uchar green
property uchar blue
element face 0
property list uchar int vertex_indices
element edge 2
property int vertex1
property int vertex2
end_header
0.10304 -0.10817 1.28917 0 255 0
0.10809 -0.10777 1.29062 0 255 0
0.12013 -0.11591 1.2945 0 255 0
0.11513 -0.12329 1.29681 0 255 0
0.13151 -0.12589 1.31723 0 255 0
0.14343 -0.12037 1.32941 0 255 0
0.14942 -0.1209 1.3352 0 255 0
0.17601 -0.13109 1.34339 0 255 0
0.19871 -0.09989 1.36008 0 255 0
0.20646 -0.13698 1.34812 0 255 0
0.22787 -0.14171 1.35447 0 255 0
0.24757 -0.12985 1.37307 0 255 0
0.25507 -0.12947 1.38381 0 255 0
0.26393 -0.13602 1.39387 0 255 0
0.29118 -0.13691 1.41271 0 255 0
0.29706 -0.15722 1.46602 0 255 0
0.31155 -0.15708 1.45932 0 255 0
0.62723 -0.23072 1.58177 0 255 0
0.63924 -0.22626 1.58394 0 255 0
0.64791 -0.23867 1.58177 0 255 0
0.65905 -0.25458 1.58177 0 255 0
0.66314 -0.25493 1.58394 0 255 0
0.66884 -0.25528 1.58613 0 255 0
0.09476 -0.10867 1.28593 0 150 0
0.31689 -0.16014 1.4536 0 150 0
0.62015 -0.18948 1.59632 0 150 0
0.66953 -0.26832 1.58777 0 150 0
0.09476 -0.10867 1.28593 150 150 150
0.31689 -0.16014 1.4536 150 150 150
0.62015 -0.18948 1.59632 150 150 150
0.66953 -0.26832 1.58777 150 150 150
27 28
29 30
