ply
format ascii 1.0
comment VCGLIB generated
element vertex 55
property float x
property float y
property float z
property uchar red
property uchar green
property uchar blue
element face 0
property list uchar int vertex_indices
element edge 1
property int vertex1
property int vertex2
end_header
0.57273 0.66515 1.96844 0 255 0
0.5535 0.67354 1.96934 0 255 0
0.54358 0.66446 1.95922 0 255 0
0.53243 0.68888 1.97303 0 255 0
0.52613 0.69016 1.97333 0 255 0
0.50837 0.70202 1.98337 0 255 0
0.49717 0.70746 1.98362 0 255 0
0.47649 0.71832 2.00754 0 255 0
0.46202 0.73837 2.01347 0 255 0
0.44855 0.74883 2.03299 0 255 0
0.43508 0.76237 2.05058 0 255 0
0.438 0.76999 2.02753 0 255 0
0.43713 0.77584 2.02856 0 255 0
0.42393 0.78023 2.04114 0 255 0
0.42534 0.7915 2.02591 0 255 0
0.42038 0.80324 2.03836 0 255 0
0.4095 0.80404 2.04646 0 255 0
0.40677 0.81228 2.04927 0 255 0
0.40249 0.82032 2.04483 0 255 0
0.38928 0.83583 2.06315 0 255 0
0.38744 0.84343 2.0751 0 255 0
0.38898 0.85601 2.0743 0 255 0
0.37049 0.8765 2.07865 0 255 0
0.34929 0.87604 2.0771 0 255 0
0.34094 0.89805 2.07686 0 255 0
0.33022 0.90174 2.07268 0 255 0
0.32483 0.91439 2.0843 0 255 0
0.31913 0.9154 2.08728 0 255 0
0.31527 0.9286 2.10446 0 255 0
0.30715 0.92864 2.10963 0 255 0
0.29692 0.9312 2.12085 0 255 0
0.29441 0.95306 2.11902 0 255 0
0.29212 0.95592 2.12086 0 255 0
0.29508 0.96578 2.11019 0 255 0
0.27262 0.98546 2.12004 0 255 0
0.27756 0.99644 2.12333 0 255 0
0.2693 0.9965 2.1244 0 255 0
0.26544 1.00347 2.13081 0 255 0
0.25018 0.99127 2.13078 0 255 0
0.23766 1.00744 2.13713 0 255 0
0.23378 1.02378 2.14311 0 255 0
0.22436 1.04257 2.16106 0 255 0
0.21792 1.04361 2.16282 0 255 0
0.21119 1.04498 2.16624 0 255 0
0.2273 1.06608 2.16902 0 255 0
0.19314 1.07637 2.16624 0 255 0
0.18554 1.07708 2.16561 0 255 0
0.19434 1.09873 2.16389 0 255 0
0.18827 1.10542 2.16141 0 255 0
0.18372 1.12348 2.15905 0 255 0
0.17167 1.13687 2.16142 0 255 0
0.5783 0.65461 1.96412 0 150 0
0.16768 1.1546 2.17103 0 150 0
0.5783 0.65461 1.96412 150 150 150
0.16768 1.1546 2.17103 150 150 150
53 54
