ply
format ascii 1.0
comment VCGLIB generated
element vertex 36
property float x
property float y
property float z
property uchar red
property uchar green
property uchar blue
element face 0
property list uchar int vertex_indices
element edge 1
property int vertex1
property int vertex2
end_header
-0.00487 1.53652 1.79223 0 255 0
-0.00201 1.55767 1.78985 0 255 0
-0.01982 1.56401 1.78267 0 255 0
-0.01287 1.58261 1.78946 0 255 0
-0.02863 1.59458 1.77392 0 255 0
-0.0227 1.60192 1.77677 0 255 0
-0.03542 1.62533 1.752 0 255 0
-0.03899 1.63952 1.75534 0 255 0
-0.03424 1.65571 1.759 0 255 0
-0.04108 1.66317 1.76041 0 255 0
-0.0519 1.67863 1.76261 0 255 0
-0.04493 1.68409 1.76761 0 255 0
-0.04655 1.69639 1.77326 0 255 0
-0.03469 1.70536 1.77692 0 255 0
-0.02905 1.7168 1.78099 0 255 0
-0.02103 1.74718 1.80973 0 255 0
-0.02959 1.76324 1.81084 0 255 0
-0.02634 1.77935 1.81325 0 255 0
-0.02878 1.79273 1.81531 0 255 0
-0.01749 1.80217 1.81455 0 255 0
-0.01616 1.81362 1.81988 0 255 0
-0.0274 1.82945 1.83027 0 255 0
-0.01667 1.84703 1.83484 0 255 0
-0.02523 1.8567 1.84203 0 255 0
-0.02565 1.86472 1.84775 0 255 0
-0.02867 1.88105 1.86068 0 255 0
-0.03914 1.88441 1.8623 0 255 0
-0.0393 1.90306 1.86745 0 255 0
-0.03376 1.91609 1.86562 0 255 0
-0.03473 1.93909 1.86562 0 255 0
-0.02716 1.93949 1.86261 0 255 0
-0.01191 1.94324 1.85866 0 255 0
0.00748 1.52501 1.79826 0 150 0
-0.00032 1.9528 1.85735 0 150 0
0.00748 1.52501 1.79826 150 150 150
-0.00032 1.9528 1.85735 150 150 150
34 35
