ply
format ascii 1.0
comment VCGLIB generated
element vertex 22
property float x
property float y
property float z
property uchar red
property uchar green
property uchar blue
element face 0
property list uchar int vertex_indices
element edge 1
property int vertex1
property int vertex2
end_header
0.02237 1.80031 1.83302 0 255 0
0.02003 1.81869 1.84838 0 255 0
0.06019 1.82969 1.90939 0 255 0
0.04097 1.84405 1.84564 0 255 0
0.04732 1.86736 1.84151 0 255 0
0.04977 1.87357 1.86009 0 255 0
0.04413 1.88492 1.83684 0 255 0
0.05368 1.89068 1.83737 0 255 0
0.06333 1.90374 1.86759 0 255 0
0.06289 1.91464 1.83364 0 255 0
0.06967 1.93418 1.82853 0 255 0
0.03676 1.93513 1.82258 0 255 0
0.04189 1.95002 1.82334 0 255 0
0.04453 1.95969 1.82162 0 255 0
0.05193 1.98147 1.82479 0 255 0
0.06907 1.98515 1.82439 0 255 0
0.05938 2.0034 1.82798 0 255 0
0.07774 2.00595 1.83591 0 255 0
0.00895 1.80122 1.85506 0 150 0
0.08181 2.0186 1.8546 0 150 0
0.00895 1.80122 1.85506 150 150 150
0.08181 2.0186 1.8546 150 150 150
20 21
