ply
format ascii 1.0
comment VCGLIB generated
element vertex 19
property float x
property float y
property float z
property uchar red
property uchar green
property uchar blue
element face 0
property list uchar int vertex_indices
element edge 1
property int vertex1
property int vertex2
end_header
0.48876 -0.03378 1.59714 0 255 0
0.49884 -0.03678 1.58832 0 255 0
0.51643 -0.03794 1.60327 0 255 0
0.54298 -0.0504 1.61509 0 255 0
0.56382 -0.04577 1.62364 0 255 0
0.57954 -0.04446 1.63577 0 255 0
0.59086 -0.03922 1.64591 0 255 0
0.59806 -0.04036 1.64749 0 255 0
0.61039 -0.03004 1.65698 0 255 0
0.62088 -0.03545 1.6763 0 255 0
0.66233 -0.03757 1.69609 0 255 0
0.67697 -0.02567 1.69859 0 255 0
0.69988 -0.03572 1.72989 0 255 0
0.7086 -0.01909 1.72148 0 255 0
0.71755 -0.02442 1.73054 0 255 0
0.47126 -0.03638 1.57096 0 150 0
0.72835 -0.02979 1.7397 0 150 0
0.47126 -0.03638 1.57096 150 150 150
0.72835 -0.02979 1.7397 150 150 150
17 18
