ply
format ascii 1.0
comment VCGLIB generated
element vertex 45
property float x
property float y
property float z
property uchar red
property uchar green
property uchar blue
element face 0
property list uchar int vertex_indices
element edge 4
property int vertex1
property int vertex2
end_header
0.12378 -0.22033 1.3195 0 255 0
0.12769 -0.22021 1.31874 0 255 0
0.15411 -0.21832 1.36493 0 255 0
0.16457 -0.21845 1.45747 0 255 0
0.16527 -0.23501 1.36627 0 255 0
0.1812 -0.23372 1.38298 0 255 0
0.19145 -0.23475 1.37007 0 255 0
0.1996 -0.2418 1.37163 0 255 0
0.21597 -0.25179 1.38298 0 255 0
0.22142 -0.24815 1.38748 0 255 0
0.21838 -0.25566 1.38506 0 255 0
0.23471 -0.27646 1.39514 0 255 0
0.23535 -0.28144 1.39896 0 255 0
0.24273 -0.29755 1.40638 0 255 0
-0.23557 -0.06519 1.07716 0 255 0
-0.21872 -0.07428 1.0954 0 255 0
-0.2138 -0.07397 1.09727 0 255 0
-0.2037 -0.07356 1.09937 0 255 0
-0.1961 -0.089 1.14879 0 255 0
-0.18608 -0.08223 1.12998 0 255 0
-0.18385 -0.07751 1.11645 0 255 0
-0.17239 -0.08031 1.13134 0 255 0
-0.16372 -0.08172 1.13487 0 255 0
-0.05693 -0.12577 1.23783 0 255 0
-0.0447 -0.13577 1.24386 0 255 0
-0.03215 -0.13583 1.24252 0 255 0
-0.0245 -0.14158 1.23451 0 255 0
-0.01712 -0.1459 1.23961 0 255 0
-0.00999 -0.14409 1.23935 0 255 0
0.00117 -0.15583 1.24588 0 255 0
0.10249 -0.19928 1.31542 0 150 0
0.26816 -0.31197 1.41619 0 150 0
-0.2625 -0.06117 1.06649 0 150 0
-0.1505 -0.08684 1.14468 0 150 0
-0.06551 -0.14351 1.26524 0 150 0
0.01794 -0.14965 1.25009 0 150 0
0.34867 -0.26239 1.43333 0 0 255
0.10249 -0.19928 1.31542 150 150 150
0.26816 -0.31197 1.41619 150 150 150
-0.2625 -0.06117 1.06649 150 150 150
-0.1505 -0.08684 1.14468 150 150 150
-0.06551 -0.14351 1.26524 150 150 150
0.01794 -0.14965 1.25009 150 150 150
0.28219 -0.21717 1.39289 150 150 150
0.41516 -0.30761 1.47376 150 150 150
37 38
39 40
41 42
43 44
