ply
format ascii 1.0
comment VCGLIB generated
element vertex 55
property float x
property float y
property float z
property uchar red
property uchar green
property uchar blue
element face 0
property list uchar int vertex_indices
element edge 1
property int vertex1
property int vertex2
end_header
0.25904 0.2895 2.10597 0 255 0
0.27476 0.27914 2.09705 0 255 0
0.28039 0.28783 2.09274 0 255 0
0.29482 0.29803 2.08045 0 255 0
0.30491 0.28232 2.06535 0 255 0
0.31167 0.29021 2.05145 0 255 0
0.32035 0.28683 2.04715 0 255 0
0.32699 0.28828 2.04389 0 255 0
0.34624 0.28884 2.04435 0 255 0
0.35354 0.28917 2.04465 0 255 0
0.3685 0.28275 2.04639 0 255 0
0.37461 0.30328 2.04516 0 255 0
0.38954 0.29783 2.04395 0 255 0
0.40243 0.29815 2.04052 0 255 0
0.40959 0.29806 2.0392 0 255 0
0.41733 0.29173 2.04197 0 255 0
0.42411 0.29751 2.03866 0 255 0
0.43245 0.30361 2.02978 0 255 0
0.44292 0.29543 2.03331 0 255 0
0.446 0.30795 2.01963 0 255 0
0.45535 0.30718 2.00437 0 255 0
0.46696 0.30468 2.01113 0 255 0
0.47544 0.31441 1.99723 0 255 0
0.48853 0.31071 1.99715 0 255 0
0.4951 0.32421 1.99404 0 255 0
0.51632 0.31661 1.96504 0 255 0
0.52111 0.32362 1.96297 0 255 0
0.53954 0.31622 1.95957 0 255 0
0.54608 0.32275 1.95438 0 255 0
0.55957 0.32382 1.93957 0 255 0
0.56475 0.32238 1.92945 0 255 0
0.5747 0.31696 1.93367 0 255 0
0.58022 0.31794 1.93387 0 255 0
0.5977 0.32162 1.91997 0 255 0
0.6084 0.31823 1.91113 0 255 0
0.61765 0.33222 1.89912 0 255 0
0.62482 0.32986 1.90246 0 255 0
0.63574 0.32729 1.9043 0 255 0
0.64354 0.33009 1.89686 0 255 0
0.65367 0.3222 1.89405 0 255 0
0.66073 0.35211 1.87543 0 255 0
0.68369 0.33996 1.87068 0 255 0
0.69062 0.34618 1.86252 0 255 0
0.69609 0.34386 1.86197 0 255 0
0.71164 0.35195 1.8456 0 255 0
0.71834 0.34967 1.83904 0 255 0
0.73872 0.35769 1.82401 0 255 0
0.75912 0.35606 1.82446 0 255 0
0.76068 0.35982 1.80826 0 255 0
0.76603 0.35785 1.8091 0 255 0
0.77688 0.36831 1.79606 0 255 0
0.25377 0.28031 2.10232 0 150 0
0.78201 0.36432 1.79406 0 150 0
0.25377 0.28031 2.10232 150 150 150
0.78201 0.36432 1.79406 150 150 150
53 54
