ply
format ascii 1.0
comment VCGLIB generated
element vertex 18
property float x
property float y
property float z
property uchar red
property uchar green
property uchar blue
element face 0
property list uchar int vertex_indices
element edge 1
property int vertex1
property int vertex2
end_header
0.03167 1.72366 1.95426 0 255 0
0.00976 1.723 1.91904 0 255 0
0.00888 1.7322 1.88977 0 255 0
0.01742 1.76262 1.88862 0 255 0
0.00242 1.76897 1.85075 0 255 0
0.01146 1.77316 1.84569 0 255 0
0.00389 1.78686 1.85525 0 255 0
0.01566 1.79516 1.83918 0 255 0
0.02546 1.82401 1.86691 0 255 0
-0.0009 1.82261 1.88232 0 255 0
0.01568 1.84532 1.93128 0 255 0
0.01329 1.85056 1.90221 0 255 0
0.00489 1.86324 1.87836 0 255 0
0.00863 1.86945 1.87238 0 255 0
0.02792 1.71395 1.95892 0 150 0
0.02908 1.87797 1.89011 0 150 0
0.02792 1.71395 1.95892 150 150 150
0.02908 1.87797 1.89011 150 150 150
16 17
