ply
format ascii 1.0
comment VCGLIB generated
element vertex 21
property float x
property float y
property float z
property uchar red
property uchar green
property uchar blue
element face 0
property list uchar int vertex_indices
element edge 2
property int vertex1
property int vertex2
end_header
-0.00841 1.46379 1.80668 0 255 0
-0.01012 1.47598 1.80262 0 255 0
-0.05775 1.45992 1.68189 0 255 0
-0.05426 1.46887 1.6809 0 255 0
-0.04934 1.48227 1.69036 0 255 0
-0.03897 1.50753 1.70605 0 255 0
-0.04195 1.52937 1.71831 0 255 0
-0.02795 1.54753 1.77088 0 255 0
-0.02849 1.55126 1.77275 0 255 0
-0.03702 1.55822 1.72981 0 255 0
-0.02438 1.57761 1.77341 0 255 0
-0.03146 1.58252 1.74428 0 255 0
-0.03503 1.5959 1.74409 0 255 0
-0.03274 1.6028 1.73805 0 255 0
-0.00445 1.44859 1.81018 0 150 0
-0.03543 1.63377 1.74379 0 150 0
-0.02688 1.95722 1.88257 0 0 255
-0.00445 1.44859 1.81018 150 150 150
-0.03543 1.63377 1.74379 150 150 150
0.02034 2.03328 1.87332 150 150 150
-0.07411 1.88117 1.89182 150 150 150
17 18
19 20
