ply
format ascii 1.0
comment VCGLIB generated
element vertex 36
property float x
property float y
property float z
property uchar red
property uchar green
property uchar blue
element face 0
property list uchar int vertex_indices
element edge 1
property int vertex1
property int vertex2
end_header
0.30532 -0.339 1.5389 0 255 0
0.32547 -0.34645 1.539 0 255 0
0.33614 -0.33115 1.53122 0 255 0
0.35211 -0.34115 1.54045 0 255 0
0.36855 -0.32983 1.52512 0 255 0
0.37414 -0.33686 1.52918 0 255 0
0.40183 -0.33178 1.50615 0 255 0
0.41611 -0.33096 1.5107 0 255 0
0.4305 -0.33862 1.51641 0 255 0
0.43912 -0.33339 1.51808 0 255 0
0.4563 -0.3259 1.52109 0 255 0
0.45966 -0.33334 1.52715 0 255 0
0.47147 -0.33379 1.53394 0 255 0
0.47728 -0.34685 1.53942 0 255 0
0.48682 -0.35435 1.5451 0 255 0
0.51208 -0.36573 1.57743 0 255 0
0.52946 -0.36067 1.57959 0 255 0
0.54419 -0.36698 1.58394 0 255 0
0.55756 -0.3672 1.58722 0 255 0
0.56433 -0.38024 1.58832 0 255 0
0.5747 -0.38342 1.59493 0 255 0
0.59164 -0.37479 1.60607 0 255 0
0.60598 -0.38848 1.61328 0 255 0
0.61662 -0.38149 1.62078 0 255 0
0.624 -0.3822 1.62728 0 255 0
0.6394 -0.38143 1.6416 0 255 0
0.64481 -0.37179 1.64278 0 255 0
0.66252 -0.37505 1.64985 0 255 0
0.67414 -0.38335 1.64985 0 255 0
0.69671 -0.38722 1.65222 0 255 0
0.69571 -0.39497 1.64985 0 255 0
0.69637 -0.41097 1.64748 0 255 0
0.29092 -0.34802 1.54459 0 150 0
0.70325 -0.42438 1.64807 0 150 0
0.29092 -0.34802 1.54459 150 150 150
0.70325 -0.42438 1.64807 150 150 150
34 35
