ply
format ascii 1.0
comment VCGLIB generated
element vertex 25
property float x
property float y
property float z
property uchar red
property uchar green
property uchar blue
element face 0
property list uchar int vertex_indices
element edge 3
property int vertex1
property int vertex2
end_header
0.22663 -0.26901 1.46537 0 255 0
0.24221 -0.28276 1.4795 0 255 0
0.24823 -0.26804 1.46677 0 255 0
0.25725 -0.2747 1.47618 0 255 0
0.27704 -0.26799 1.44013 0 255 0
0.28515 -0.27949 1.43804 0 255 0
0.04254 -0.19947 1.27112 0 255 0
0.05255 -0.21373 1.28457 0 255 0
0.05481 -0.21656 1.28917 0 255 0
0.07389 -0.21373 1.29895 0 255 0
0.09394 -0.21355 1.31048 0 255 0
0.11615 -0.22297 1.3233 0 255 0
0.1231 -0.21264 1.33366 0 255 0
0.13469 -0.22168 1.33559 0 255 0
0.21289 -0.26861 1.46723 0 150 0
0.2918 -0.28139 1.42969 0 150 0
0.03175 -0.21473 1.27441 0 150 0
0.14291 -0.21366 1.34071 0 150 0
0.61477 -0.35763 1.58244 0 0 255
0.21289 -0.26861 1.46723 150 150 150
0.2918 -0.28139 1.42969 150 150 150
0.03175 -0.21473 1.27441 150 150 150
0.14291 -0.21366 1.34071 150 150 150
0.53994 -0.40763 1.58244 150 150 150
0.6896 -0.30763 1.58244 150 150 150
19 20
21 22
23 24
