ply
format ascii 1.0
comment VCGLIB generated
element vertex 54
property float x
property float y
property float z
property uchar red
property uchar green
property uchar blue
element face 0
property list uchar int vertex_indices
element edge 1
property int vertex1
property int vertex2
end_header
0.56032 0.66227 1.96402 0 255 0
0.54989 0.66312 1.96056 0 255 0
0.54387 0.66776 1.96593 0 255 0
0.5362 0.67121 1.95997 0 255 0
0.52779 0.66512 1.95046 0 255 0
0.52613 0.69016 1.97333 0 255 0
0.507 0.68978 1.98407 0 255 0
0.50089 0.69077 1.99779 0 255 0
0.493 0.69962 1.99725 0 255 0
0.48623 0.7081 1.99649 0 255 0
0.4837 0.70344 2.01036 0 255 0
0.47421 0.71999 2.0119 0 255 0
0.46568 0.73224 2.00536 0 255 0
0.44371 0.7565 2.0294 0 255 0
0.44292 0.76225 2.02748 0 255 0
0.42474 0.77372 2.04787 0 255 0
0.43162 0.78594 2.03165 0 255 0
0.42194 0.79486 2.02752 0 255 0
0.40024 0.81884 2.04792 0 255 0
0.38621 0.82992 2.05706 0 255 0
0.38744 0.84343 2.0751 0 255 0
0.39111 0.87132 2.07744 0 255 0
0.36818 0.87219 2.07634 0 255 0
0.36581 0.8886 2.08735 0 255 0
0.35811 0.90673 2.09188 0 255 0
0.34558 0.90218 2.07841 0 255 0
0.33382 0.91703 2.09004 0 255 0
0.3358 0.9265 2.10285 0 255 0
0.3234 0.93359 2.10275 0 255 0
0.3109 0.94352 2.10377 0 255 0
0.30454 0.95222 2.11003 0 255 0
0.30064 0.96051 2.11049 0 255 0
0.29329 0.95957 2.11999 0 255 0
0.27464 0.97814 2.11673 0 255 0
0.27756 0.99644 2.12333 0 255 0
0.26342 0.99701 2.12667 0 255 0
0.2507 1.00608 2.1346 0 255 0
0.24497 1.01325 2.13557 0 255 0
0.23345 1.03465 2.14978 0 255 0
0.22331 1.03685 2.16176 0 255 0
0.21443 1.02513 2.16633 0 255 0
0.21119 1.04498 2.16624 0 255 0
0.19601 1.05331 2.17563 0 255 0
0.18395 1.06668 2.17009 0 255 0
0.19369 1.08276 2.16568 0 255 0
0.20049 1.0866 2.16403 0 255 0
0.20317 1.10455 2.1647 0 255 0
0.18826 1.11132 2.16082 0 255 0
0.19188 1.12501 2.16084 0 255 0
0.18774 1.14189 2.16857 0 255 0
0.56562 0.66268 1.96621 0 150 0
0.18938 1.15072 2.17123 0 150 0
0.56562 0.66268 1.96621 150 150 150
0.18938 1.15072 2.17123 150 150 150
52 53
