ply
format ascii 1.0
comment VCGLIB generated
element vertex 25
property float x
property float y
property float z
property uchar red
property uchar green
property uchar blue
element face 0
property list uchar int vertex_indices
element edge 3
property int vertex1
property int vertex2
end_header
-0.00304 1.57899 1.79167 0 255 0
0.00733 1.59866 1.80338 0 255 0
-0.01014 1.59943 1.79292 0 255 0
-0.00519 1.6105 1.80111 0 255 0
-0.02239 1.62543 1.76622 0 255 0
-0.01421 1.6364 1.76233 0 255 0
-0.04153 1.37198 1.61244 0 255 0
-0.02913 1.38644 1.62347 0 255 0
-0.02647 1.38968 1.62756 0 255 0
-0.03342 1.40764 1.63741 0 255 0
-0.0379 1.4274 1.64857 0 255 0
-0.03377 1.45207 1.65955 0 255 0
-0.04414 1.4563 1.67124 0 255 0
-0.03874 1.4701 1.67165 0 255 0
0.0009 1.56586 1.79375 0 150 0
-0.01555 1.64283 1.7537 0 150 0
-0.02346 1.36629 1.61354 0 150 0
-0.04803 1.47593 1.67781 0 150 0
-0.01749 1.98211 1.88912 0 0 255
0.0009 1.56586 1.79375 150 150 150
-0.01555 1.64283 1.7537 150 150 150
-0.02346 1.36629 1.61354 150 150 150
-0.04803 1.47593 1.67781 150 150 150
0.05186 1.92512 1.88259 150 150 150
-0.08684 2.03911 1.89564 150 150 150
19 20
21 22
23 24
