ply
format ascii 1.0
comment VCGLIB generated
element vertex 19
property float x
property float y
property float z
property uchar red
property uchar green
property uchar blue
element face 0
property list uchar int vertex_indices
element edge 1
property int vertex1
property int vertex2
end_header
0.24398 1.02542 2.13492 0 255 0
0.22959 1.02836 2.14048 0 255 0
0.23097 1.05124 2.14122 0 255 0
0.22917 1.05786 2.14034 0 255 0
0.20873 1.07147 2.14946 0 255 0
0.20309 1.09075 2.15757 0 255 0
0.18771 1.10486 2.15423 0 255 0
0.18292 1.09849 2.15177 0 255 0
0.15218 1.10843 2.15535 0 255 0
0.16046 1.13536 2.15483 0 255 0
0.16379 1.15554 2.17289 0 255 0
0.1478 1.18166 2.1897 0 255 0
0.14215 1.17353 2.18741 0 255 0
0.12881 1.1647 2.18604 0 255 0
0.12303 1.15779 2.18637 0 255 0
0.2488 1.004 2.131 0 150 0
0.09724 1.18413 2.19805 0 150 0
0.2488 1.004 2.131 150 150 150
0.09724 1.18413 2.19805 150 150 150
17 18
