ply
format ascii 1.0
comment VCGLIB generated
element vertex 17
property float x
property float y
property float z
property uchar red
property uchar green
property uchar blue
element face 0
property list uchar int vertex_indices
element edge 1
property int vertex1
property int vertex2
end_header
0.04931 -0.16542 2.67694 0 255 0
0.03258 -0.16092 2.67469 0 255 0
0.00629 -0.15333 2.67023 0 255 0
0.00874 -0.17663 2.68801 0 255 0
-0.01278 -0.1541 2.67712 0 255 0
-0.01111 -0.17358 2.67699 0 255 0
-0.05013 -0.17464 2.67758 0 255 0
-0.06833 -0.16425 2.67747 0 255 0
-0.07361 -0.16036 2.68225 0 255 0
-0.07936 -0.16734 2.68269 0 255 0
-0.09116 -0.15636 2.69147 0 255 0
-0.11097 -0.15726 2.70869 0 255 0
-0.12121 -0.17066 2.7048 0 255 0
0.05759 -0.14024 2.6674 0 150 0
-0.13902 -0.18511 2.71373 0 150 0
0.05759 -0.14024 2.6674 150 150 150
-0.13902 -0.18511 2.71373 150 150 150
15 16
