ply
format ascii 1.0
comment VCGLIB generated
element vertex 45
property float x
property float y
property float z
property uchar red
property uchar green
property uchar blue
element face 0
property list uchar int vertex_indices
element edge 4
property int vertex1
property int vertex2
end_header
0.0157 1.79641 1.81297 0 255 0
0.01409 1.79989 1.81189 0 255 0
0.00698 1.82988 1.85531 0 255 0
0.01185 1.85195 1.94565 0 255 0
0.0185 1.84625 1.85337 0 255 0
0.01304 1.86279 1.86859 0 255 0
0.00906 1.87093 1.85477 0 255 0
0.01277 1.88117 1.85463 0 255 0
0.01711 1.90137 1.86299 0 255 0
0.01216 1.90573 1.86743 0 255 0
0.02 1.90524 1.8643 0 255 0
0.03426 1.92902 1.86997 0 255 0
0.03899 1.93187 1.87301 0 255 0
0.05191 1.94536 1.8775 0 255 0
-0.01945 1.37658 1.62741 0 255 0
-0.01547 1.39782 1.64265 0 255 0
-0.01739 1.40253 1.6441 0 255 0
-0.02125 1.41202 1.6453 0 255 0
-0.00515 1.43107 1.6913 0 255 0
-0.01681 1.43548 1.67273 0 255 0
-0.02325 1.43408 1.65981 0 255 0
-0.02346 1.44767 1.67309 0 255 0
-0.02498 1.45666 1.67559 0 255 0
-0.01358 1.58484 1.76154 0 255 0
-0.00822 1.60049 1.76504 0 255 0
-0.01286 1.61195 1.76256 0 255 0
-0.01107 1.62 1.75319 0 255 0
-0.00928 1.62904 1.75697 0 255 0
-0.01358 1.63497 1.75631 0 255 0
-0.00617 1.65031 1.76016 0 255 0
0.00358 1.76875 1.81372 0 150 0
0.05691 1.9753 1.88292 0 150 0
-0.01434 1.34879 1.61987 0 150 0
-0.02416 1.47202 1.68338 0 150 0
0.00852 1.58677 1.78699 0 150 0
-0.01762 1.66424 1.76362 0 150 0
-0.0168 2.03478 1.89916 0 0 255
0.00358 1.76875 1.81372 150 150 150
0.05691 1.9753 1.88292 150 150 150
-0.01434 1.34879 1.61987 150 150 150
-0.02416 1.47202 1.68338 150 150 150
0.00852 1.58677 1.78699 150 150 150
-0.01762 1.66424 1.76362 150 150 150
-0.0382 1.95189 1.87139 150 150 150
0.0046 2.11767 1.92693 150 150 150
37 38
39 40
41 42
43 44
