ply
format ascii 1.0
comment VCGLIB generated
element vertex 37
property float x
property float y
property float z
property uchar red
property uchar green
property uchar blue
element face 0
property list uchar int vertex_indices
element edge 1
property int vertex1
property int vertex2
end_header
-0.33273 0.4833 1.47871 0 255 0
-0.31569 0.48296 1.46864 0 255 0
-0.31132 0.46462 1.44829 0 255 0
-0.30394 0.46593 1.44784 0 255 0
-0.29129 0.45114 1.44429 0 255 0
-0.28344 0.44453 1.43983 0 255 0
-0.27596 0.43045 1.44239 0 255 0
-0.26518 0.4262 1.45895 0 255 0
-0.25499 0.41769 1.46777 0 255 0
-0.24975 0.40681 1.46304 0 255 0
-0.23819 0.40148 1.44647 0 255 0
-0.2308 0.39534 1.43547 0 255 0
-0.21251 0.38692 1.43028 0 255 0
-0.19428 0.38071 1.4232 0 255 0
-0.18832 0.36022 1.42144 0 255 0
-0.1841 0.36183 1.41097 0 255 0
-0.17219 0.36056 1.39726 0 255 0
-0.16785 0.35884 1.39387 0 255 0
-0.15765 0.35412 1.40294 0 255 0
-0.16524 0.34715 1.39084 0 255 0
-0.1509 0.33276 1.36735 0 255 0
-0.13548 0.31985 1.36898 0 255 0
-0.13509 0.31125 1.38381 0 255 0
-0.11956 0.31234 1.36674 0 255 0
-0.11213 0.30591 1.36411 0 255 0
-0.10294 0.30487 1.36357 0 255 0
-0.09395 0.2962 1.36573 0 255 0
-0.09028 0.30078 1.36573 0 255 0
-0.07341 0.29046 1.34843 0 255 0
-0.07082 0.2817 1.34293 0 255 0
-0.05974 0.28176 1.32788 0 255 0
-0.0556 0.27844 1.32482 0 255 0
-0.0446 0.28118 1.3226 0 255 0
-0.34488 0.48722 1.47555 0 150 0
-0.03868 0.27455 1.31572 0 150 0
-0.34488 0.48722 1.47555 150 150 150
-0.03868 0.27455 1.31572 150 150 150
35 36
