ply
format ascii 1.0
comment VCGLIB generated
element vertex 35
property float x
property float y
property float z
property uchar red
property uchar green
property uchar blue
element face 0
property list uchar int vertex_indices
element edge 1
property int vertex1
property int vertex2
end_header
-0.31042 0.47301 1.45318 0 255 0
-0.31152 0.46637 1.4492 0 255 0
-0.30366 0.45822 1.44647 0 255 0
-0.2916 0.44121 1.44081 0 255 0
-0.27634 0.44331 1.44058 0 255 0
-0.27242 0.4382 1.44284 0 255 0
-0.27454 0.42712 1.46633 0 255 0
-0.2576 0.4181 1.47429 0 255 0
-0.25167 0.40179 1.47429 0 255 0
-0.24443 0.4023 1.45471 0 255 0
-0.23236 0.40655 1.4285 0 255 0
-0.2223 0.4123 1.4285 0 255 0
-0.21991 0.40186 1.42496 0 255 0
-0.21307 0.39568 1.42249 0 255 0
-0.20075 0.38644 1.4285 0 255 0
-0.19996 0.36854 1.42969 0 255 0
-0.19202 0.36767 1.41706 0 255 0
-0.18621 0.36102 1.41621 0 255 0
-0.18015 0.36103 1.40237 0 255 0
-0.173 0.35376 1.40152 0 255 0
-0.17309 0.34403 1.43743 0 255 0
-0.15096 0.33702 1.3679 0 255 0
-0.15526 0.3326 1.39041 0 255 0
-0.13635 0.3127 1.38363 0 255 0
-0.12202 0.31214 1.36735 0 255 0
-0.10838 0.31755 1.36303 0 255 0
-0.0945 0.30726 1.36708 0 255 0
-0.08122 0.29097 1.35208 0 255 0
-0.07291 0.29442 1.34917 0 255 0
-0.05343 0.28641 1.33714 0 255 0
-0.03859 0.27658 1.31648 0 255 0
-0.32877 0.47593 1.47429 0 150 0
-0.0207 0.25917 1.30824 0 150 0
-0.32877 0.47593 1.47429 150 150 150
-0.0207 0.25917 1.30824 150 150 150
33 34
