ply
format ascii 1.0
comment VCGLIB generated
element vertex 17
property float x
property float y
property float z
property uchar red
property uchar green
property uchar blue
element face 0
property list uchar int vertex_indices
element edge 1
property int vertex1
property int vertex2
end_header
-0.52097 0.47238 2.0335 0 255 0
-0.50825 0.48423 2.0317 0 255 0
-0.48763 0.50241 2.02812 0 255 0
-0.5121 0.51465 2.03891 0 255 0
-0.48006 0.52044 2.03351 0 255 0
-0.49715 0.52825 2.02812 0 255 0
-0.47837 0.56243 2.02633 0 255 0
-0.46044 0.57312 2.02812 0 255 0
-0.45552 0.57669 2.0335 0 255 0
-0.45853 0.58503 2.0317 0 255 0
-0.44522 0.59157 2.04253 0 255 0
-0.43957 0.6122 2.05777 0 255 0
-0.44475 0.62667 2.04981 0 255 0
-0.50212 0.45153 2.0317 0 150 0
-0.44967 0.6505 2.05347 0 150 0
-0.50212 0.45153 2.0317 150 150 150
-0.44967 0.6505 2.05347 150 150 150
15 16
