ply
format ascii 1.0
comment VCGLIB generated
element vertex 29
property float x
property float y
property float z
property uchar red
property uchar green
property uchar blue
element face 0
property list uchar int vertex_indices
element edge 1
property int vertex1
property int vertex2
end_header
-0.03848 1.5131 1.79213 0 255 0
-0.0294 1.52499 1.78521 0 255 0
-0.02737 1.53475 1.76862 0 255 0
-0.01027 1.53774 1.77923 0 255 0
-0.01788 1.54993 1.77036 0 255 0
-0.01746 1.55624 1.76876 0 255 0
-0.01449 1.57115 1.77064 0 255 0
-0.02418 1.57892 1.76484 0 255 0
-0.0224 1.59134 1.76423 0 255 0
-0.02448 1.59836 1.76696 0 255 0
-0.02829 1.61331 1.75541 0 255 0
-0.02807 1.61758 1.75453 0 255 0
-0.02917 1.62501 1.73441 0 255 0
-0.02597 1.64737 1.73623 0 255 0
-0.0266 1.65957 1.73966 0 255 0
-0.02797 1.66876 1.74133 0 255 0
-0.01543 1.67587 1.74728 0 255 0
-0.02071 1.68319 1.74838 0 255 0
-0.02145 1.6973 1.75336 0 255 0
-0.00936 1.71374 1.77508 0 255 0
-0.01036 1.72225 1.78112 0 255 0
-0.01455 1.73298 1.78199 0 255 0
-0.01466 1.74787 1.78761 0 255 0
-0.01383 1.76908 1.79261 0 255 0
-0.0188 1.79011 1.79382 0 255 0
-0.0248 1.4983 1.79474 0 150 0
-0.01842 1.81119 1.80673 0 150 0
-0.0248 1.4983 1.79474 150 150 150
-0.01842 1.81119 1.80673 150 150 150
27 28
