ply
format ascii 1.0
comment VCGLIB generated
element vertex 55
property float x
property float y
property float z
property uchar red
property uchar green
property uchar blue
element face 0
property list uchar int vertex_indices
element edge 1
property int vertex1
property int vertex2
end_header
-0.33066 0.04529 1.36573 0 255 0
-0.32471 0.06544 1.36573 0 255 0
-0.33254 0.07298 1.35288 0 255 0
-0.31275 0.08858 1.36952 0 255 0
-0.31223 0.09498 1.36925 0 255 0
-0.30461 0.11508 1.379 0 255 0
-0.30055 0.12685 1.37883 0 255 0
-0.29704 0.15115 1.40153 0 255 0
-0.28025 0.16863 1.40924 0 255 0
-0.27546 0.1853 1.4285 0 255 0
-0.26729 0.20218 1.44647 0 255 0
-0.25487 0.19786 1.42585 0 255 0
-0.24948 0.19957 1.42785 0 255 0
-0.24916 0.21448 1.43923 0 255 0
-0.23494 0.21295 1.42673 0 255 0
-0.22657 0.22065 1.44044 0 255 0
-0.22859 0.23234 1.44708 0 255 0
-0.22143 0.23638 1.45103 0 255 0
-0.21315 0.24117 1.44768 0 255 0
-0.20318 0.25812 1.46676 0 255 0
-0.19841 0.26216 1.4796 0 255 0
-0.18584 0.26219 1.48141 0 255 0
-0.16873 0.28352 1.48716 0 255 0
-0.1711 0.3042 1.48284 0 255 0
-0.15052 0.31525 1.48572 0 255 0
-0.1472 0.32585 1.48097 0 255 0
-0.13782 0.33402 1.49399 0 255 0
-0.13805 0.34008 1.49635 0 255 0
-0.12911 0.34738 1.51508 0 255 0
-0.13098 0.35594 1.51908 0 255 0
-0.13185 0.36753 1.52918 0 255 0
-0.11046 0.37264 1.53122 0 255 0
-0.1083 0.37545 1.53326 0 255 0
-0.09622 0.37269 1.52512 0 255 0
-0.08143 0.39841 1.53556 0 255 0
-0.0709 0.39529 1.54148 0 255 0
-0.07193 0.40356 1.54148 0 255 0
-0.06686 0.40894 1.54854 0 255 0
-0.08034 0.42241 1.54424 0 255 0
-0.06721 0.4375 1.55188 0 255 0
-0.05293 0.44406 1.5603 0 255 0
-0.0393 0.45765 1.58014 0 255 0
-0.03933 0.46433 1.58122 0 255 0
-0.03939 0.4715 1.58394 0 255 0
-0.01772 0.45863 1.59272 0 255 0
-0.01074 0.49334 1.58759 0 255 0
-0.01073 0.50086 1.58613 0 255 0
0.01162 0.49479 1.58969 0 255 0
0.018 0.50138 1.58777 0 255 0
0.03558 0.50795 1.58832 0 255 0
0.04686 0.52181 1.59162 0 255 0
-0.33945 0.03799 1.36024 0 150 0
0.06173 0.52903 1.60383 0 150 0
-0.33945 0.03799 1.36024 150 150 150
0.06173 0.52903 1.60383 150 150 150
53 54
