ply
format ascii 1.0
comment VCGLIB generated
element vertex 19
property float x
property float y
property float z
property uchar red
property uchar green
property uchar blue
element face 0
property list uchar int vertex_indices
element edge 1
property int vertex1
property int vertex2
end_header
0.48656 -0.03023 1.57959 0 255 0
0.49388 -0.03103 1.58014 0 255 0
0.49472 -0.03623 1.59832 0 255 0
0.51326 -0.04583 1.60682 0 255 0
0.51949 -0.04532 1.60775 0 255 0
0.52725 -0.03895 1.61169 0 255 0
0.54326 -0.03917 1.62078 0 255 0
0.55951 -0.03274 1.62536 0 255 0
0.57544 -0.03454 1.63344 0 255 0
0.58617 -0.0381 1.64513 0 255 0
0.59525 -0.04465 1.64278 0 255 0
0.62088 -0.03545 1.6763 0 255 0
0.64704 -0.03568 1.68737 0 255 0
0.66038 -0.02434 1.68531 0 255 0
0.66761 -0.04733 1.74102 0 255 0
0.47619 -0.02352 1.55608 0 150 0
0.69631 -0.03302 1.72535 0 150 0
0.47619 -0.02352 1.55608 150 150 150
0.69631 -0.03302 1.72535 150 150 150
17 18
