ply
format ascii 1.0
comment VCGLIB generated
element vertex 29
property float x
property float y
property float z
property uchar red
property uchar green
property uchar blue
element face 0
property list uchar int vertex_indices
element edge 1
property int vertex1
property int vertex2
end_header
0.36711 0.27382 1.53839 0 255 0
0.37815 0.26283 1.53298 0 255 0
0.38797 0.25782 1.51708 0 255 0
0.38901 0.24195 1.52976 0 255 0
0.40207 0.24717 1.52042 0 255 0
0.40834 0.24594 1.51908 0 255 0
0.42283 0.24178 1.52176 0 255 0
0.43164 0.24986 1.51508 0 255 0
0.44383 0.24681 1.51508 0 255 0
0.45098 0.24852 1.51775 0 255 0
0.46645 0.24939 1.50629 0 255 0
0.47069 0.24863 1.50559 0 255 0
0.47857 0.24651 1.48572 0 255 0
0.50046 0.24137 1.4886 0 255 0
0.51258 0.24123 1.4923 0 255 0
0.52183 0.24189 1.49408 0 255 0
0.52752 0.22953 1.50172 0 255 0
0.53532 0.23417 1.50241 0 255 0
0.54934 0.23413 1.5077 0 255 0
0.56406 0.22326 1.53122 0 255 0
0.57251 0.22416 1.53736 0 255 0
0.58359 0.22735 1.53804 0 255 0
0.5983 0.22669 1.54407 0 255 0
0.61923 0.22441 1.54979 0 255 0
0.64063 0.2274 1.55104 0 255 0
0.35095 0.26208 1.54217 0 150 0
0.66131 0.22655 1.56455 0 150 0
0.35095 0.26208 1.54217 150 150 150
0.66131 0.22655 1.56455 150 150 150
27 28
