ply
format ascii 1.0
comment VCGLIB generated
element vertex 54
property float x
property float y
property float z
property uchar red
property uchar green
property uchar blue
element face 0
property list uchar int vertex_indices
element edge 1
property int vertex1
property int vertex2
end_header
-0.33388 0.0567 1.35928 0 255 0
-0.33345 0.06673 1.35474 0 255 0
-0.33066 0.07383 1.36008 0 255 0
-0.3269 0.08121 1.35394 0 255 0
-0.33178 0.08772 1.34245 0 255 0
-0.31223 0.09498 1.36925 0 255 0
-0.31681 0.11493 1.37718 0 255 0
-0.31928 0.12251 1.38994 0 255 0
-0.31139 0.13138 1.39008 0 255 0
-0.3037 0.13907 1.39008 0 255 0
-0.31133 0.14242 1.40237 0 255 0
-0.29653 0.15407 1.4058 0 255 0
-0.28418 0.16337 1.40066 0 255 0
-0.26778 0.19069 1.42585 0 255 0
-0.26188 0.19201 1.42496 0 255 0
-0.25678 0.21355 1.44465 0 255 0
-0.24086 0.20664 1.43206 0 255 0
-0.23236 0.2169 1.4285 0 255 0
-0.21546 0.24352 1.45012 0 255 0
-0.20802 0.25974 1.45932 0 255 0
-0.19841 0.26216 1.4796 0 255 0
-0.17136 0.26239 1.48764 0 255 0
-0.17271 0.28499 1.4838 0 255 0
-0.15922 0.2906 1.49732 0 255 0
-0.14331 0.30101 1.50418 0 255 0
-0.14632 0.31137 1.4886 0 255 0
-0.13548 0.32609 1.50123 0 255 0
-0.12866 0.3267 1.51575 0 255 0
-0.12304 0.33984 1.51541 0 255 0
-0.11491 0.35354 1.51668 0 255 0
-0.10838 0.3616 1.52361 0 255 0
-0.10082 0.36656 1.52512 0 255 0
-0.10444 0.37468 1.53326 0 255 0
-0.08767 0.39513 1.53122 0 255 0
-0.0709 0.39529 1.54148 0 255 0
-0.07252 0.40966 1.54303 0 255 0
-0.06665 0.42421 1.55083 0 255 0
-0.06047 0.43088 1.5524 0 255 0
-0.04375 0.44648 1.56882 0 255 0
-0.04511 0.45803 1.57959 0 255 0
-0.05839 0.46576 1.58068 0 255 0
-0.03939 0.4715 1.58394 0 255 0
-0.03481 0.48853 1.59272 0 255 0
-0.02193 0.50156 1.58832 0 255 0
-0.00436 0.49357 1.58832 0 255 0
0.00043 0.48718 1.58832 0 255 0
0.01806 0.48693 1.59272 0 255 0
0.02386 0.50209 1.58832 0 255 0
0.03757 0.50029 1.5914 0 255 0
0.05198 0.50736 1.60159 0 255 0
-0.33336 0.05175 1.36217 0 150 0
0.0602 0.50716 1.60607 0 150 0
-0.33336 0.05175 1.36217 150 150 150
0.0602 0.50716 1.60607 150 150 150
52 53
