ply
format ascii 1.0
comment VCGLIB generated
element vertex 31
property float x
property float y
property float z
property uchar red
property uchar green
property uchar blue
element face 0
property list uchar int vertex_indices
element edge 2
property int vertex1
property int vertex2
end_header
-0.04035 1.36487 1.60766 0 255 0
-0.04164 1.36984 1.60883 0 255 0
-0.03578 1.38343 1.61151 0 255 0
-0.02748 1.38007 1.61368 0 255 0
-0.02712 1.39802 1.63293 0 255 0
-0.03424 1.40949 1.64469 0 255 0
-0.03461 1.41586 1.65007 0 255 0
-0.0293 1.44439 1.65608 0 255 0
-0.06346 1.46194 1.67318 0 255 0
-0.02912 1.47565 1.65866 0 255 0
-0.02827 1.49795 1.66346 0 255 0
-0.0428 1.51631 1.68152 0 255 0
-0.04411 1.52433 1.69181 0 255 0
-0.03892 1.53493 1.70094 0 255 0
-0.04238 1.56309 1.71806 0 255 0
-0.02114 1.57631 1.76966 0 255 0
-0.02434 1.59003 1.76214 0 255 0
-0.00671 1.92156 1.86136 0 255 0
-0.01328 1.93265 1.86308 0 255 0
-0.00286 1.94332 1.85968 0 255 0
0.01062 1.95721 1.8581 0 255 0
0.01028 1.96144 1.86001 0 255 0
0.00964 1.96724 1.86184 0 255 0
-0.03843 1.35663 1.60489 0 150 0
-0.02263 1.59544 1.75595 0 150 0
-0.04513 1.9079 1.87867 0 150 0
0.02237 1.97047 1.86268 0 150 0
-0.03843 1.35663 1.60489 150 150 150
-0.02263 1.59544 1.75595 150 150 150
-0.04513 1.9079 1.87867 150 150 150
0.02237 1.97047 1.86268 150 150 150
27 28
29 30
