ply
format ascii 1.0
comment VCGLIB generated
element vertex 18
property float x
property float y
property float z
property uchar red
property uchar green
property uchar blue
element face 0
property list uchar int vertex_indices
element edge 1
property int vertex1
property int vertex2
end_header
-0.0794 0.59875 2.14943 0 255 0
-0.07158 0.60899 2.10999 0 255 0
-0.06019 0.59917 2.08323 0 255 0
-0.03305 0.584 2.08891 0 255 0
-0.02006 0.58544 2.04981 0 255 0
-0.01798 0.57462 2.04799 0 255 0
-0.00358 0.58132 2.05714 0 255 0
0.00262 0.56381 2.04616 0 255 0
0.02566 0.55626 2.07946 0 255 0
0.02995 0.58557 2.08701 0 255 0
0.04366 0.57929 2.14142 0 255 0
0.0516 0.57184 2.11387 0 255 0
0.06786 0.56981 2.09081 0 255 0
0.07333 0.56318 2.08701 0 255 0
-0.08813 0.60581 2.15144 0 150 0
0.07483 0.54742 2.11056 0 150 0
-0.08813 0.60581 2.15144 150 150 150
0.07483 0.54742 2.11056 150 150 150
16 17
