ply
format ascii 1.0
comment VCGLIB generated
element vertex 51
property float x
property float y
property float z
property uchar red
property uchar green
property uchar blue
element face 0
property list uchar int vertex_indices
element edge 2
property int vertex1
property int vertex2
end_header
0.42833 0.30249 2.03802 0 255 0
0.43623 0.30557 2.03288 0 255 0
0.45405 0.3047 2.028 0 255 0
0.46931 0.30016 2.04167 0 255 0
0.47814 0.30884 2.04266 0 255 0
0.48433 0.31386 2.01529 0 255 0
0.48439 0.32066 2.00939 0 255 0
0.49121 0.31849 1.99154 0 255 0
0.50095 0.31389 1.98221 0 255 0
0.50604 0.31153 1.98195 0 255 0
0.51667 0.3228 1.9725 0 255 0
0.52409 0.32685 1.9701 0 255 0
0.54733 0.32621 1.96186 0 255 0
0.55904 0.32442 1.95523 0 255 0
0.57458 0.33527 1.93373 0 255 0
0.57852 0.33313 1.93142 0 255 0
0.59128 0.3245 1.92102 0 255 0
0.59738 0.33169 1.91515 0 255 0
0.62869 0.33722 1.90866 0 255 0
0.63386 0.33949 1.90845 0 255 0
0.63864 0.33311 1.90586 0 255 0
0.64911 0.34285 1.89758 0 255 0
0.65499 0.34437 1.89359 0 255 0
0.66241 0.3421 1.89128 0 255 0
0.67616 0.35602 1.88346 0 255 0
0.68475 0.36055 1.87748 0 255 0
0.69278 0.35412 1.86822 0 255 0
0.69801 0.34984 1.85274 0 255 0
0.70668 0.35146 1.83735 0 255 0
0.72266 0.35241 1.82956 0 255 0
0.74395 0.35514 1.82983 0 255 0
0.75091 0.36545 1.82421 0 255 0
0.76231 0.362 1.82741 0 255 0
0.7696 0.36292 1.84046 0 255 0
0.77938 0.35996 1.85223 0 255 0
0.78899 0.36389 1.80309 0 255 0
0.8006 0.36449 1.79476 0 255 0
0.80386 0.37418 1.7846 0 255 0
0.8171 0.3659 1.78918 0 255 0
0.82476 0.3725 1.78112 0 255 0
0.85299 0.37331 1.773 0 255 0
0.87409 0.38213 1.74423 0 255 0
0.87759 0.39392 1.73472 0 255 0
0.89071 0.38203 1.72653 0 255 0
0.42032 0.30389 2.03926 0 150 0
0.90982 0.39964 1.71697 0 150 0
0.3461 0.27106 2.07157 0 0 255
0.42032 0.30389 2.03926 150 150 150
0.90982 0.39964 1.71697 150 150 150
0.27191 0.25654 2.12042 150 150 150
0.42029 0.28557 2.02273 150 150 150
47 48
49 50
