ply
format ascii 1.0
comment VCGLIB generated
element vertex 51
property float x
property float y
property float z
property uchar red
property uchar green
property uchar blue
element face 0
property list uchar int vertex_indices
element edge 2
property int vertex1
property int vertex2
end_header
-0.18446 0.22662 1.24752 0 255 0
-0.17846 0.22002 1.24318 0 255 0
-0.17396 0.20289 1.23783 0 255 0
-0.17811 0.18595 1.24949 0 255 0
-0.16815 0.17916 1.2525 0 255 0
-0.15519 0.17647 1.22726 0 255 0
-0.14731 0.17837 1.22334 0 255 0
-0.14333 0.17272 1.20539 0 255 0
-0.14309 0.16301 1.19496 0 255 0
-0.14408 0.15758 1.19397 0 255 0
-0.12867 0.15046 1.18755 0 255 0
-0.12255 0.14431 1.18612 0 255 0
-0.11573 0.12224 1.17747 0 255 0
-0.11307 0.111 1.17033 0 255 0
-0.09393 0.1 1.15206 0 255 0
-0.09446 0.0959 1.14918 0 255 0
-0.09705 0.08247 1.13659 0 255 0
-0.08741 0.07857 1.13267 0 255 0
-0.07337 0.04985 1.12712 0 255 0
-0.06999 0.04532 1.1274 0 255 0
-0.07425 0.03951 1.12311 0 255 0
-0.06061 0.03211 1.11743 0 255 0
-0.05683 0.02704 1.11384 0 255 0
-0.05668 0.01952 1.11085 0 255 0
-0.03846 0.00981 1.10661 0 255 0
-0.03073 0.00293 1.10183 0 255 0
-0.03262 -0.00552 1.09103 0 255 0
-0.03159 -0.01027 1.07485 0 255 0
-0.02424 -0.01709 1.06022 0 255 0
-0.01771 -0.03179 1.05258 0 255 0
-0.01031 -0.05193 1.05306 0 255 0
0.0024 -0.05601 1.05018 0 255 0
0.00099 -0.0681 1.0521 0 255 0
0.00029 -0.07606 1.06476 0 255 0
-0.00317 -0.08718 1.07512 0 255 0
0.01497 -0.09165 1.0285 0 255 0
0.02029 -0.10214 1.02036 0 255 0
0.03269 -0.10237 1.01301 0 255 0
0.02682 -0.11742 1.01495 0 255 0
0.0368 -0.12278 1.00872 0 255 0
0.04609 -0.14941 1.00045 0 255 0
0.06642 -0.16566 0.9745 0 255 0
0.08068 -0.16572 0.96832 0 255 0
0.07457 -0.1804 0.95701 0 255 0
-0.1853 0.23461 1.24926 0 150 0
0.09792 -0.19438 0.95194 0 150 0
-0.24135 0.29704 1.27359 0 0 255
-0.1853 0.23461 1.24926 150 150 150
0.09792 -0.19438 0.95194 150 150 150
-0.28427 0.36205 1.31866 150 150 150
-0.19843 0.23202 1.22853 150 150 150
47 48
49 50
