ply
format ascii 1.0
comment VCGLIB generated
element vertex 17
property float x
property float y
property float z
property uchar red
property uchar green
property uchar blue
element face 0
property list uchar int vertex_indices
element edge 2
property int vertex1
property int vertex2
end_header
0.24937 -0.11924 1.50025 0 255 0
0.25825 -0.13979 1.59714 0 255 0
0.26282 -0.12745 1.50813 0 255 0
0.27381 -0.13367 1.52715 0 255 0
0.28305 -0.1281 1.52176 0 255 0
0.30483 -0.12996 1.52867 0 255 0
0.31027 -0.13644 1.53531 0 255 0
0.32223 -0.15138 1.58394 0 255 0
0.33237 -0.14306 1.54231 0 255 0
0.34013 -0.15646 1.57096 0 255 0
0.24078 -0.11461 1.48908 0 150 0
0.34494 -0.1477 1.55347 0 150 0
0.67862 -0.23444 1.73436 0 0 255
0.24078 -0.11461 1.48908 150 150 150
0.34494 -0.1477 1.55347 150 150 150
0.58862 -0.23444 1.73436 150 150 150
0.76862 -0.23444 1.73436 150 150 150
13 14
15 16
