ply
format ascii 1.0
comment VCGLIB generated
element vertex 19
property float x
property float y
property float z
property uchar red
property uchar green
property uchar blue
element face 0
property list uchar int vertex_indices
element edge 1
property int vertex1
property int vertex2
end_header
0.33459 1.60253 1.35997 0 255 0
0.33446 1.60989 1.35942 0 255 0
0.3449 1.61396 1.37467 0 255 0
0.35389 1.63445 1.37746 0 255 0
0.35281 1.64066 1.37783 0 255 0
0.34694 1.64824 1.38277 0 255 0
0.34767 1.66537 1.38948 0 255 0
0.34072 1.68139 1.39411 0 255 0
0.34264 1.69844 1.39936 0 255 0
0.34808 1.71111 1.40798 0 255 0
0.35219 1.72035 1.40263 0 255 0
0.35032 1.74966 1.43431 0 255 0
0.35023 1.77707 1.44176 0 255 0
0.33701 1.78873 1.4421 0 255 0
0.37494 1.80652 1.48602 0 255 0
0.32245 1.58812 1.34125 0 150 0
0.35247 1.83095 1.47288 0 150 0
0.32245 1.58812 1.34125 150 150 150
0.35247 1.83095 1.47288 150 150 150
17 18
