ply
format ascii 1.0
comment VCGLIB generated
element vertex 40
property float x
property float y
property float z
property uchar red
property uchar green
property uchar blue
element face 0
property list uchar int vertex_indices
element edge 2
property int vertex1
property int vertex2
end_header
0.00357 1.55533 1.79075 0 255 0
-0.00425 1.55979 1.80431 0 255 0
-0.00443 1.57487 1.77593 0 255 0
-0.00916 1.58177 1.76484 0 255 0
-0.01047 1.59946 1.75835 0 255 0
-0.00469 1.60097 1.76311 0 255 0
0.00501 1.60724 1.77609 0 255 0
-0.00732 1.61917 1.75645 0 255 0
-0.01268 1.62983 1.75353 0 255 0
-0.00053 1.63649 1.75949 0 255 0
-0.00838 1.64864 1.75863 0 255 0
-0.00839 1.66612 1.76368 0 255 0
0.0044 1.67149 1.76999 0 255 0
-0.00314 1.67924 1.76696 0 255 0
0.00365 1.69684 1.77357 0 255 0
-0.00574 1.69857 1.7706 0 255 0
0.00238 1.70889 1.77187 0 255 0
0.00779 1.71189 1.77918 0 255 0
0.00592 1.72443 1.79525 0 255 0
0.01037 1.74399 1.8106 0 255 0
0.01208 1.75363 1.81115 0 255 0
0.01617 1.75721 1.81174 0 255 0
0.0043 1.78075 1.8144 0 255 0
0.01566 1.78756 1.81606 0 255 0
0.01196 1.79405 1.8163 0 255 0
0.0129 1.8213 1.82662 0 255 0
0.0198 1.83605 1.84028 0 255 0
0.02765 1.83871 1.84743 0 255 0
0.01635 1.85766 1.85153 0 255 0
0.0159 1.87491 1.85701 0 255 0
0.02229 1.87413 1.85344 0 255 0
0.034 1.88051 1.85499 0 255 0
0.02633 1.89593 1.85902 0 255 0
-0.0204 1.52382 1.79725 0 150 0
0.03819 1.89875 1.86164 0 150 0
-0.00435 2.01933 1.89431 0 0 255
-0.0204 1.52382 1.79725 150 150 150
0.03819 1.89875 1.86164 150 150 150
-0.01805 1.93166 1.87925 150 150 150
0.00935 2.10699 1.90936 150 150 150
36 37
38 39
