ply
format ascii 1.0
comment VCGLIB generated
element vertex 21
property float x
property float y
property float z
property uchar red
property uchar green
property uchar blue
element face 0
property list uchar int vertex_indices
element edge 2
property int vertex1
property int vertex2
end_header
0.20778 -0.14259 1.61057 0 255 0
0.22032 -0.14394 1.60756 0 255 0
0.22525 -0.10202 1.4838 0 255 0
0.23321 -0.10749 1.4838 0 255 0
0.24432 -0.11466 1.49467 0 255 0
0.2652 -0.12939 1.51308 0 255 0
0.2861 -0.1306 1.52715 0 255 0
0.29633 -0.14481 1.58177 0 255 0
0.29992 -0.14501 1.58394 0 255 0
0.31204 -0.14112 1.54148 0 255 0
0.32449 -0.15489 1.58722 0 255 0
0.33318 -0.15104 1.55837 0 255 0
0.347 -0.15059 1.55925 0 255 0
0.35364 -0.15477 1.55398 0 255 0
0.19185 -0.14279 1.61282 0 150 0
0.38385 -0.15875 1.56242 0 150 0
0.68463 -0.2307 1.73067 0 0 255
0.19185 -0.14279 1.61282 150 150 150
0.38385 -0.15875 1.56242 150 150 150
0.74827 -0.29433 1.73067 150 150 150
0.62099 -0.16706 1.73067 150 150 150
17 18
19 20
