ply
format ascii 1.0
comment VCGLIB generated
element vertex 17
property float x
property float y
property float z
property uchar red
property uchar green
property uchar blue
element face 0
property list uchar int vertex_indices
element edge 2
property int vertex1
property int vertex2
end_header
-0.04579 1.48871 1.69521 0 255 0
-0.02336 1.51088 1.78952 0 255 0
-0.04054 1.50433 1.70144 0 255 0
-0.03614 1.51814 1.71908 0 255 0
-0.04393 1.52535 1.71336 0 255 0
-0.04681 1.54754 1.71838 0 255 0
-0.04145 1.55489 1.72412 0 255 0
-0.02742 1.57433 1.77056 0 255 0
-0.03977 1.57845 1.7289 0 255 0
-0.0272 1.59163 1.7559 0 255 0
-0.04883 1.4783 1.68509 0 150 0
-0.03764 1.59271 1.7387 0 150 0
-0.02169 1.95257 1.88646 0 0 255
-0.04883 1.4783 1.68509 150 150 150
-0.03764 1.59271 1.7387 150 150 150
-0.00099 1.86528 1.89359 150 150 150
-0.04239 2.03987 1.87934 150 150 150
13 14
15 16
