ply
format ascii 1.0
comment VCGLIB generated
element vertex 55
property float x
property float y
property float z
property uchar red
property uchar green
property uchar blue
element face 0
property list uchar int vertex_indices
element edge 2
property int vertex1
property int vertex2
end_header
0.40231 0.32822 2.05199 0 255 0
0.40774 0.31486 2.04217 0 255 0
0.41401 0.31863 2.03674 0 255 0
0.42456 0.31559 2.03184 0 255 0
0.42833 0.30249 2.03802 0 255 0
0.4406 0.29635 2.03967 0 255 0
0.45405 0.3047 2.028 0 255 0
0.45997 0.31117 2.02962 0 255 0
0.46931 0.30016 2.04167 0 255 0
0.47769 0.30691 2.05075 0 255 0
0.48129 0.31983 2.01667 0 255 0
0.49256 0.31162 1.99376 0 255 0
0.50142 0.3196 1.97885 0 255 0
0.50963 0.31503 1.97549 0 255 0
0.51491 0.31617 1.97488 0 255 0
0.52682 0.30857 1.97574 0 255 0
0.54024 0.32827 1.96428 0 255 0
0.55809 0.33688 1.95117 0 255 0
0.57306 0.32357 1.93825 0 255 0
0.58017 0.31555 1.92873 0 255 0
0.59299 0.33018 1.9193 0 255 0
0.60844 0.32766 1.91398 0 255 0
0.61852 0.32954 1.91154 0 255 0
0.62892 0.34562 1.90553 0 255 0
0.6417 0.33979 1.90293 0 255 0
0.65403 0.34127 1.8945 0 255 0
0.66043 0.34602 1.89095 0 255 0
0.6708 0.34443 1.88701 0 255 0
0.67879 0.34086 1.88477 0 255 0
0.69526 0.35372 1.86411 0 255 0
0.70252 0.35266 1.84017 0 255 0
0.7084 0.35847 1.83545 0 255 0
0.72987 0.35088 1.83047 0 255 0
0.74395 0.35514 1.82983 0 255 0
0.75961 0.36067 1.87128 0 255 0
0.77264 0.36206 1.84436 0 255 0
0.78161 0.36679 1.81572 0 255 0
0.79071 0.36676 1.79721 0 255 0
0.80099 0.36836 1.79144 0 255 0
0.80973 0.37164 1.78425 0 255 0
0.81511 0.36635 1.78901 0 255 0
0.82655 0.38025 1.77594 0 255 0
0.84005 0.37656 1.77491 0 255 0
0.84666 0.37402 1.77553 0 255 0
0.85153 0.38148 1.75558 0 255 0
0.86948 0.37269 1.75555 0 255 0
0.87639 0.37501 1.74925 0 255 0
0.87977 0.39936 1.73196 0 255 0
0.39177 0.3345 2.06687 0 150 0
0.90335 0.39866 1.72027 0 150 0
0.35035 0.27293 2.06934 0 0 255
0.39177 0.3345 2.06687 150 150 150
0.90335 0.39866 1.72027 150 150 150
0.27624 0.26363 2.11955 150 150 150
0.42446 0.28222 2.01913 150 150 150
51 52
53 54
