ply
format ascii 1.0
comment VCGLIB generated
element vertex 40
property float x
property float y
property float z
property uchar red
property uchar green
property uchar blue
element face 0
property list uchar int vertex_indices
element edge 2
property int vertex1
property int vertex2
end_header
-0.23098 -0.1193 1.19786 0 255 0
-0.22391 -0.11459 1.21174 0 255 0
-0.20931 -0.12271 1.18429 0 255 0
-0.20035 -0.1224 1.17368 0 255 0
-0.18415 -0.13045 1.16825 0 255 0
-0.18608 -0.1361 1.17302 0 255 0
-0.18639 -0.14738 1.18623 0 255 0
-0.16876 -0.14328 1.16746 0 255 0
-0.15672 -0.14418 1.16522 0 255 0
-0.15755 -0.15791 1.17142 0 255 0
-0.14307 -0.15739 1.17136 0 255 0
-0.12836 -0.16621 1.17742 0 255 0
-0.13065 -0.17983 1.18388 0 255 0
-0.11998 -0.17737 1.1814 0 255 0
-0.10873 -0.19207 1.18894 0 255 0
-0.10228 -0.18495 1.18619 0 255 0
-0.09765 -0.19717 1.18796 0 255 0
-0.09826 -0.20321 1.19537 0 255 0
-0.08745 -0.20769 1.21217 0 255 0
-0.0738 -0.22121 1.22857 0 255 0
-0.06645 -0.22759 1.22967 0 255 0
-0.0655 -0.23293 1.23041 0 255 0
-0.0394 -0.23471 1.23458 0 255 0
-0.03946 -0.24793 1.2365 0 255 0
-0.03201 -0.24806 1.23716 0 255 0
-0.00971 -0.26258 1.24903 0 255 0
-0.00135 -0.27578 1.26345 0 255 0
-0.00349 -0.28374 1.27066 0 255 0
0.01831 -0.28365 1.27598 0 255 0
0.03303 -0.29197 1.28247 0 255 0
0.02929 -0.29713 1.27878 0 255 0
0.02868 -0.31042 1.28056 0 255 0
0.0456 -0.31164 1.28557 0 255 0
-0.2461 -0.08247 1.20279 0 150 0
0.04181 -0.32322 1.28822 0 150 0
0.16513 -0.34766 1.32833 0 0 255
-0.2461 -0.08247 1.20279 150 150 150
0.04181 -0.32322 1.28822 150 150 150
0.09781 -0.29137 1.30835 150 150 150
0.23245 -0.40395 1.3483 150 150 150
36 37
38 39
