ply
format ascii 1.0
comment VCGLIB generated
element vertex 19
property float x
property float y
property float z
property uchar red
property uchar green
property uchar blue
element face 0
property list uchar int vertex_indices
element edge 1
property int vertex1
property int vertex2
end_header
-0.21294 0.18552 1.00387 0 255 0
-0.2067 0.21485 0.99305 0 255 0
-0.20739 0.2275 0.99097 0 255 0
-0.20745 0.24554 0.99122 0 255 0
-0.19952 0.24152 0.98941 0 255 0
-0.20031 0.26188 0.98927 0 255 0
-0.20835 0.26958 0.99286 0 255 0
-0.19789 0.28292 0.9889 0 255 0
-0.20064 0.29074 0.9898 0 255 0
-0.19682 0.3003 0.98875 0 255 0
-0.20043 0.31879 0.99542 0 255 0
-0.18086 0.32643 0.98106 0 255 0
-0.18299 0.34009 0.98296 0 255 0
-0.18377 0.34552 0.98478 0 255 0
-0.17436 0.3672 0.97755 0 255 0
-0.2142 0.24252 1.00568 0 150 0
-0.17142 0.32748 0.97799 0 150 0
-0.2142 0.24252 1.00568 150 150 150
-0.17142 0.32748 0.97799 150 150 150
17 18
