ply
format ascii 1.0
comment VCGLIB generated
element vertex 19
property float x
property float y
property float z
property uchar red
property uchar green
property uchar blue
element face 0
property list uchar int vertex_indices
element edge 1
property int vertex1
property int vertex2
end_header
-0.32532 1.51212 -0.08667 0 255 0
-0.34174 1.52357 -0.11149 0 255 0
-0.34548 1.52621 -0.12349 0 255 0
-0.35148 1.5267 -0.14049 0 255 0
-0.35769 1.52768 -0.13396 0 255 0
-0.3638 1.52871 -0.15337 0 255 0
-0.3586 1.52612 -0.16352 0 255 0
-0.37317 1.52974 -0.17234 0 255 0
-0.37315 1.52938 -0.18067 0 255 0
-0.38003 1.5305 -0.18832 0 255 0
-0.38242 1.52491 -0.20737 0 255 0
-0.40431 1.53788 -0.2071 0 255 0
-0.40677 1.53673 -0.22079 0 255 0
-0.40775 1.5352 -0.22628 0 255 0
-0.42435 1.5425 -0.24308 0 255 0
-0.34318 1.51274 -0.14085 0 150 0
-0.41372 1.5402 -0.20476 0 150 0
-0.34318 1.51274 -0.14085 150 150 150
-0.41372 1.5402 -0.20476 150 150 150
17 18
